<mxfile host="drawio-plugin" modified="2024-11-22T14:10:45.086Z" agent="Mozilla/5.0 (Macintosh; Intel Mac OS X 10_15_7) AppleWebKit/537.36 (KHTML, like Gecko) Chrome/122.0.0.0 Safari/537.36" etag="YSQkg1twwqZLDrszl5wx" version="22.1.22" type="embed">
  <diagram id="nSJUnhxAHQFN-Atc5Jub" name="Page-1">
    <mxGraphModel dx="967" dy="734" grid="1" gridSize="10" guides="1" tooltips="1" connect="1" arrows="1" fold="1" page="1" pageScale="1" pageWidth="850" pageHeight="1100" math="0" shadow="0">
      <root>
        <mxCell id="0" />
        <mxCell id="1" parent="0" />
        <mxCell id="5" style="edgeStyle=orthogonalEdgeStyle;rounded=0;orthogonalLoop=1;jettySize=auto;html=1;entryX=0;entryY=0.5;entryDx=0;entryDy=0;" parent="1" source="2" target="3" edge="1">
          <mxGeometry relative="1" as="geometry" />
        </mxCell>
        <mxCell id="2" value="" style="shape=image;verticalLabelPosition=bottom;labelBackgroundColor=default;verticalAlign=top;aspect=fixed;imageAspect=0;image=data:image/png,iVBORw0KGgoAAAANSUhEUgAAAWYAAAEcCAYAAAD0nx6xAAAACXBIWXMAABYlAAAWJQFJUiTwAAAgAElEQVR4nO3de1yM6f8/8FflPKwlh+wmBiWKVGL7INGSw65zznLY0GKptbLCIoddPk7rbJdsjkmOfSo5bWsRJcfQskopCkUYOk3z+2N+c33nbmaqqXtm7ng/Hw+Pxz33fc0979t9z3uu+zrcGclkMhkIIYQIhrGhAyCEEMJFiZkQQgSGEjMhhAgMJWZCCBEYSsyEECIwlJgJIURgKDETQojAUGImhBCBocRMCCECQ4mZEEIEhhIzIYQIDCVmQggRGErMhBAiMJSYCSnFmzdvUFBQYOgwyEekiqED+BD8/fffOH36NGQyGfbt2wc3NzeMGDECX375paFDq7DQ0FDcunULe/fuBQCYmZlxjsvExARisRiWlpawtrZGvXr1DBUqb548eYJDhw4hIiICDx48YOtFIhFcXV0xaNAguLm5GTDC8lu1ahXevn2rdpuxsTFMTU1hZmaGdu3awdraWs/R6Y7iOi4rS0tLjBs3TocRlcyInsdccWPGjEFMTAxnna2tLU6cOGGgiPjj4+Oj1XGsWrUKw4YN02FEuiOTybB9+3asWrWq1LIeHh5YunQpqlWrpofI+NOuXTtIJJIylbW2toavry969eql46h0T9vruGvXrti9e7cOIyoZNWVUUGZmpkpSBoCEhAQkJSUZICLD8vPzw7Zt2wwdRrksWLCgTEkZAA4dOoRx48bh5cuXOo7KcBITEzF16lT88ssvoPqbflFTRgVFRUVp3BYZGYnp06frMRr98PHxAQC8fv0aZ86cQWpqKmf7zp074e3tbYjQyi0yMhIHDhxQWW9mZoY+ffrg7du3uHDhAjIyMti2uLg4eHl5ITQ0FEZGRvoMlzdmZmaoU6cOCgsLkZycrLbMb7/9BnNzc4wdO1bP0emOSCTCZ599pnF7s2bN9BiNKkrMFXTkyJESt31oiXnJkiWctrcFCxYgNDQUfn5+bF1WVhYePHgAS0tLQ4Sotfz8fE78Cnv27MF//vMflnTz8vKwcOFChIaGsjLXr19HdHQ0evToobd4+RQYGMjakt+9e4ebN28iIiIC+/bt45T76aef0LNnzxKTWWXi5+dn0Dbk0lBTRgWkpKRwOhTc3d057avJycm4c+eOIULTq4EDB0IkEnHWaepgEqJLly6ptLsuWLAAXbp04dSEq1evjlWrVsHR0ZFT9ty5c3qJU9dq1aoFZ2dnLF26FJ6enirb//e//xkgqo8TJeYKiIyM5Lzu1auXSm99RESEPkMyiMLCQpV1NjY2BoikfE6dOsV5bWtriwkTJmgsP3HiRM7r27dv6yIsg1q4cCG++OILzjpKzPpDTRkVcPToUc5rFxcX1KhRQ6XM7NmzYWz84f0GZmRkIC4uDsHBwZwa59y5cyvVaIV//vmH89rBwaHE89WvX78PvmPXxMQEPXv2xOXLl9m6hIQEyGSyStueriw/Px95eXkat1erVs2gx0mJuZwSExM5Y1wdHR3RoEEDAICrqyuio6MByJPXjRs34ODgYIgwebdo0SIsWrRI4/ZZs2Zh6tSpeoyo4p4+fcp5XVnaxnVN3V1PTk4OPv30UwNEw6/ly5dj+fLlGrfv27cPzs7OeoyI68OrxunJyZMnOa979+7NlouP+/xYbgGdnJxgZmZW5nGyQqE80gIALCwsDBSJsIjFYpV1OTk5BohE/ww9PJAScznIZDKEhIRw1rm6uqpdBuRjXqVSqR4i0w9bW1vY2tqq1Czj4uIwb948TJgwAe/evTNQdNor3nH56tUrA0UiLM+fP1dZV7t2bQNE8vGhpoxyuHnzpkotq/jwImUSiQSXL19Gly5ddB2azhUfLieVSnHz5k18//33bDxzfHw8lixZgpUrVxoqTK00bdoUiYmJ7LVyE9XHrHjbO4APohkDALy8vDBw4ECN21u0aKHHaFRRYi6H8PBwlXWlTd8MCwv7IBJzcSYmJnBwcMDy5cs5CTsiIgI///xzpej0/PzzzzmJWV1CUvbixQucPXuWva5Xrx6nKetDkZCQwHltZmYGExMTA0XDr6ZNmwp65JDwvzUCI5VKcezYMa3fFx4ejtzcXB1EJAwtW7bkvJZIJEhLSzNQNNopPjnk9OnTKklJWWBgIObNm8f+7d+/X9ch6t2lS5dUKhsDBgwwUDQfH6oxayk2NhZZWVmcdVOmTEGVKtz/yqKiIs4zIyQSCS5cuPBBPHFOnfPnz6usqyyzxNzc3LBgwQLOuhkzZuB///ufSptqQkIC9uzZw1nXqVMnnceoTzdv3lQ7ssbd3d0A0XycKDFrqfiEkWHDhuHHH39UWzY3Nxd//PEHex0WFlbpE3NSUhJrS87Ly8PNmzdx4cIFlSd39enTR+XHSqgaN26M8ePHIygoiK1LTU3FwIEDMXjwYHTv3h15eXmIjY3F6tWrVd5fWZ+mB8gfG2Bubo7CwkLcu3cP0dHRKhUPABg8eDDs7e0NEKFuXLhwocSRF02aNDHoU/XosZ9ayM/Ph6OjI2c42NatWzXWJC5evKgyH//27dsqowCETNvHJSps3769Uj0u8t27d/jyyy9VOnVL88svv2D48OE6iop/2jz2U0EsFuPIkSOoW7eujqLSPXrs5wfs4sWLKhd1SR16HTt2VFn3oTxXoSSBgYGVKikD8udEHDlyBLa2tmUqLxKJsGfPnkqVlMujT58+OH78eKVOypVR5bjXFIgzZ85wXru6upY4rrN69ero378/ZxTHqVOn8PXXX+ssRr6VpRfewsIC7dq1g62tLdzd3dG8eXPdB6YDZmZmOHjwIIKCgrB7926NteeuXbti6dKlBn80ZHnUqFGjxBqzqakpmjdvDkdHRwwaNOiD+Ssm2o4mMfRoImrKIEQNqVSKxMREPH36FNnZ2TA2NkaDBg1ga2vLpt4ToiuUmAkhRGCojZkQQgSGEjMhhAgMJWZCCBEYSsyEECIwlJgJIURgKDETQojAUGImhBCBocRMCCECQ4mZEEIEhhIzIYQIDCVmQggRGErMhBAiMJSYCSFEYCgxE0KIwFBiJoQQgaHETAghAqPyp6U+hr9JRwghutKzZ88K74NqzIQQIjD0p6UIIURgqMZMCCECQ4mZEEIEhhIzIYQIDCVmQggRGErMhBAiMJSYCSFEYCgxE0KIwFBiJoQQgaHETAghAkOJmRBCBIYSMyGECAwlZkIIERhKzIQQIjCUmAkhRGAoMRNCiMBQYiaEEIGhxEwIIQKjl8T87t075Ofn6+OjCFEhlUohlUortI+CggKeoiF8kMlkFT6nQqbyx1j5cvPmTWzfvh1xcXHIysoCAJiZmcHNzQ2TJ0+GhYWFrj5aaxkZGdiyZUuZyo4bNw6WlpYAgOzsbKxfv16rz5o8eTKaNm2qdYz6JJVKERQUhEePHgEApk+fjsaNG/NWXh9SUlKwZ88eREREICMjAwBgb2+PTp06wdvbG3Xr1i3x/VKpFCdOnMChQ4dw+/ZtSCQSmJmZwcHBAUOGDOHlD27qw4MHD7Bv3z4UFRWhbdu2GDlyJNtW2a7f169f48CBAzhy5AgePHgAALC0tESHDh3g5eXFvpfaSEpKwh9//MFe9+jRAz169OAr5HLTyd/8W7VqFbZt21ZimV9//RVff/013x9dLpcvX8bo0aPLVDYwMBCurq4A5Cf1yy+/1OqzQkND4eDgoG2IepOeng4fHx/Ex8ezdWFhYbCxseGlvD4kJCRg1KhRkEgkarebmppiw4YNcHZ2VrtdKpXC398fhw4d0vgZo0aNwvz581GrVi1eYuabTCbD/v37sXDhQrbO3d0dW7duZa8r0/X78uVLjB8/HgkJCRrLLFmyBGPGjIGxcdkaAqRSKYYPH47r16+zdTNnzoSPj0+F460o3mvMGzZsKDUpA8CsWbNQs2ZNrS8MXXjx4gVbdnNzK7FsgwYN2HLt2rVLLQ/Iay2pqakAACMjo3JGqXsRERGYO3euxoRW0fL6cPPmTYwdO5bF5OrqCldXV1StWhV///03Tp48iaysLIwZMwZRUVEqtSypVAo/Pz8cPXoUgDyJDxw4EHZ2drh37x4iIiKQmpqKAwcO4P3791i7dq3ej7E0L1++xI8//ojTp0+XWK6yXL/Z2dkYO3YsEhMTAQDW1tbo06cPLCwsEBcXhxMnTkAikWDRokWoXr06hg8fXqb9BgUFcZKyoMh49OjRI5lYLOb8c3Z2lm3fvl22cuVKma2tLWdbx44dZe/eveMzhHIJCgqSicViWe/evXnfd1FRkezrr7+WicViWffu3WUFBQW8f0ZFvXv3TjZ37lzOufH29mbLCQkJFSqvL4WFhTJnZ2cWx86dO1XKhIeHs+2TJk1S2X7kyBG2vWfPnrLMzEzO9rdv38qGDBnCyty4cUNnx1Mely5dknXs2JFzjIrvnbe3t9b7E8L16+fnx45n+vTpKjE8ePCAHaOtra3s7du3pe5TOVcpX7vr1q3T1WFohdfOv82bN3Nem5qa4uzZs5gyZQr8/Pxw/PhxzvasrCyEhobyGUK5KGrMTZo04X3fZ86cYbdfs2bNQpUqOmvWL7f79+8jJCQEANC+fXtER0ejX79+vJXXl6tXr7L25OHDh2PSpEkqZfr168duVf/880/ExMRwtis3XwQFBaFRo0ac7SKRCIGBgez1smXLeIufDzt27GB9OosWLcKOHTtgampa7v0Z+vp99+4dOydisRjr1q1TiaFVq1b47bffAAASiQQ7duwocZ8ymQz+/v4A5OczICBAB5FXDG+JWSqVIjIykrNu5syZqFmzJnvdokULeHh4cMqUdrulD8+ePQMA3jusioqKsG7dOgCAhYUFBgwYwOv++TZt2jSEhoaWuWNW2/K6lpSUxJZ79eqlsZxyx93//vc/zrbbt28DkN8um5ubq31/3bp1WRNAfHw8njx5Uu6YdUEsFiMsLAzjx4+vUNODEK7f9PR0tuzm5oaqVauqLdepUye2fPDgwRL3efjwYfaDHBAQgIYNG/IQKb94+/m7e/euSlvjsGHDVMqNGjWKUyu5cOEC3r9/z0ng+vb8+XMA8lEjAPD+/Xukpqbi/fv3aNOmDapXr16u/UZFRbF2MR8fH5iYmPATMM/MzMywb98+jZ1hFS2vLzk5OWy5WbNmGsu1aNGCLV++fJktS6VSdg1bWVmV+FnKPwK3bt3CZ599pnW8ujB8+HB069aNl05JIVy/b968YcvK56045dgyMjLw/PlztQk3KysLS5YsAQC4uLhg0KBBPEbLH95qzI8fP+a8NjU1VZts1V3AmZmZfIVRLk+fPgUAfPrpp1i3bh1sbGzQt29fDBkyBG3atMGECRMQFham1T6lUilWr14NQF7bEMoIFHUaN26sVZLVtry+tGvXji3fu3dPY7m7d++y5eTkZLZsYmICR0dHAEBsbGyJn6X8PiHVmN3d3XlJykK5flu3bs2WFXcz6uTm5nJea8opK1asYD++AQEBgu2M5y0xv3z5kvNa0+2tuvau4u/VN0WNee3atdi4caPK9vPnz2PWrFnYv39/mfcZERHBvry+vr6CrS1/SDp06MCWDx8+rHYCgkwmU+nXyMvLY8tdunQBIK91xcXFqf0c5doywK3VfSiEcv2KRCL2Y3nq1CnOCCplxZtR1Z2TmJgYNtrG399fME1w6vCWmJVvIwHN7bUmJiYqybn4e/VJKpWyzhKJRAJHR0ccOHAA8fHxOHnyJLvtAYAFCxYgIiKiTPtcs2YNAHl731dffaWb4AmHSCRiNfnz589jzpw5nKRbWFiI5cuXs45LBXWJGQBGjBjBGZ8NAImJiRgxYoTG938IhHb9KuYNKIY5KteGZTIZwsLCMHv2bM57iteg8/LysGDBAgDy/oMJEyboNOaK4q2NuUaNGpzXJSVbRSJUMOQg/VevXrHl4cOHY8WKFWyAer169WBlZYW2bduyTsu9e/eWOgLh+PHjbNynkNuWP0Rr167FiBEjkJqaimPHjuHYsWPo2rUrqlSpgujoaFbOzc0NZ8+eBSBP6ApOTk6YP38+li9fDgDw8PCAhYUF7OzskJCQwGqRyu+vU6eOno5OP4R2/U6dOhV37tzByZMn8eDBAzg7O6N9+/YwNzfHlStXWD5xd3dHVFQUAOCTTz7h7GPnzp3s3C1fvlyQo6OU8VZjrl+/Pue1cm+qMnW3GJ9++ilfYWitXr16iIiIQEREBBYvXqx21pCjoyPGjx8PQN5ZVFINqaCggLXNicViQQwj+5g0btwYwcHBnNvUCxcusKQsEomwfft21KtXj70unni++eYbzJ07l71OTU1FWFgY+2L3798fM2bMYNtLm95dmQjx+q1SpQp+/fVXuLu7s3W3bt1CREQES8o+Pj6cyTLKifnx48fsmEaNGgV7e3s9RV5+vP1sFG+eSE1NRVFRkUqiU9coX5FxlhVlbGwMa2vrUss5OTkhKCgIAHDnzh2N01KPHDnCxtIKobbxMTIzM8O5c+dw//59xMbG4tq1a2jYsCFat26NXr16oW7duqwvQdNzH6ZOnYqRI0ciPj4ely5dwsuXL2FlZQVHR0d07NgRf/75Jytr6OeC8Emo12/VqlWxdetWPHnyBLGxsbh8+TKqVq0KKysrdOvWDc2bN8eqVatYeeUZuitWrGDLo0aNYsenTlZWFtLS0gDIByqUdXo333hLzHZ2dirr4uPj4eTkxFl36dIlzmuxWGzQxPz+/XtkZ2cDkJ8ITb20yhfo+/fv1ZbJy8sTXG3jY6X4wbW2toanpydnm0QiYZMm/vOf/2jcR926ddGzZ0+1DyxSHiFQGWpgZVEZrt/PPvsMgwYNUjvMTdEfYGlpye6IAPnEI4XSxmLv27cP+/btAwD89ddfBntgE2+J+ZNPPoGTkxOnJ3vdunWckQzv379XGfVQ0kQAffjzzz/ZbWlJD2hR7gRSjHcu7tChQ+zWavbs2YKpbXwsMjIy2OQCFxcXjQlTeYZq8WF/x44dQ0pKCqpXr44pU6aorTFlZmayp7JZW1urNONVVkK8fmUyGTZt2oSioiK0aNFC47C96Oholnu6d++uzxB1gtcW8EmTJnES8+XLl7F69Wp4enri9evX2Lhxo0rHn/JjCA1B+SRu374dW7ZsUbkg79+/jwMHDgCQDwMUi8Uq+3n//j1+/fVXAPLahnJ7GNGPunXrYseOHZBIJDh69ChOnjyp0in977//sodsmZmZwcXFhbM9JyeHnccGDRqonSSlfMusbtp3ZSTU69fIyAgJCQlshnDbtm3RsmVLTpnc3FwsXryYvS6eUw4ePFjq8+AVdwceHh6YOHEiAPVzLvSF1waU3r17szGHClu2bMEXX3yB3r17q0zSmDRpEpo3b85nCFoTiUQYPHgwAPn08G+++QZ37txBYWEhsrOzcfLkSQwdOpQNSp89e7baWlRwcLDgahsfm5o1a2LWrFkA5H0cikc65ufnIzc3F9HR0fDy8mLl582bpzLF18PDg43S8PPzw7Zt2/D8+XPIZDJkZGQgICCAjYUVi8Xs2qnshHz9Tps2jS0PGjQIJ0+exNu3byGVSpGYmIgpU6awUSRjxoxRmSHYokUL1qyl6Z9CkyZN2DpD/h/wWmM2MjLCli1bMHbsWPYga0169eoFPz8/Pj++3H766SdkZGQgJiYG58+fx/nz59WWW7lypdpbqXfv3rHHP1paWgqmtvExGj16NGJiYvDnn38iISEBQ4cOVVvO29tb7bmsVasW1q9fj8mTJwOQ146Va8gKpqam2LVrl6ASWHkJ/fq1s7PDzJkzsWHDBkgkEk6iVubs7MweTlTZ8d7l2LBhQxw4cEClw0VBJBJh9uzZ2LRpE6pVq8b3x5dL3bp18ccff2D8+PGcMa0Ktra2+PXXX1UewKRw9OhRVqP+UGb5KR9DWY5H2/K6UqtWLfz+++/44Ycf1G43MzPDqlWrSqwUuLm54cyZM2jfvr3a7QMGDMCRI0cEPXNMmeJ8aDovleH69fHxwc6dOzUOFJgxYwZ+//33Cj9zx1CjMIrTyV8wUXjx4gX++ecfPH36FMbGxmjatCnatm2rNvkJRVFRER49eoR//vkHtWvXRocOHT64CQQfC6lUiuTkZNy7dw8mJiawsLCAlZWVVhWCnJwc3L17F+np6WjSpAlatmypsfOX6MfTp09x9+5dvHnzBk2bNkWrVq0+qLHkgI4TMyGEEO0Jo95OCCGEocRMCCECQ4mZEEIEhhIzIYQIDCVmQggRGErMhBAiMJSYCSFEYCgxE0KIwFBiJoQQgaHETAghAkOJmRBCBIYSMyGECAwlZkIIERhKzIQQIjCUmAkhRGAoMRNCiMCo/M2/d+/eGSIOQgj5INSqVavC+6AaMyGECAwlZkIIERhKzIQQIjCUmAkhRGAoMRNCiMBQYiaEEIGhxEwIIQJDiZkQQgSGEjMhhAgMJWZCCBEYSsyEECIwlJgJIURgKDETQojAUGImhBCBocRMCCECQ4mZEEIEhhIzIYQIDCVm8tEqKCgwdAikgipyDqVSKaRSKY/R8EflT0vpilQqRUhICP7991+27rPPPsM333yjrxA0un//Pi5cuICEhATcuHEDDRs2RPv27WFjY4M+ffqgRo0aWu0vOTkZe/fuZa9dXFzQvXt3vsPW2vHjx3Hr1q0yl2/VqhVGjRpVYpm//voL58+fZ6/Hjh0LsVhc7hh1SSqVIiIiAlevXsXly5eRlpaGli1bonPnzujZsyecnZ1L3UdOTg527twJiUSCGjVqYM6cOXqIXHv//vsvDh48iKKiIrRp0wbDhg0r83uFev0CFT+HqampOHDgAKKiopCZmQkAsLOzg6OjIyZPnoxPPvlEH4dRKiOZTCZTXqGLv/mXnp6OefPmIT4+nrO+bdu2OHToEO+fp40jR45g4cKFGre3bdsWGzduhJmZWZn2J5VKMW7cONy8eZOt+/bbbzFjxowKx1pR8+bNw4kTJ8pc3tnZGTt27NC4/dmzZ/jqq68gkUjYuh07dpQpwelbQUEB5s2bh8jISI1l/P39MWbMGI3br169Cl9fX2RnZ7N1d+7c4TXOipLJZAgJCUFAQABb5+bmhg0bNpTp/UK+fit6Du/cuYOJEydyrldl9evXx+rVq9G5c+cKxcnH3/zTeY35+PHj8Pf31/XHlEtQUBBWrVoFABCJRPj6669haWmJly9fIiYmBvHx8bh79y48PDxw+vTpMtWc9+7dy7mohaRNmzZ4/fp1qeWio6MBAMbGJbd0LVmyRONFLjQzZ85kNXtHR0e4u7ujUaNGuH37NoKDgyGRSLBixQpUqVIFI0aM4Ly3sLAQ27Ztw9atWw0Repm9fPkSP/30E86dO1fufQj5+q3IObx9+za++eYbdr1269YNLi4uqFq1Ki5evIjTp08jOzsbkyZNwokTJ9CyZUu9H58ynSVmqVQKX19fnD17VlcfUSFSqZTVBlu2bImtW7fi888/Z9unTJmCX375Bfv370d2djbi4uLQrVu3EveZmprKEr2bm5vgjt3T0xOenp4llomOjmaJuX///hrLRUREsHJ9+vTByZMn+QqTd0lJSewL3bdvX6xcuRImJiYAgF69esHNzQ2jR48GIK9IKH+p09PTMWfOHJaszM3NYWpqKrjkFRsbi9mzZ7PavIuLC+Lj47X64RTy9VuRcyiVSjFr1iz2fzF37lzO98DDwwNRUVH4/vvvAQCrV682+I+wzjr/CgoKVE6si4uLrj5Oa/Hx8ewi9vHx4SRlADAxMYGXlxd7ffHixRL3J5PJsHjxYgDy2vdPP/3Eb8B6UFRUhF9//RWAPAF99dVXasu9fPmSHau9vT3Gjx+vrxDL5cqVK2x57ty57AutYGdnh4EDBwIAbt68iZcvX7Jtp0+fZkl4yJAhOHr0KKytrfUQtXZ27drFrmd/f39s2bIF9erVK/P7hX79VuQcXrt2jbUnDx06VG3lxN3dnTXXnD9/nvN5hqCXzj8rKyusXLkSmZmZnI4iQ6pTpw78/PwAAF27dlVbpm7dumzZyMioxP0dP36cncwFCxagQYMGPEWqP+fOncP9+/cBADNmzFC5+BVWr17Nah9Lly7VSb8En9LS0tCsWTOYmZmhYcOGasu0bt2aLWdkZHCSmkgkwpIlS9C3b1+dx1oRzZo1w5o1a9CmTRut3yv067ci5/DRo0dsfc+ePTV+houLCzZt2gQAiIyMrHBbc0XoPDF7eXlh+vTpqFatGvvVEoI2bdqUegFfunSJLTs4OGgsl52djRUrVgAAunTpgq+//pqfIPVIKpWyDiJzc3P069dPbbnLly/j2LFjAABfX1+IxWLBdYAVN2fOnFJHT6Snp7Pl5s2bs2U7OzscOXIE5ubmugqPF0OHDkWXLl1Qs2ZNrd9bGa7fipzDnJwctmxhYaHx/S1atGDLsbGx5YiSPzpLzFWrVkVISAhsbGx09RE6U1RUhPPnz+O7774DIL9dL6l9+b///S+rQf7000+l1q6F6NSpU3j48CEAzbXl3NxcLFq0CIC8XV7oTRhllZmZiX379gGQJ2Ll5GZvb2+osLTy5Zdflvu9H8L1W9I5VM5BiYmJnASs7N69e2w5JSVFR5GWjc4Ss4mJSaVKymvWrEFSUhLev3+PhIQEdqG6uLhg5cqVGkdkXLlyhQ1BmzNnjuBrVupIpVJs3LgRQMm15cDAQKSlpQEAli1bhqpVq+otRl2RSqWsbRUAfvzxR8MFYwAfyvVb0jls3749Wz527Bjc3d1VKh4ymYzdCSrk5eWhevXq/AdcBjTz7/+LjY1FdHQ0rly5wpJy27Zt4e7uDpFIpPY9eXl5WLJkCQB5O/rYsWP1Fi+fIiIiWA1h1qxZamvLycnJ2Lx5MwBg9OjRnIu9Mlu5ciXr9xgzZswHc1xl8aFcv6WdQ5FIxNqLL168iPnz5yMvL49tLywsxKpVq3D48GHO+/Lz83UcuWZ6m/kndOw2toIAACAASURBVGPGjMGzZ89QUFCAjIwMXL58GXfv3sX8+fOxb98+bNu2Daamppz3BAUFsYS2ePFiVKlS+f47CwsLWYdHs2bN4O7urrbc8uXLAcgH4c+cOVNv8enSrl272O2vi4sL6wz+WHwI129Zz+Evv/yCcePGIS0tDWFhYQgLC4OzszOqVKmCv//+m5VzdXVlw0D5mChSXpXvTOjIgAEDOK+lUin27t2LVatW4e7du1iyZAln9lRaWhobWubh4QE7Ozu9xsuXsLAw1jyhqW05KioKMTExAOSzB+vUqaPXGHXh2LFjWL16NQDA1tYWa9asqZSJqbw+hOtXm3PYqFEj7N69G56enux6V1zTgLxW/csvv7AhviKRSOOoJH34eK5ELZmYmGD8+PG4efMmoqKicPbsWeTk5LAhdIqB+AAwfPjwEkecvHz5kvUYN2nSpNQZdfqSn5/P2pY11Zbfv3+PZcuWsTL29vYqx/rs2TO2nJmZifT0dFStWhWNGjXSYfTld+7cOcyfPx+A/Ji2bt1q0NqRIVT267c857Bx48aIjIzEv//+i6tXr+LGjRto0KABrKys0LNnT3zyySdsYknxeQ369tEm5ufPnyMvLw+1atVC/fr1NZbr3LkzoqKiAMhnHyl66a9fv87KeHh4lPhZwcHBCA4OBiCvfQqlg+XYsWPsC/ndd9+prSE8e/aMTVxISUkptfdf8WVp3LhxhaYG60psbCwbbWNubo5du3aVeP4/VJX5+q3IOTQ2NoaVlRWsrKzYTEEFiUSCu3fvAgC++OILfoPW0kebmOfNm4eYmBg0a9YM4eHhGocIPXnyhC1r+5Q5IcvNzeXUlnv37m3giHRP8RAbQP7DsWvXLjRu3NjAURFtlOccZmZmIjQ0FIB8MpmmZpvt27ezZUNOLgE+4sT81VdfISYmBikpKTh9+rTaxPT8+XOEhYWx182aNWPLu3fvLvVZsIMHDwYgn8o7btw4APJbQSE4evQoqwlrGokByGskR48eLXFfik5SQD5rzNHRUXBD6ZKTk9kXun79+ggKCsJnn31m4KgMpzJev+U9h3Xr1kVQUBAkEglOnDiB48ePq1SykpKSsHPnTgDyhN+lSxf+D0ALH21idnNzY8nE19cXkyZNQu/evSEWi/Hq1SvcuXMHy5YtY8lr+vTpnDYsbZ453LhxY1hZWfF7ABXw/v17bNmyBYB8okhJzRMmJialxp6bm8uWmzdvLqhjBeTTcz09PdkwyNGjRyMxMRGJiYlqy7do0cLgTxfTtcp2/VbkHNaoUQPTpk3Df//7X6SlpWHcuHFYsGAB2rRpg6KiIsTFxbF+FAD44YcfDF6x+GgTc506dRASEgJvb29kZ2cjMDAQgYGBasvOmDED3t7eeo5Qd0JCQtgPTknPxPhQ/PHHH5xnKCuGB2oyderUD2ZI4IeioudwxIgRuHLlCs6fP4+7d++qtC8reHl5aZxgpU967V4t3ptr6N5dGxsbHD9+HIMGDVLbTtW5c2esX78e3377bYWmqQop8UmlUjZRpGXLlnBzc6vwPpWPT0jHqqDtuSvtGBTbNU08EgpFnBUdBiiEc1rRc1izZk1s3rwZs2bNUlu+cePGWLZsGXx9fcsdI5/08hdMKoucnBw8evQItWvXRvPmzQVxQRJC+CWVSpGSkoLExESYmJjA3NwclpaWqFatGi/752PoJSVmQgjhER+J2fAjxQkhhHBQYiaEEIGhxEwIIQJDiZkQQgSGEjMhhAgMJWZCCBEYSsyEECIwlJgJIURgKDETQojAUGImhBCBocRMCCECQ4mZEEIEhhIzIYQIDCVmQggRGErMhBAiMJSYCSFEYFQelE8IIcSwqMZMCCECQ4mZEEIEhhIzIYQIDCVmQggRGErMhBAiMJSYCSFEYCgxE0KIwFBiJoQQgaHETAghAkOJmRBCBIYSMyGECAwlZkIIERhKzIQQIjCUmAkhRGAoMRNCiMBQYiaEEIGhxEwIIQKjl8Qsk8nw9u1bfXwU0YJMJkNhYWG53y+VSiGVSnmMiBD9ys/PN3QIalXR1Y6TkpIQFRWFGzdu4NKlS5BIJDAzM4OjoyPs7OwwatQoiEQiXX18mVy/fh1Hjx4tc3ljY2MsXrxYZf2zZ89w9uxZ3L59G/Hx8SgsLISDgwPat2+P7t27w8LCgseoK+bVq1c4fvw44uLi8Ndff0EikcDR0RGdO3fG4MGD0bJlyxLf//btW+zcuRMnTpxAcnIyAMDa2hojRozAqFGjUK1aNX0chlaOHDmCGzdulLm8paUlxo0bp3bbq1ev8Ntvv+Ht27eoUaMG/P39+QqTN0lJSfjjjz/Y6x49eqBHjx5qy8bExCAyMrJM+50/fz6qV6/OR4i80vacxMbG4vfff8eNGzeQlZUFU1NTdOzYEc7OzhgzZgxMTEz0FLlmOvmbf5cuXcLYsWNLLGNtbY3ffvsN5ubmfH98mR06dAhz587V6j0PHz6EkZERe33t2jVMnToVWVlZGt+zY8cO9OzZs9xx8iUzMxOenp548OCB2u0ikQiBgYFwcnJSu/3JkycYOHCgxmO1tbXF3r178cknn/AWMx9mz56t1Q9w165dsXv3bpX1sbGxmD59Ouf4k5KSeImRL1KpFMOHD8f169fZupkzZ8LHx0dt+Q0bNmD9+vVl2vfNmzdRp04dXuLkizbnpKioCIsWLcK+ffs07s/JyQkbNmxA48aNeY9VG7zXmMPCwjBr1qxSyyUmJqJv374IDw83WI3y888/h5ubW6nlLl++DIlEonb96NGj2es+ffrAwcEBVatWxa1bt1gy8PLywqZNm9CvXz/+gtfSixcvMHjwYGRkZAAABg8eDGdnZ1SpUgUxMTE4dOgQJBIJRowYgbCwMNjY2HDen5ubi3HjxrEvQI8ePTB06FDk5+djz549uH79OhISEjBjxgwEBQVxfrwMzcbGBq9fvy613NmzZwHI74yUFRYWYtOmTdiwYYNO4uNTUFAQJymX5vnz5wAAU1NTdOjQQWM5Y2NjVK1atcLx8aU852T16tUsKYtEIkydOhUtWrRARkYGjh07hoSEBMTFxcHT0xORkZEq14FeyXgkkUhktra2MrFYzP4NHDhQdvjwYdmff/4pW7ZsGWebWCyWLVq0iM8QeJeZmclinTNnDmfbnDlz2LbIyEiV9166dIltHzdunL5CVuvAgQMslt27d6ts37NnD9u+Zs2aErd///33nG2FhYWyYcOGse1//vmnrg5DZ86ePcviP3z4MFv/+PFj2ZAhQ9i27t27c14LyaNHj1hc3t7ebHndunUa36Mot3TpUj1GWjHlOScPHz5k2zt27CjLzs7mbC8oKJDNnTuXlTl16pQ+DkUjXn8SFG3JCtbW1ti/fz+GDBkCV1dXzJ8/X6U2HRMTw2cIvPvtt9/Y8vTp09lyYWEha5tzdXVFnz59VN7r7OyM4cOHAwAuXLiAV69e6ThazS5cuAAAEIvFattPx44dC1NTUwDAmTNnVLZv2bKFLc+ePZuzzcTEhNOu9/vvv/MSs74UFRVh9erVAAALCwsMHDiQbTt58iSrgXp4eCAiIgJt27Y1SJwlkclk7ByIRCIEBASU6X3Pnj0DADRs2FBnsfGtPOdk+/btbHnZsmWoV68eZ3uVKlWwYMECiMVimJqaIjw8nP/AtcBrYk5NTeW8HjhwIGrVqsVZV7yt9cmTJ3yGwKuMjAwEBgYCAIYPH45mzZqxbQUFBexH6PPPP9e4D+U29Ddv3ugo0tI9ffoUYrEYX331lcYyilvZxMREzvqcnBzWBDJ16lR89tlnKu+1t7dnP063bt3iK2y9OH36NDtmHx8flc4fkUiEDRs2YOXKlSrXs1AcPnyYVXICAgLKnGifPn0KAGjUqJHOYtMFbc5JUVERIiIiAMj7D9zd3dWWq127Ns6ePYu4uLgyt7vrCq9tzAMHDkTXrl0ByH/B1X2BFW1aCu3bt+czBF5t27aNLU+bNo2zrWbNmrC0tMSDBw9w8uRJ+Pv7o2bNmpwyhYWFOHXqFAD5haTu/0NfDh8+XGoZRaeJvb09Z73yD26nTp00vr9Lly44efIkJBIJ6+0WOqlUirVr1wKQ15a//vprznYHBwdERESgadOmhgivTLKysrBkyRIAgIuLCwYNGlSm98lkMvaDq0jMr169QmpqKqpXrw5LS0vDtrNqoO05uX//PqtEKSflZ8+e4eHDh6hTpw7atGkjiNEYCrwmZlNT0xK/jHl5eeyWUaFz5858hsCb9PR01jM/fPhwtR2U8+bNw6RJk5CVlYURI0ZgxYoVsLa2hpGREZKSkrB48WIkJCQAAPz9/QV14os7d+4cG/6m+HFVePToEVsu6cdFeVtKSkqlSMyRkZFslIq62rKDg4MhwtLKihUrWOIJCAgoc8ercodoUVERfHx8cOLECbZOJBLBzc0NEydOhJ2dHb9BV4C250T5+m3ZsiViY2Mxb948dr0D8mPt2rUrvv32W0FUFnU2jrk4xVAV5dtkU1NTTJo0SV8haEW5TbV4bVnB1dUV4eHhmDt3LhISEjBgwACVMqamppg7dy6GDRums1gr6sWLF2zYoKmpKby8vDjblS9gMzMzjftp0qQJW05KShJ8UpNKpVi3bh0A9bXlyiAmJoaN/vH399dqhJPyELNp06apjDySSCQ4ceIETpw4gWPHjgkiYZVHTk4OW759+zZ+/vlnlTISiQRRUVG4cOECDhw4AFtbW32GqEJvM/8CAgIQEhLCWb9y5UrUrl1bHyFoJSUlBQcOHAAAjBo1qsSL3cjICC1atNC43cbGBq1ateI9Rr68f/8eXl5e7EsaEBCgMlY1JSWFLdetW1fjvpTHfqanp/McKf/CwsLYj87s2bMFfUejTl5eHhYsWABA3tE+YcIErd6fnZ3NliUSCUaOHInw8HBcv34doaGhmDp1Kts+ZswYwY3ZLquXL1+yZUVSHjt2LEJDQ3H79m0cPnyYVRAlEglGjRrFqWUbgs5rzDKZDMuXL1cZsB8QECCISRfqbN68mS17e3trLBcdHc2p8Ts5OcHOzg5VqlRBQkICLly4gPPnz+P8+fNYtWqV4GrNUqkUPj4+rLNuzpw56Nu3r0q5+vXrs+X8/HyNs/uUOzeL93oLTWFhIevgEYvFBh1jXl47d+5kPyzLly9HlSrafZ2Va8xr1qzB4MGD2WsHBwc4ODigYcOGWLZsGSQSCSIiIjBjxgx+gjcgX19ffPfdd+y1vb097O3tUa9ePaxZswYSiQSRkZH49ttvDRajTmvMMpkMS5cuZSMbFBYsWFDqzEBDSUpKQmhoKAB5LUFTB0NqaipLyiKRCCEhITh48CD8/f3h5+eH3bt3IyIigtW2/fz8cPv2bf0cRBkUFRXB398fp0+fBgB4enpqvBCV7wgUnUXqKI+wUR7BIkTHjh1jnZrq2paF7vHjx6y/ZtSoUSodtmXRtWtXREREIDIykpOUlU2aNAlisRiA8Ie2alL8DlA5KSubPn066xcx9LHqLDEXFRVhyZIlnDn7gLwdTKjtygA4M4mUb+WKi46OZsubNm1Cx44dVcpYW1tzRnaU9ZkE+vDLL7/g0KFDAIB+/fph4cKFGss2b96cLSuGV6mjnJiV3yM0+fn5bCRGZa0tr1ixgi2PGjUKGRkZKv8UsrKykJaWhrS0NBQVFbH1IpEI1tbWaN26dYmf1a1bNwDyZFVQUMDzkeieNndvXbp0ASAf92/IY9VJU4amOekrVqzAyJEjdfGRvLh//z7rlR4zZkyJz/GIi4tjy1988YXGctbW1jA1NUVWVhbnPYa0bds27NixAwDg5uaGdevWlVhjVE6ySUlJGkfS/Pvvv2zZkM9AKU1oaChLXL6+vpWutgwAV69eZcvqOp2V7du3j30X//rrL3YX+OrVK0gkElSrVq3Ecc/KTSSFhYWCmppdFsqTT0p7BINM6dFByj9i+sZ7jVkqlWLBggUqSXnTpk2CTsoAt7ZcUtsywH2eQkm3969fvy7xAUf6FhwcjFWrVgGQj3ndtGlTqV805U697du3q61JvHz5Env27AEgfzqbUJNdbm4uG4khFovVtql/LNauXYtu3bqhZ8+eePfuncZyly5dAiCvYRcfq18ZNGvWjI0munz5ssaEW1RUhHPnzgGQj04y5JP0eK0xS6VS+Pv7s1tkBUtLSxQUFOD48eNq39ejRw+DP5Hszp07bHbQ2LFjS5zNB8ifpBYWFgYA2Lp1K5YvX66SjGQyGWdKt6HHgkZGRrJpu87Ozti6dWuZLj5jY2OMHDkSwcHBSE1NxcGDB1X6CLZu3cqGW2lqrxSCQ4cOsR/KyjgSQ+HgwYOlPktY0UTj4eGBiRMnAuCONe/fvz/27t0LiUSCffv2YfLkySr7CAsLY0NcS6uZC5WRkRH8/Pzw/fffQyKRYO3atfjhhx9Uym3cuJFdwyXNkNUHXhPzlStXVJIyADx48AC+vr4a36fuaWb6pk1tGZBPOtmwYQMkEglCQkKQmpqKyZMno02bNjA2NsY///yD/fv3Iyoqir3H09NTJ7GXxcWLFznP+hg8eDD++usvjeU7derEGY3h7e2N4OBgAPJhjo0aNYKbmxtkMhlCQ0NZ04hIJMKYMWN0dBQV8+7dO3aeLS0tNU7NrQxKGqJZXJMmTWBtba2yvmPHjqyZ7eeff0Z2djZGjhwJCwsLPH78GGfOnMGyZcsAyM+rIrlXRgMGDEBgYCASEhKwZcsW5ObmYtiwYWz27uHDh7Fz504AwjhWXhOzjP9HO+vFrVu3OKMTyjJ1um7duoiIiMD06dORkJCAy5cv4/Lly2rLWlhYYNu2bQZ9YH7xh9r4+fmVWD4oKIh1+gDyY1i3bh18fX0hkUg0/njt3LlTcM/sVThw4ACrLVfGkRh8MzExwd69ezFx4kRkZGRg+/btnIf9KIhEIhw4cEDQ4/FLY2xsjJ9//hkTJkxAVlYWAgMDVUaLAfImjAMHDhj8j1vw2sZc3nn1hv6CKDc3lDQSo7imTZvi4MGDmDp1qtoaiVgsxpgxY3D8+HG124VM3TkZOHAgtm7dqnb2n7W1NUJCQkp8loYhSaVSNm7Z0tISvXv3Lve+FP83hv4LPGVV0veydevWOHbsGFxdXdVu79q1K4KDgw0+E640ZTknNjY2OHPmjMZnidjb2+PgwYOC+AHSyV8w+Vjl5uaykQktWrQQ7JPIKio/Px+JiYlIS0uDkZERmjdvDisrK4P/wJKKyc/Pxz///INHjx6hadOmsLGxqXQjMMrq9evXuH//PtLT01G7dm2IxWKtmod0jRIzIYQIjPCe6UcIIR85SsyEECIwlJgJIURgKDETQojAUGImhBCBocRMCCECQ4mZEEIEhhIzIYQIDCVmQggRGErMhBAiMJSYCSFEYCgxE0KIwFBiJoQQgaHETAghAkOJmRBCBIYSMyGECIzK3/wr6c+YE0IIKRkff7mIasyEECIwlJgJIURgKDETQojAUGImhBCBocRMCCECQ4mZEEIEhhIzIYQIDCVmQggRGErMhBAiMJSYCSFEYCgxE0KIwFBiJoQQgaHETAghAkOJmRBCBIYSMyGECAwlZkIIERhKzIQQIjB6ScxFRUWQyWT6+ChCPnpSqRRFRUWGDqNSKCgoMHQIaqn8aSm+REdHIz4+Hrdv30ZcXBxEIhFsbW1hbW2NTp06wdXVVVcfrbXnz58jOjoaCQkJuH79OgoLC9GhQwe0a9cO3bp1g7m5ean7uHjxIq5fv45bt27h3r17aN26NWxtbWFnZwdXV1cYGRnp4Ui0FxQUhNTUVACAsbExfvzxR5iYmGgsn5eXh9OnT+POnTu4efMmMjIyYGtrC1tbW/znP/+Bra2tvkLXysqVK5Gfn19quS5duqBnz54at+fk5GDnzp2QSCSoUaMG5syZw2eY5ZacnIyoqChcu3YNFy9ehEgkgpOTExwcHODh4YFPPvlE7ftiY2MRFRVVps/w8/ND9erV+QybF9pew1euXMGFCxcQGxuLhIQE1K9fH127dkWnTp0wcOBAGBsbviHBSFasKlvRv/mXn5+PFStW4NChQyWWGzp0KPz9/VGjRo0KfV5FXb9+HTNnzkR2drbGMps3b9b4Q1JQUIBffvkFwcHBGt8/YMAALFq0yODHWtzff/8Nb29vzrr4+HiNcb548QI+Pj64fv26xn3Onz8fo0eP5jXOisrPz4e9vX2Zyn7zzTf4/vvv1W67evUqfH19OdfKnTt3eImxIq5duwZvb29IJBK121u2bInff/8djRs3Vtm2detWbNq0qUyfc/nyZdSpU6dCsfJN22t43759WLFihcb99e/fH8uWLUO1atXKHRMff/OP1xqzVCqFl5cX4uPjSy17+PBhPHnyBDt27OAzBK3ExsZi4sSJ7HWvXr3QoUMHVK1aFQkJCThx4gQAYPr06Vi7di3c3d1V9uHj44Po6GgAQLNmzfDll1+iadOmePz4MaKiopCWloYTJ07g7du32Lhxo16OqyzevHkDf3//Mpd//fo1Bg8ezJKSk5MTOnfujHr16uHBgwcICwuDRCLB8uXLIZPJMGbMGF2FrrWXL1+yZScnJ4hEIo1lW7VqpbKusLAQ27Ztw9atW3USX0XEx8fD09OTvZ4wYQLs7OyQnZ2NU6dO4cqVK3j48CFGjRqFiIgIlYT14sULAED9+vXRvn17jZ9jbGyMqlWr6uYgyknba3jXrl1YvXo1AMDc3ByDBg2ClZUVkpOTceTIEaSkpCA8PBxSqRRr1qzRVdhlwmtivnHjhkpSHjduHDp16oSCggKEh4fj7NmzbFtMTAwyMzPV/pLrw/Hjx9ny+vXr0atXL872wYMHs8R96NAhlcScnJzMknLfvn2xbNkyzoXv5eWFadOm4fr16zh37hxev36t8ZZS39atW8eSrLu7e6m3s2fOnGHl/fz84OnpyWmeGTlyJMaMGQOJRIITJ04IKjEr13DXrl2L+vXrl/m96enpmDNnDm7evAlA/oU2NTVlrw3t4MGDbHnv3r2cOwMPDw/MmzcP4eHhyMzMRHx8PLp06cJ5//PnzwHIa4o//vijfoLmiTbXcFFREQIDAwHI7yACAwPRoEEDtn3IkCEYO3YsUlJScPLkSSxevNigdwe8NqacPHmS8zogIAA//vgjevbsCXd3d6xfvx4uLi6cMn///TefIZRZYWEhTp8+DQDo1q2bSlIGgE6dOmHo0KEA5D8iOTk5nO3Kxztv3jyV2sgnn3zCua2PjY3lLf6KuHr1KvtCe3t7w87OrtT3HDt2DID8oh4/frxKm7mlpSW++uorAEBCQgKysrJ4jrr8lBNz3bp1tXrv6dOnWRIeMmQIjh49Cmtra17jKy+pVMoqBqNHj1ZprjExMcGMGTPY60uXLqnsQ1Fjbtiwoe4C1QFtr+F///2XXQczZszgJGVAfscwZcoU9rosd/26xGuNOS0tDS1btgQAVK9eHf379+dsNzY2hpOTE86fP8/W5eXl8RlCmRUWFrI2uc8++0xjOeVtb9684Xyx27RpAz8/P9SvXx+mpqZq369N7UwfcnNzMX/+fADyppcpU6aU2D6u0LdvX7i5ucHGxkZjGeX/AyF1diq+kPXr1y+xU0gTkUiEJUuWoG/fvnyHViHp6elo0KABGjRooFITVmjatClbVnSQKcvIyABQuRJzea7hhw8folmzZgCADh06qC1jaWnJltPT03mKtnx4TcyltcHJZDKVWqODgwOfIZRZjRo10LJlSzx8+BCnT5+Gn5+fSo23sLCQNb2IRCI0adKEs70sI0v++usvtlzWDihdCgwMRFpaGgBg+fLlZe5lHzVqVInblWtvzZo1E9QPkqL2rkhSUqkU6enpePHiBVq1alVi85KdnR2OHDlSppE5+mZhYYGIiIgSyyjfuVhZWXG2yWQyZGZmAvi/xJyTk4PHjx+jWrVqaNWqlSBGKBRXnmu4b9++pf6wPnnyhC23aNGiYkFWkM6GywHyX7b379+joKAASUlJCAkJ4TRduLq6qlws+jRnzhx4e3sjOzsb48aNw+LFi9G6dWsYGRkhOTkZK1aswN27d1lZbWpbeXl5CAoKwu7duwEAnp6eGmvV+vLw4UNs3rwZgLxNmK8fipycHCxcuJD9X2ka1WAoiuRkZmaGiIgIrF69miUkALC1tYWrqyumTJmico6F8GNaEUFBQWy5Y8eOnG1v3rxhy0VFRfDz80N4eDhbJxKJ4OrqinHjxqFdu3a6D7YMdHUNS6VSzkCENm3a8LLf8tJpYv71119ZYipOMYSsPLeWfOnWrRuOHDmCBQsW4O7duxg+fLhKmfr16+P777/H4MGDS9xXXl4efvjhBxQVFeHly5eczqHJkydj5syZvMevDZlMhiVLlgCQH5OPj0+593Xv3j02xCo5ORkpKSkA5F/kxYsX48svv6x4wDxStKNeuHBBbQdRQkICEhISkJKSguXLlxv0muTTtWvXWIeXi4sLnJ2dOduVa9O+vr4qw+0kEgnCw8MRHh6OgwcPGnyMOp/XcHG7du1CQkICAHkl7NNPP+Vt3+Wh08SsSbdu3dCjR48KjRXki5GREcRiMavtFdemTRvWbl6SwsJCnDt3TmV937594eTkZPBbwrCwMNahsXDhwgr1OGdlZbFmC2XDhg1D69aty71fXVHUjiUSCRo3boy5c+eiQ4cOKCoqwvXr17Fp0yakpKQgLCwMderUYe2XlVlycjIb3ysSiTBv3jyVMsrDCCUSCYYNG4bRo0ejSZMmePjwIc6dO8cS+6RJk3Dw4EGIxWL9HIAafF7DyqKiorBu3ToA8uYeIYwo0mlirlWrFkQikcov8d9//42///4b9vb22LJli8GGkBUfnO7o6Ih27drBxMQEd+/eRUxMDC5evIiLFy9i2bJlJdaaq1evDl9fXwDyJpy0tDScyMKlMwAACH9JREFUO3cOkZGRiIyMxMCBA7Fs2TKDJOicnBwsW7YMgPxHsXfv3hXaX/Pmzdmx5uTk4NGjRzh37hyCgoIQFBSEn376CSNGjKhw3HxR1JitrKywZ88e1K5dm21r0qQJOnXqBE9PT6SkpGD//v2YPXu24CYDaePFixecCSebNm2ChYWFSjnl0So///wzBgwYwF7b29vD3t4eDRs2xMqVKyGRSBAVFaUymUNf+L6GFa5du8aa3ho3bozt27cLYrw27zP/1CkqKsI///yD2NhY7Nixg3NB9O/fH6tWreL9M0uTlpbGxiWLRCJs27ZNpSPy/v37+O6771hHQ0hISImjEop78+YNli5dytrtFixYUGonmi4sXbqU9VpHRkaqfEmDgoLYOShp1lRJ0tLSMG3aNDx8+BCAfNx327ZtKxg5P1JTU5Gbm4sGDRpo7JQ8ffo0uzXes2dPiZ3SAQEBbKiWEGb+KXv9+jXGjx+P+/fvAwBWr16tsdNLIpGw0Qcl9fX069cPKSkp6Ny5M6tB65suruF//vkH48aNg0QigUgk4u2OgI+Zf3qpvhkbG6NNmzYYP368yoya8PBw5Obm6iMMDuUhe2vXrlX7RbSysuLM1ivrMwUU6tSpg4CAAJYMQkJCyhlt+d27d49d0EOHDkX16tWRmZnJ+ffq1StWPj09Henp6Xj9+rVWn2Nubs5mVQHgdCIZmoWFBaysrEocKaI8DvbatWv6CIt3ubm5mDZtGkvK8+fPL3EkgkgkgpWVVakd8IqheFeuXDHIQ390cQ2npqaypAwAv//+u0GbaYrjrSkjNTWVTUIA5MNNFBMOlKnr7UxNTdX76AzlAeROTk4ayym+0NnZ2SpfWEVNul69ehqn+daoUQOdOnXCyZMncf/+fUilUr12LiUmJrLlw4cP4/DhwyWWV9zODh06FAEBAQDkHZuKGWJNmjTRGL+VlRVrunrw4AEf4VeYVCplbcz169fXWJOqUuX/vgqGqChUVGFhIXx9fdlzTHx9fUt9ZklOTg4kEgmqVaumMuFCmfL5lkqler/V5+MaVvbs2TNMmDCBJeVdu3aVaZKVPvGWmGvUqIHt27dz1rm4uKi0H6ubUWOINmblCRCZmZlq2+AAeXOEugcc5ebmsqaQ0aNHl9hhpEjgAAzeCVged+/exdixYwHIp8Fqat97/fo1u9iF8hSyrKwsNqvT19cXXl5easvdunWLLZuZmeklNr4UFRVh4cKF7C5wxowZGo9T2YYNGxAcHAyRSIS//voLNWvWVFvuypUrAOQ17Mrc9g7If4y8vLzYj/Vvv/2GTp06GTgqVbwl5kaNGqFLly64ePEiWzdy5EgsXLgQNjY2yM3NxZUrV1Tm49evX98gs45sbGwQGRkJANixY4faoXsymYzTpqY8XKhGjRoYNGgQjh07hv3798PT05Mzy0rh+vXrbBhO586d9T4j7ssvvyy1XTw0NBT79u0DAOzfvx81a9bkDBdq3749GjdujMzMTPzxxx/o2rWr2nY05aYaQw+tUmjUqBGcnJwQFxeH/fv3Y+jQoahXrx6nzJs3bziTo4oPKxO6lStXsgdueXl54dtvvy3T+/r06YPg4GBIJBIEBwdzHuilEBERwZpG+vXrx1/QWuDjGgbk/Wfffvst6wfZvHmzxhmThsbrqIyhQ4dyEnNKSkqpv9zfffedQcaNDh06FFu3boVEIsHhw4eRmpqKiRMnwtraGsbGxrh//z4OHjzIeehS8WE0AwYMYM03ffr0wU8//QRHR0d8/vnnePz4MWJiYjgdm5MnT9bPwSmpU6dOqcOKlGc0tm7dWqVWZGJigmHDhmHz5s24efMmBg8eDD8/P7Ru3RqffvopHj58iOPHj7MOMZFIBA8PD/4PppwGDRqEuLg4ZGZmYujQoVi+fDns7OxgbGyMW7duYcOGDezHc8SIEfj8888NHHHZbd26FXv37mWvbWxs2DNg1OnZsyf7vjk4OLBmutWrVyM7OxseHh5o2rQp0tLS8Oeff2LlypUA5OdU+Sl2+sTHNZyfnw8fHx82v6Bt27YoKCjQ+H/16aefltjEqWu8j8o4fvx4mR/FV9oQNF1LS0uDr6+vxjHMCubm5ti4caPadvATJ06oHSNa3JYtW9C9e/dyx6pLyo9D1NSjXVhYiNWrV2PPnj0l7qtZs2bYtm2bxqYhQ5BKpVi/fn2pIwqGDBmCxYsXl1pREMqojOzsbHTr1k2r91y9epXTZHH//n14e3tzZkIWJxKJsGvXLq1GJOlbadfwmTNnMGvWrDLvz87ODvv37y9XLIIclTFw4ECEhoaic+fOareLRCJ07twZhw4dMmhSBuQJd8+ePZg0aZLapNusWTOMGDEChw4d0tg5OWDAAISEhKBbt24qHYD169eHm5sbjh49KtikDJSt3btKlSr48ccfsXLlSrXTYM3NzTFixAgEBwcLKikD8hr/7NmzsWTJErWPmDU3N4e3t3eZkrJifwBKfK6zUBVvSrOyssLBgwc1JnhnZ2cEBQUJOikDpV/D2jYhGrovSKfjmIuKipCWlobk5GQA8kdGfv7554J68piy3NxcJCUlQSaTQSwWl+uX7+nTp8jIyECTJk0qXSeSNqRSKVJSUvDmzRuIxWLBPGe6LJ49e4a7d+9CJpPBxsYGjRo1MnRIgpCfn48HDx4gJSUF5ubmaNOmjSAmW1Q2fNSY9TLBhBBCPhaCbMoghBBSMZSYCSFEYCgxE0KIwFBiJoQQgaHETAghAkOJmRBCBIYSMyGECAwlZkIIERhKzIQQIjCUmAkhRGAoMRNCiMBQYiaEEIGhxEwIIQJDiZkQQgSGEjMhhAgMJWZCCBEYlQflE0IIMSyqMRNCiMBQYiaEEIGhxEwIIQJDiZkQQgSGEjMhhAjM/wMAP1Zmx07PzwAAAABJRU5ErkJggg==;" parent="1" vertex="1">
          <mxGeometry x="70" y="100" width="201.69" height="160" as="geometry" />
        </mxCell>
        <mxCell id="6" style="edgeStyle=orthogonalEdgeStyle;rounded=0;orthogonalLoop=1;jettySize=auto;html=1;entryX=0;entryY=0.5;entryDx=0;entryDy=0;" parent="1" source="3" target="4" edge="1">
          <mxGeometry relative="1" as="geometry" />
        </mxCell>
        <mxCell id="3" value="" style="shape=image;verticalLabelPosition=bottom;labelBackgroundColor=default;verticalAlign=top;aspect=fixed;imageAspect=0;image=data:image/png,iVBORw0KGgoAAAANSUhEUgAAATQAAAFMCAYAAABF8EAzAAAACXBIWXMAABYlAAAWJQFJUiTwAAAgAElEQVR4nO3deVQT19sH8K+AiqZuoIIWQVQQFUWkbj9xRYtLFawrIqhIFa1VrJW61n1DxL2uYMEFLYgKFUTU0hZFWbQsKpVWisUWF1CUUEFC3j84mTdDEkjIyvT5nMM5mZk7k2eSzDN37r0zNBAKhUIQQggH6Gk7AEIIURVKaIQQzqCERgjhDEpohBDOoIRGCOEMSmiEEM6ghEbU6u3bt3j//r22wyD/EQbaDoBwy99//43w8HDExMQgJyeHmc/j8TBs2DC4urrCyclJixHWnb+/P0pKSqQu09PTg7GxMUxNTdGzZ0/Y2NhoODr1iYiIQEZGhtzlrays4OHhocaIZGtAA2uJKgiFQhw5cgT+/v61lp0yZQo2bdqERo0aaSAy1enZsyf4fL5cZW1sbLB06VKMGjVKzVGpn6+vL6KiouQu7+joiNDQUDVGJBtdchKVWLNmjVzJDADCw8Ph4eGBV69eqTkq7cnOzsb8+fOxfft2UJ1Bc+iSkygtNjYWYWFhEvNNTU0xevRolJSUIDExEQUFBcyylJQUeHt7IyIiAg0aNNBkuCpjamqKZs2aoaKiArm5uVLLHD16FGZmZpg5c6aGo1MfHo+H9u3by1xuYWGhwWjYKKERpZSXl8PPz09i/smTJ/G///2PSVZlZWVYu3YtIiIimDL37t1DQkIChg8frrF4VSk4OJhpKystLUV6ejpiYmJw+vRpVrlvvvkGI0aMqDEJ1Cd+fn5aayOrDV1yEqXcunVLol1pzZo1GDRoEKvm1bhxY/j7+8PBwYFV9saNGxqJU92aNm2KgQMHYtOmTfD09JRY/sMPP2ghqv8eSmhEKVevXmVN29raYvbs2TLLz5kzhzWdmZmpjrC0au3atRgwYABrHiU0zaBLTqKU3377jTXdp08f6OnJPk+OHTsWjx8/VndYWqWvr48RI0bg9u3bzLysrCwIhcJ6214orry8HGVlZTKXN2rUSGv7SQmNKOWff/5hTVtZWWkpEt3So0cPiXnFxcVo2bKlFqJRrS1btmDLli0yl58+fRoDBw7UYET/jy45iVLEey4BwNzcXEuR6BZLS0uJecXFxVqIRPO0OUyFEhpRCo/HY02/fv1aS5HolhcvXkjM++CDD7QQyX8LXXISpXTo0AHZ2dnMtPjtTv9l1dsWAXDichMAvL294eLiInN5p06dNBgNGyU0opQPP/yQldCkHcjiXr58ievXrzPTrVq1wscff6y2+LQlKyuLNW1qagp9fX0tRaNaHTp0kNpGqAsooRGlDB8+nJWg4uPjkZWVBVtbW6nlg4ODcfjwYWZ6yJAhnEtot27dkriXccKECVqK5r+F2tCIUqQ9OWPRokVSn0qRlZWFkydPsub169dPbbFpQ3p6OubPny8x39nZWQvR/PdQDY0oxcTEBLNmzUJISAgz78mTJ3BxccHEiRMxdOhQlJWVITk5GQEBARLrT548WZPhqlRkZCTMzMxQUVGBhw8fIiEhAYWFhRLlJk6cCHt7ey1EqB6JiYk19mS2a9dOa08ZoccHEaWVlpZi5MiREkM4arN9+3ZMnTpVTVGpniKPDxKxtLREZGQkWrRooaao1I8eH0T+U5o2bYrIyEiZ7WbV8Xg8nDx5sl4ls7oYPXo0Ll26VK+TWX1Dl5xEJUxNTXHu3DmEhIQgNDRUZm3N0dERmzZt0uojZurK0NCwxhqasbExOnbsCAcHB7i6unLmqbWK9s7WdOubutElJ1E5gUCA7Oxs/PPPPygqKoKenh5at24NW1tbtG7dWtvhEQ6jhEYI4QxqQyOEcAYlNEIIZ1BCI4RwBiU0QghnUEIjhHAGJTRCCGdQQiOEcAYlNEIIZ1BCI4RwBiU0QghnUEIjhHAGJTRCCGdQQiOEcAYlNEIIZ1BCI4RwBiU0QghnUEIjhHAGJTRCCGdQQiOEcAYlNEIIZ1BCI4RwBiU0QghnUEIjhHAGJTRCCGdQQiOEcAYlNEIIZ1BCI4RwBiU0QghnUEIjhHAGJTRCCGdQQiOEcAYlNEIIZ1BCI4RwBiU0QghnUEIjhHCGgbbe+OTJk8jJycHvv/+O27dvY+bMmfD09ESXLl20FZLKRUREICMjA6dOnQIAmJqaYuTIkcxyfX19WFpawsrKCjY2NmjVqpW2QiWEExoIhUKhpt+0tLQUtra2EvN9fHzg5+en6XDUxtfXF1FRUXKX9/f3x+TJk9UYESHcppVLzoSEBKnzw8PDIRAINBuMDvHz88Phw4e1HQYh9ZZWElp0dLTU+YWFhbh7966Go9EsX19f+Pr6wsvLC+bm5hLLg4KCtBAVIdyg8Ta04uJixMXFyVx++fJl9O3bV4MRac6GDRvg4eHBTK9ZswYRERGsy+zCwkLk5OTAyspKGyESUq9pvIYWHx/Pml63bh2MjY2Z6fPnz6OiokLTYWmNi4sLeDwea15JSYmWoiGkftN4QqveSD58+HC4uLgw03w+Hzdv3tR0WFojLXn36NFDC5EQUv9pNKE9f/4ciYmJzLSVlRXMzc0xfPhwVrnLly9rMiytKCgoQHR0NLy9vcHn85n5X3/9NRo1aqTFyAipvzTahnb16lXW9JgxYwBAos0sIiICGzZsQJMmTTQWmyasW7cO69atk7l8yZIlmD9/vgYjIoRbNFpDu3TpEmt62LBhAIBGjRph/PjxrGU///yzpsLSCX379oWpqSmrtkYIUYzGEtpff/2FtLQ0ZtrY2Bg9e/ZkpsVH0AOyh3bUd7a2trC1tZXoxUxJScHKlSsxe/ZslJaWaik6Quo3jV1yXrlyhTVdWFiITZs2MdMvX75kLY+JicHbt2/RrFkzjcSnCdWHbQgEAqSnp+PLL7/EkydPAABpaWnYsGEDduzYoa0wCam3NFZDu3DhgsS80NBQ5i8mJkZi+fXr1zURmtbo6+ujT58+2LJlC2t+TEwMKisrtRQVIfWXRhJaTk4OsrOzFV5Pkfsg67POnTuzpvl8PvLz87UUDSH1l0YuOWNjYyXmLVy4UGJeTk4Oa+BtQkICCgsLWQNvuUhaB0j79u21EAkh9ZvaE5pQKERkZCRrXk1PlXByckJubi4zffXqVbi5uak1Rk15/Pgx01ZWVlaG9PR0JCYmStRER48eDQMDrT3ZiZB6S+1HTVZWFnMQiwwdOlRm+U8++QT79+9npi9evMiZhBYSEoKQkJBay02cOFED0RDCPWpvQ6ve2G9vb482bdrILC8amyaSkpKCv//+Wx2h6aTg4GCMGjVK22EQUi+pvYZWfTCts7NzjeV79eoFHo/HGmCakJCAGTNmqCU+ddLX16+1jLm5OXr27AlbW1s4OzujY8eO6g+MEI7SyhNrCSFEHeifpBBCOIMSGiGEMyihEUI4gxIaIYQzKKERQjiDEhohhDMooRFCOIMSGiGEMyihEUI4gxIaIYQzKKERQjiDEhohhDMooRFCOIMSGiGEMyihEUI4gxIaIYQzKKERQjjD4MaNG9qOgRBCAAAjRoxQan2qoRFCOIP+pwAhhDOohkYI4QxKaIQQzqCERgjhDEpohBDOoIRGCOEMSmiEEM6ghEYI4QxKaIQQzqCERgjhDEpohBDOoIRGCOEMSmiEEM6ghEYI4QxKaIQQzqCERgjhDEpohBDOoIRGCOEMSmikRgKBAAKBQKltvH//XkXREFUQCoVKf6e6ykDRFW7duoUrV67IXd7DwwNWVlYAgLt37+LChQsKvZ+BgQHWrVun0DrakJCQgOr/cGb16tVo3LixStfRhLy8PJw8eRIxMTEoKCgAANjb26Nfv37w8fFBixYtalxfIBAgKioK4eHhyMzMBJ/Ph6mpKfr06YNPP/1U6X+EoSk5OTk4ffo0Kisr0b17d0yfPp1ZVlRUhD179ii0vc8++wwdOnRQdZhyefPmDcLCwhAZGYmcnBwAgJWVFXr37g1vb2/mGFXE48eP8d133zHTw4cPx/Dhw1UVcp0o/D8F9u3bp9AXGRwcjGHDhgEAzp07h5UrVyoUIFD1wemq0tJSbNu2DadPn5ZYlp6ejmbNmqlkHU3JysqCm5sb+Hy+1OXGxsbYt28fBg4cKHW5QCDAqlWrEB4eLvM93NzcsHr1ajRt2lQlMauaUCjEmTNnsHbtWmaes7MzDh06xEw/fvwYI0eOVGi7ERER6NOnj8rilNerV68wa9YsZGVlySyzYcMGuLu7Q09Pvos2gUCAqVOn4t69e8y8xYsXw9fXV+l4laFwDa2oqEgdcdRLv/76K3x9ffHkyRO1rqMp6enpmDlzJpPMhg0bhmHDhqFhw4b45ZdfcOXKFRQWFsLd3R1xcXESZ3WBQAA/Pz+mFm5sbAwXFxfY2dnh4cOHiImJwZMnTxAWFoZ///0XgYGBGt/H2rx69QorVqxAfHx8jeU++OADODk51bq9nJwc5rtu0KCBSmJURFFREWbOnIns7GwAgI2NDUaPHg1zc3OkpKQgKioKfD4f69atQ+PGjTF16lS5thsSEsJKZrpC4YRWWFjImq6titm6dWvmtZmZWa0/gmfPntV4JtEVx48fx9atW9W+jqYIBAIsWLCASWZr1qyBl5cXs9zNzQ0xMTFYtGgRAGD79u0ICgpibSMqKopJZpaWlggLC0Pbtm0BAOPHj8fnn38OT09P3Lt3DxcvXsSsWbNgZ2enid2TS1JSEhYvXsz8xocPH47k5GSptdW2bdvi2LFjNW5PKBTCxcUFAGBubo6ePXuqPuha7Nixg0lmY8eOxZ49e2BgUHXYu7q6Ys6cOZg4cSL4fD42bdqEcePGgcfj1bjNvLw8bN68GUBVzTUuLk69O6EApWpoAwYMkPhR12TQoEEYNGhQjWXWrl3LSmienp6KhqgR1b9Eeb7YuqyjKampqUx72dSpU1nJTGTs2LHw9fXFnj178OOPPyIpKYl16Sl+mRkSEsIkMxEej4fg4GDY29sDADZv3lzjpammHT9+nElm69atg6enJ4YPHy7z8rs2165dY37LS5YsYRKJppSWljKfr6WlJXbv3i0RQ5cuXXD06FG4u7uDz+fj+PHjWLJkicxtCoVCrFq1CkDV97lx40ad+Q0DdejlfPnyJfO6TZs2Kg0mLy9Pol1p/vz5Kn0PVePxeDh06BB27typ1nXUTbydctSoUTLLiTfo//DDD6xlmZmZAKoua8zMzKSu36JFC6aWnpaWhr///rvOMauDpaUloqOjMWvWLKUuESsrK7F7924AVbWzCRMmqCpEuT19+pR57eTkhIYNG0ot169fP+b1uXPnatzm+fPnkZSUBADYuHGjynOAshROaOI1NNHOlJSU4Ndff0VCQoLEJakiDhw4wJr29PREu3bt6rw9dRs+fDiuX78OZ2dnta6jCcXFxcxrCwsLmeU6derEvL59+zbzWiAQMDUZa2vrGt9LPHlmZGQoHKu6TJ06FdHR0ejRo4fS24qLi2Mu9Xx9faGvr6/0NhX19u1b5rX491adeGwFBQV48eKF1HKFhYXYsGEDAGDIkCFwdXVVUaSqo1AduLKykpWwWrZsiYMHD2LXrl2sclZWVnBxccGCBQvkPsvl5OTg/PnzrHk+Pj6KhKdRa9euRc+ePRU6i9dlHU0Rb995+PAhunTpIrXcgwcPmNe5ubnMa319fTg4OCAtLQ3Jyck1vpf4erpUQ1PVSUYgECAgIABAVe1s/PjxKtmuorp27cq8zszMZA07Effu3TvW9LNnz6TWvLZu3cqctDZu3KiTv2OFamjiGR8Ajhw5IpHMgKrkFBAQgI0bN0LeUSF79+5lTc+ePRumpqaKhKdRvXr1UvgLrcs6mtK7d2/m9fnz56UOvBQKhYiIiGDNKysrY16L2kcLCgqQkpIi9X2qD8Gp/pvigpiYGCZpL126VCu1M6CqacPBwQEAcPXqVVZzkbjY2FjWtLTvJCkpienwWbVqFczNzVUcrWoolNDEL0sAMNna3Nwctra2EuVDQkLw7bff1rrdrKwsxMTEsObNmzdPkdCIkng8HtPA//PPP2P58uWsZFVRUYEtW7bg+++/Z60nLaEBwLRp05CWlsYqm52djWnTpslcnwsEAgFzkre0tMQnn3yi1XhEY0BFw22ePXvGLBMKhYiOjsayZctY61SvsZWVlWHNmjUAqtpHZ8+erdaYlaFQQnv9+jVrWtRrlZCQgKioKGRmZko0KMvTiyVqPBXx8vLS6doZVwUGBjJn3osXL6Jbt27w9PSEl5cXrK2tERwcDACsoTfiXfx9+/bF6tWrmekpU6Zg2LBhWLJkCZycnDB27FgUFhay1tfmIGJ1uHTpEjPuTFttZ+Lmz5+P0aNHA6i6cho4cCBcXV2xaNEi9OvXj+nRFL/cbt68OWsbQUFBTI1zy5YtGu+tVYRCkbVt25Y1EtjR0ZE18pnH4+HAgQMYOnQoMwTgyZMnKCgokJmg7t69ix9//JE177PPPlMkLKIiJiYmOHv2LKZPn84clImJicxyHo+HwMBAZtApj8eTOGDnzp2LiooK7NixA0DV9y8+iHjcuHHw9vbG9evXAaDW26jqk/fv3zNtZ5aWlhg7dqyWI6q6dXDv3r1YvHgxM7wiIyOD1Rnj6+uL9u3bM8vFE9pff/3F7JObmxsz5EZXKZTQTE1NsXjx4hrLNGzYEEOGDGFdmqSnp8tMaKIPS8TLywsmJiaKhEVUyNTUFDdu3MCjR4+QnJyMu3fvok2bNujatStGjRqFFi1aYP/+/QAg877E+fPnY/r06UhLS8OtW7fw6tUrWFtbw8HBAR999BHrBMal7zoyMpI5ketC7UykYcOGOHToEP7++28kJyfj9u3baNiwIaytrTF48GB07NgR/v7+THnxwfDiA8Hd3NyY/ZOmsLAQ+fn5AID27dvLfRuVKimU0LKysvDo0SNmevDgwVJ7Q/7991/WtKwdu3nzJqvrH6DamS7Q09ODjY0NbGxsJAY28/l8ZrDo//73P5nbaNGiBUaMGCH1RnTReDUAOn/Gl1dZWZnO1c6qa9++PVxdXaUOtxC1d1pZWaFVq1bM/NTUVOZ1bWPpTp8+zYwj/emnn7RyI75CCS0jI4NpHASqalPi00DVvXDVnyDRvn17iW0JhUKJgaVUO9OegoICZlDlkCFDZCaagwcPMq+r36B+8eJF5OXloXHjxpg3b57UE9mzZ8+YhxvY2NjAyMhIVbugVeHh4cyQpmXLlulE7UwoFOLAgQOorKxEp06dZA4fSUhIYHqlhw4dqskQVU6hhObs7MxKYMHBwWjWrBk8PT3RvHlzPHz4EH5+fqxbRczNzWFjYyOxrR9//FFiUCXVzrSnRYsWOH78OPh8Pi5cuIArV67A0NCQVeb333/H4cOHAVRdmg4ZMoS1vLi4mBl+07p1a0yePFnifcQvbaTdXlUf/fvvv8x+W1pa6syg6QYNGiArK4tp8+zevTs6d+7MKvPu3TusX7+ema4+Vu3cuXMoLy+v8X1EtdEpU6Zgzpw5AKRXYjRBoYtcY2NjiV7MvXv3wsHBAVZWVpgwYQIzOlpk5cqVEmcr8YGHIt7e3lQ706ImTZowPV5PnjxhHg1TXl6Od+/eISEhAd7e3kz5lStXStxKM2XKFKbX08/PD4cPH8aLFy8gFApRUFCAjRs3sm5enzhxoob2Tr3Onj2rc7UzkYULFzKvXV1dceXKFZSUlEAgECA7Oxvz5s1jOm3c3d0l7ijo1KkT0/wg60+kXbt2zDxtfQYK978GBATA19dXomdSmqNHj0p9ZpT4bSEi4gcL0Y4ZM2YgKSkJP/74I7KysjBp0iSp5Xx8fKRevjRt2hR79uxhatr+/v6sGpmIsbExTpw4oVMHfl2VlpYyj0GysrLSmdqZiJ2dHRYvXox9+/aBz+ezEpy4gQMHMjed12cKd0M0a9YMR48excKFC2FsbCy1jKWlJc6cOSPzAXjV7wqYN2+exJMZ6htp7UW19fLUZR11atq0KY4dO4avvvpK6nJTU1P4+/vDz89P5jacnJxw7do19OrVS+ryCRMmIDIyUmdHmlcnSrqyku+FCxeYJhZt3hVQE19fXwQFBck8XhctWoRjx46hSZMmSr2PNn+7Igo/sba6goIC3L9/Hy9fvkSLFi3QsWNHqW1mpH4RCATIzc3Fw4cPoa+vD3Nzc1hbW6NRo0Zyb6O4uBgPHjzA06dP0a5dO3Tu3JkGTGvZP//8gwcPHuDt27fo0KEDunTpwqmxgEonNEII0RXaryMSQoiKUEIjhHAGJTRCCGdQQiOEcAYlNEIIZ1BCI4RwBiU0QghnUEIjhHAGJTRCCGdQQiOEcAYlNEIIZ1BCI4RwBiU0QghnUEIjhHAGJTRCCGdQQiOEcIZBaWmptmMghBAAVY+BVwbV0AghnEEJjRDCGZTQCCGcQQmNEMIZlNAIIZxBCY0QwhmU0AghnEEJjRDCGZTQCCGcQQmNEMIZlNAIIZxBCY0QwhmU0AghnEEJjRDCGZTQCCGcQQmNEMIZlNAIIZyhVEITCASqioPUM+/fv9d2CEQJQqEQFRUVdV5fIBDo5PFvoEjhsrIy/PDDD7h//z4yMzPx4MEDGBkZoVevXujWrRucnJzQrVs3hQJISkrCtWvXJOa7urqiZ8+eCm1LHQIDA1FSUqLQOh9//DEGDBggc7mu77M0AoEAMTExSE1Nxe3bt5Gfn4/OnTujf//+GDFiBAYOHFjrNoqLixEUFAQ+nw9DQ0MsX75cA5Er7vfff8e5c+dQWVmJbt26YfLkyXKvm5ubi1OnTjHTQ4YMwdChQ9URpsKKi4vxww8/IC0tDYmJieDz+bC3t0ffvn0xYcIEWFpa1rj+kydPEBYWhri4ODx79gwAYGdnBwcHB3z22Wdo3ry5JnajRg34fL5QnoLPnz+Hr68v0tPTayy3Zs0auLm5yfXmb968wbhx41BUVCSxbPv27Rg/frxc21Gnfv36gc/nK7SOn58fZs2aJXVZfdjn6t6/f4+VK1ciNjZWZplVq1bB3d1d5vLU1FQsXbqUtd/3799XaZzKEgqF+P7777Fx40ZmnpOTE/bt2yfX+gKBAB4eHqxjZMGCBVi0aJHKY1XU8+fP4e3tjT/++EPqch6Ph0OHDsHBwUHq8vv372POnDkyjwUjIyMEBASgf//+SsWp7P8UkKuG9vfff2PatGlSD8LqNm/ejJKSEnz22We1lg0ICJBrm1xSH/d58eLF+PnnnwEADg4OcHZ2Rtu2bZGZmYmzZ8+Cz+dj69atMDAwwLRp01jrVlRU4PDhwzh06JA2Qpfbq1ev8M033+DGjRt13sapU6dqPeFrQ2FhIaZPn87UqiZMmID+/ftDX18fycnJiIyMBJ/Ph6enJyIiIiSusjIzMzF37lwmmQ0ePBhDhgxBw4YNcfPmTcTHx6OoqAheXl6IiopC586dNb6PInIltOjoaNZByOPxMH/+fFhbW+Ply5c4ceIEK/NHRETUmtBSU1Nx/vz5OoatOSNHjkRxcXGNZRISEljTenrSmybryz6Le/z4MZPMxowZgx07dkBfXx8AMGrUKDg5OWHGjBkAgEuXLrES2tOnT7F8+XLmIDczM4OxsbHOHfTJyclYtmwZ8xsfMmQI0tLSFKqZP3nyBP7+/gCqanXXr19XS6x18eOPPzLJrPoV1Pjx49G9e3ds3rwZABAfH89KaAKBAEuWLGE+i6+//hqenp7M8ilTpiAuLg5ffvklgKoTtjZPXnJ1Cly6dIk1HRYWhrlz52Lw4MGYOHEiTp8+DR6PxyzPz89Hbm6uzO2Vl5fjm2++YaZ5PB68vLwUjV0jtm7dioMHD8r8W7VqlcQ6I0eOlJhXn/ZZ3J07d5jXX3/9NZPMROzs7ODi4gIASE9Px6tXr5hl8fHxTPL69NNPceHCBdjY2GggasWcOHGCSWarVq3Ct99+i1atWsm9vlAoxPr16wFUfa/i37MuuHXrFgDAwsJCanOQm5sbjIyMAFQlP3F3795lkuGkSZNYyUzE2dmZuaz++eefWb8ZTas1oRUVFcHAwACdO3dG586dMWnSJIkqZbNmzdCnTx/WvHfv3snc5nfffYe8vDxmeu3atWjdurWiseuEI0eOsKZnzJiBdu3aSZSrr/ucn58PCwsL9O/fH23atJFapmvXrszrgoIC1jIej4eAgABs2rRJ6fYRdbKwsEBERATc3d3RoEEDhda9dOkScxCvWbNG577XgoICWFhYYMyYMTLL9OrVCwDw6NEj1vw///yTeT1ixAiZ6w8ZMoR5XVNbq7rVeslpZGSEqKioGsuUlpbi7t27zDSPx4O1tbXUsvn5+di7dy8z3b9/f3zyyScIDQ2VN2adkZubK3EJOXfuXIly9Xmfly9fXmtv5NOnT5nXHTt2ZF7b2dkhMjISZmZm6gpPJSZNmoRBgwahSZMmCq9bVFSErVu3AgAGDRqkk506Z86cqbWM6IrKzs6ONV+8ucXc3Fzm+p06dWJeJycnKxqiyig0bEPk7du3qKioQElJCXJycrBnzx5We4OPj4/EpYnItm3bWNNr165V+IyoK6q3Fbi7u8PU1FSiHJf2ubpnz57h9OnTAKoOBvGkYG9vr62wFCKtiUBeO3fuZH7733zzTb38XhMSEpirh+rDb3r06MG8zs7OZiUucQ8fPmRei1+JaFqdEpq7u7vU7l8ej4cFCxZgzpw5Utf75ZdfWA3on3/+ea1jX3TVo0ePcPnyZdY8abUzLu1zdQKBgGk7AoAVK1ZoLxgtuHPnDnP1snz5cp2viUpTWFiItWvXAqi6Gps9ezZruehSFAAuXrwIZ2dnicqKUCjExYsXWfPKysrQuHFj9QRdA5Xe+jR+/Hj07t1b6rLy8nKmJwUATExM6kWjuCz79+9nTc+cORMmJiaseVzb5+p27NjB9IC6u7uzfvxcV1ZWhg0bNgAArK2tMXPmTC1HpLh3795h4cKFTIfI2rVr0axZM1YZHo/HjC27efMmViNk/IkAACAASURBVK9ejbKyMmZ5RUUF/P39JZpeysvL1Ry9dHVKaC1btmT1aoqcPXsWM2fOxJYtWyAUssfrnjlzBvn5+cz06tWrYWhoWJe317qMjAyJ8UrSEhWX9rm6EydOMJeaQ4YMgZ+fn5Yj0qyQkBDm0mr9+vUwMKjTxY7WCAQCLF++HFlZWQAAX19ffPzxx1LLbt++nal9RkdHo0+fPvD29oaPjw/s7OyYtuBhw4Yx62irA6hOCS00NBTJyclIS0vDiRMnJMacnTlzhpWxCwsLsXPnTma6f//+cHJyqmPI2ld95Linp6dE7Yxr+yzu4sWLCAgIAADY2tpi165d9e6AVoZ4J8+UKVMkGtJ1XWVlJdavX8+clGfMmFHjuNG2bdsiNDSUdUmdlJSEX375BUBVLW7//v1o2bIlMy2rDV3dlPoVGhoaol+/fujXrx8aN26MAwcOMMsuXrzI3ANX/fq6oqKCdXsJUDUaWdyhQ4cQExMDKysrZtCeLkhJSUFSUhJrnrQ2Qy7ts7gbN25g9erVAKqGOhw6dEinh2Oog2gALQBMnTqVGaclzatXr5he4Hbt2skcdK1Ju3btQmRkJICqMWTytH2amJggNjYWv//+O1JTU/Hrr7+idevWsLa2xogRI9C8eXOmk+zDDz9Ua/w1qTWhJSUlISUlhZkePHiw1N6r7t27s6bFx7NUv55OS0tDWlpaje+bl5eHvLw8vH37trYQNUp8+AVQVTtr27atRDku7bNIcnIyvvjiCwBVo/5PnDjBDMj8L7l37x7zesqUKTWWPXv2LM6ePQsAiIuL03rHwfHjx/Hdd98BqLpEFL/zozZ6enqwtraGtbU1c3eICJ/Px4MHDwCgxgczqFutCe3NmzeswaOpqakICQmR6J5OTU1lTSsy0rq+SExMZP2YAem1My4S3ZwMVJ2tT5w4IXGZTXRbREQEdu/eDaBqzFxgYCAaNmxY4zrPnj1DREQEAMDR0VHm5bV4jlD2BnVl1JrQqj/6JC0tDYsWLcLnn3+Ojh074sWLF/jhhx8QHBzMKidei+vWrRsmTZpU4/ukpqayxq/Y29ujU6dOsLCwkGtH1K2yslKidjZr1iyptTOAG/sskpubyyQzIyMjhISEoH379lqOSntCQ0NrfR7cxIkTAVTd8uXh4QEAUu8g0ZSrV69i3bp1AKoSzr59++QaVtGiRQuEhISAz+cjKioKly5dkujYevz4MYKCggBUnewGDRqk+h2QU60JzdDQENOnT2eqzUDVQLzqN2RXJ97rN2zYMFYPiDR79uzBsWPHmOlp06bp1KjrGzduMFVqkZpqZ1zYZ6DqthlPT09m8OiMGTOQnZ2N7OxsqeU7deqk1actaIIi4whNTExk3jWjKUlJSVi6dCkzPX78eKZBXxoHBwemKcHQ0BALFy7Ezp07kZ+fDw8PD6xZswbdunVDZWUlUlJSWEOTvvrqq1prfeokV6fAihUr0LBhQ5w8ebLWskZGRjh48KDWv0RVEggECAwMZM2bPXu2zHsbueS7775jPWlFvONHmvnz52Px4sXqDosooPqdKmvWrKmx/NGjR1m1rGnTpuHOnTv4+eef8eDBA4n2MxFvb2+MHTtW+YCVIFeXS8OGDbFixQrs3LlTovFfxMjICOPGjcOlS5fqNMCyesOktrp9pfnpp58kbudQRduZLu+ziKK38tS2D6Ll0sYx6hJRnMoOR9HF77Q21WNu0qQJDh48iCVLlkgtb2Jigs2bN7Nqgdoi9xNrxZWXl+PPP/9EXl4eWrRogS5duvwne7sI+a8RCATIy8tDdnY29PX1YWZmBisrKzRq1Egl21d2CFCdEhohhKiDsglN+6P8CCFERSihEUI4gxIaIYQzKKERQjiDEhohhDMooRFCOIMSGiGEMyihEUI4gxIaIYQzKKERQjiDEhohhDMooRFCOIMSGiGEMyihEUI4gxIaIYQzKKERQjijgVAopAc8EkI4gWpohBDOoIRGCOEMSmiEEM6ghEYI4QxKaIQQzqCERgjhDEpohBDOoIRGCOEMSmiEEM6ghEYI4QxKaIQQzqCERgjhDEpohBDOoIRGCOEMSmiEEM6ghEYI4QxKaIQQztCJhCYQCLQdgtwEAgH+/fdfpbbx/v17lJaWqigiQrSjvLxc2yFIMJC3oL+/P96+favQxseMGYP//e9/EvOTk5Nx8+ZNZGVlISMjA4WFhbCxsUHPnj3RvXt3uLq6okWLFgq9lzrdvn0bv/zyC+7du4fbt28DAKysrGBvb48BAwbAxcUFDRo0qHEb//zzD44dO4YbN27gyZMnAAAej4cBAwbAx8cHDg4Oat+PuoiMjMSvv/4qd3krKyt4eHhIXfb69WscPXoUJSUlMDQ0xKpVq1QVpso8fvwY3333HTM9fPhwDB8+XGrZpKQkxMbGyrXd1atXo3HjxqoIUaUU/U6Sk5Nx7Ngx/PrrrygsLISxsTE++ugjDBw4EO7u7tDX19dQ5NLJ/T8FevbsCT6fr9DGV69ejblz5zLTZWVl2LlzJ4KDg2tcz9TUFAcOHECfPn0Uej91OHr0KLZv315jmfHjx2P79u1o0qSJ1OXXrl3DvHnzatyGp6cnvvnmG+jp6USlmbFs2TJcuHBB7vKOjo4IDQ2VmJ+cnIzPP/8chYWFzLzHjx+rJEZVEQgEmDp1Ku7du8fMW7x4MXx9faWW37dvH/bs2SPXttPT09GsWTOVxKkqinwnlZWVWLduHU6fPi1ze3379sW+fftgYmKi8ljlJXcNTVkCgQAzZsxg/VhkKSgowOTJk/Htt99i9OjRGohOuvXr10s9OKuLjo5GXl4ezp8/L3GGunnzZq3JDABCQ0NhaGiIFStW1DledejRowfevHlTa7nr168DgERCrqiowIEDB7Bv3z61xKdKISEhcv0+RV68eAEAMDY2Ru/evWWW09PTQ8OGDZWOT1Xq8p0EBAQwyYzH42H+/Pno1KkTCgoKcPHiRWRlZSElJQWenp6IjY3V2olZ7oQ2evRovH79usYyoh+1iPhOxcXFSfxYJkyYAC8vLxgZGSEjIwNff/01qxa4du1aODs713o5pw737t2TSGYTJkzAmDFjIBQKcf78edb+ZmRkIC4uDmPHjmXmvX//HqtXr2Ztg8fjwc3NDaampggNDWUuP4Gq2qCrqytsbGzUtFeK8/LygpeXV41lbty4wXwWEyZMYObn5+djyZIlzPdubm4OY2NjhZKGpuTl5WHz5s0AAGdnZ8TFxdW6zsuXLwEALi4uWLNmjVrjU5W6fCePHz/G4cOHAVQl76tXr6JVq1bMck9PT6xZswbff/89cnJycP36dYwaNUq9OyKD3Alt586dNS7Pz8+XSGjOzs7M6+rtMAMGDMDu3buZZGVmZob27dvj008/ZcoUFhbi2bNnMDU1lTdMlYmJiWFNu7m5YfPmzUy8o0aNgoeHB9OmBgB3795lJbTo6GhWwgKAsLAw2NraAgA8PDwwdOhQFBQUMMv37duHb7/9VuX7oy6VlZUICAgAUHVwuLi4MMuuXLnCHChTpkzBunXrsG3bNp1LaEKhkGk74vF42Lhxo1wJ7fnz5wCANm3aqDU+VarLd3LkyBHm9ebNm1nJDAAMDAywZs0apKSk4M2bN7h8+bLuJ7TaHDhwgDXt6emJ9u3bM9OVlZWs5b1795aoefXo0UNiu9XX05Q///yTNT158mRWvPr6+hg5ciQroYnO2CLXrl1jTY8ePZpJZgDQsGFDLF++HMuWLWPmXblyBWVlZTrZgCxNfHw8srOzAQC+vr4Sl9w8Hg/btm3DJ598oo3w5HL+/HkkJSUBADZu3Ch3gvrnn38AAG3btlVbbOqgyHdSWVnJnNwdHR1ZlRRxH3zwgUSFRhtUcqH7+PFjfP/996x58+fPZ0337NmTNZ2YmCjR7Xvz5k3WtLGxMdq1a6eKEBX2zTff4MqVK7hy5QpiY2PRq1cviTKiM7SItbU181ogEODKlSus5e7u7hLbEL9EE9G1GowsAoEAgYGBAKpqZ+PHj2ct79OnD2JiYnQ6mRUWFmLDhg0AgCFDhsDV1VWu9YRCIVOzFiW0169fIyMjA7/99pvWTsS1UfQ7efToEdMMJJ7Mnj9/jqSkJGRlZenUsCuV1NCqNy7OmjVLIhF98sknCA0NZQ7WrKwseHh4wMvLC82bN8f9+/exdetW1jrr1q3TSvsZAHTo0KHG5Xl5eTh69ChrnnivbPXaGgB8+OGHEvP09fVhaWmJ3NxcZl5+fr6i4WpFbGwscnJyAEivnelCL3Vttm7dyhywGzdulPv3Jt5RUllZCV9fX0RFRTHzeDwenJycMGfOHNjZ2ak2aCUo+p2IX6l07twZycnJWLlyJev3yuPx4OjoiAULFkg98WuS0gktOzub9UUCkrUzoOrAPXv2LMLCwrBz507w+XykpKQgJSVFoqy5uTm++uornT2zFxcX44svvmDNGzVqFAYMGMAqU52sS5MOHTqwfiBFRUUqilR9BAIBdu/eDUB67aw+SEpKYoakrFq1Cubm5nKvKz7UYeHChRJDmvh8PqKiohAVFYWLFy9q/UCvK/HfcWZmJrZt2yZRhs/nIy4uDomJiaw2Ym1Q+pJT9KMWmT17tsxGfKFQiObNm7Pa1qQZPXo0unfvrmxoalFSUgIvLy9kZWUx83g8HnPZIiJtqEPTpk2lbrP6uJ3aepN1QXR0NJOEly1bpvUBlYoqKytjeiZtbGwwe/ZshdYXP+nw+XxMnz4dly9fxr179xAREcE6qbu7u+vcmDt5vXr1inktSmYzZ85EREQEMjMzcf78eaYXnM/nw83NTaL9WZOUqqH9+uuviI+PZ82TNeaqvLwcPj4+SEhIqHW7R48exdGjR3H8+HGMGDFCmRBVis/nY86cORJtXCdPnpRI4oaGhhLrCwQCqQd+9eQnK/HpioqKCmZAqaWlJatnt74ICgpiEvKWLVtgYKDYoSBeQ9u1axcmTpzITPfp0wd9+vRBmzZtsHnzZvD5fMTExGDRokWqCV6Lli5dyro6sbe3h729PVq1aoVdu3aBz+cjNjYWCxYs0Ep8StXQRA3CIl5eXjJrZ2vXrpVIZps3b8adO3fw6NEjxMTEwNHRkbXc29sb9+/fVyZElXn79i1mz56NtLQ01vzw8HCpgyql3bolGohZ3dOnT1nT1bvFdc3FixeZ4SjS2s503V9//cUMNXFzc4O9vb3C23B0dERMTAxiY2NZyUycl5cXLC0tAYDpRa1vqt/dUL2pReTzzz+HsbExAO3ua50T2p07d5CYmMia99lnn0ktW1ZWhvDwcNa8Xbt2YcaMGWjTpg0MDAxgY2OD4OBgiUGl8owHUrc3b95ITWZhYWEy78EUfbninj17JrWsePsZALRu3bqOkapfeXk5cyKrr7Uz8c4nNzc3FBQUSPyJFBYWIj8/H/n5+ayeSx6PBxsbG3Tt2rXG9xo8eDCAqoP8/fv3Kt4T9VPk5Dpo0CAAVSMYtLWvdb7kFJ3hRLy8vGTewyWtliXaeVYwBgYYNmwYM64J0P6Zrbi4GLNmzUJGRgYzj8fj4dSpUzX2XjVt2hS9evVirZeYmCixzv379yUalHW5dzAiIoI54JcuXVrvamcAkJqayryWNmxG3OnTp5lbfn766Sem9/v169fg8/lo1KhRjePWxC9lKyoqdOoWKHmIt2U7OTnVWFb8tnBtDVupUw3tp59+kqityKqdAZDaFS7q7q9OvLFd216/fg0PDw9WUjI2NkZkZKRcXfHV2/8OHz4s0ftZfciLjY2Nzo48f/fuHdMJZGlpiTFjxmg5Iu0JDAzE4MGDMWLEiBofBXXr1i0AVSdBWQ8v0GUWFhZMM9Lt27dlJqrKykrcuHEDQNUxoq2B4QrX0CorK7Fr1y7WvLlz59Z4h32nTp0k5i1fvhxBQUHo1q0bgKoG8/3790tcxtZ00686vXr1Cu7u7qzaIlDVw/PgwQM8ePBAYp1GjRqxDvIpU6awnsbA5/Ph5+eHpUuXom3btjhz5oxEp4q3t7eK90R1wsPDmcbw+tizKXLu3Llan+UlupSeMmUK5syZAwCs3vlx48bh1KlT4PP5OH36tNQTenR0NPP7qa0mqKsaNGgAPz8/fPnll+Dz+QgMDMRXX30lUW7//v3MlYY2h1spnNDi4+MlalE11c6AqgbyL774Avv372fmFRQUYNy4cbXeHFvbjdHqEhoaKpHMAGDv3r01rifePd+uXTssXryYVQuLj4+XSGIiNjY2rHshdUlpaSmzH1ZWVjJvgakPpJ1gZWnXrp3UhwV89NFHMDY2RmFhIbZt24aioiJMnz4d5ubm+Ouvv3Dt2jXmZncej8ckxfpowoQJCA4ORlZWFr799lu8e/cOkydPhpWVFXJycnD+/HkEBQUB0P6+KpTQBAIB/P39WfO8vb3lupdtyZIlaNmyJTZt2sSa/+TJE4kbuIGqS5q9e/dq7dYnVbUBfPHFF8jNzUV0dHSN5czNzREUFKSztZ6wsDCmdlYfezZVTV9fH6dOncKcOXNQUFCAI0eOsG7iFuHxeAgLC0OXLl20EKVq6OnpYdu2bZg9ezYKCwsRHBws9ZmGxsbGCAsLU2iAsqop1IZ248YNiR652mpnzBvp6WHOnDmIjo6Go6MjeDye1HLm5ubw8fHBDz/8oN0Rx3V4npO0fdLX10dgYCBWrlwpc5+nT5+O77//XmvJuzYCgYC5dLayssLHH39c522JEqGsz0LX1PQ76Nq1Ky5evIhhw4ZJXe7o6IizZ89q9XcsD3m+kx49euDatWsy73W1t7fHuXPntJ645X5irToUFBTgjz/+QElJCczMzNCpU6d62XAqr9LSUjx8+BBPnjyBQCCAiYkJrK2ttfqET6Ia5eXl+O233/Dnn3+iQ4cO6NGjR73r0ZTXmzdv8OjRIzx9+hQffPABLC0tFbqMVyetJjRCCFEl3XqAPSGEKIESGiGEMyihEUI4gxIaIYQzKKERQjiDEhohhDMooRFCOIMSGiGEMyihEUI4gxIaIYQzKKERQjiDEhohhDMooRFCOIMSGiGEMyihEUI4gxIaIYQzDGr6F1yEEKJJTZs2VWp9qqERQjiDEhohhDMooRFCOIMSGiGEMyihEUI4gxIaIYQzKKERQjiDEhohhDMooRFCOIMSGiGEMyihEUI4gxIaIYQzKKERQjiDEhohhDMooRFCOIMSGiGEMyihEUI4Q6mEJhQKIRQKlQ5CIBAovY365r+4z/XB+/fvtR1CvaGLn5WBIoUFAgHi4uKQmZmJ+/fvIzs7G3w+H/b29ujRowdsbW0xduxY6Ovr17id58+fIzY2Fvfv30d6ejry8/NhYWEBW1tbdO3aFS4uLmjdurVSO6YuYWFh+P333yXmL1myBM2bN5e5Xn3e5x07dqC8vLzWcoMGDcKIESNkLi8uLkZQUBD4fD4MDQ2xfPlyVYZZZ3fu3EFiYiKSk5ORlZUFIyMjODo6ol+/fnBxcYGenvTzfnJyMuLi4uR6Dz8/PzRu3FiVYatESEgInjx5AgDQ09PDihUrajx+6/pZaUoDPp8vVxXr+fPnWLVqFZKSkmos17dvX+zYsQMmJiZSl6enp2PRokUoKiqSuQ0jIyPs3r0bH330kTyhacy9e/cwc+ZMqcvi4uJgZmYmdVl93ufy8nLY29vLVXbu3Ln48ssvpS5LTU3F0qVLWZ/B/fv3VRKjMk6fPo2tW7fKXD5u3Dhs3rwZjRo1klh26NAhHDhwQK73uX37Npo1a1bnONXhl19+gY+PD2teWloaDA0NpZZX5rOSl7L/U0CuGlpBQQEmTJgAPp9fa9mUlBSMHz8eERERMDc3Zy2T9gFKU1RUhFmzZiEkJERnDvDy8nKsXr1a4fXq8z4DwKtXr5jXffv2BY/Hk1m2S5cuEvMqKipw+PBhHDp0SC3xKePEiRMICAgAAJiZmcHV1RXW1tbIzc1FZGQk8vLycPnyZQgEAuzatUti/ZcvXwKoOhn16tVL5vvo6emhYcOG6tmJOnr79i1WrVold3llPytNkSuhiS4TxC1ZsgROTk7Q09NDQkICs7MAwOfzceTIEWzZsoW1zokTJ1jTFhYW8PLygqmpKR4/fowDBw6w3ic2NlZnDu7g4GDk5eUpvF593mcArBpVYGAgjIyM5F736dOnWL58OdLT0wFUHQjGxsbMtDZVVlYiODgYANC5c2cEBwezLvk//fRTzJw5E3l5ebhy5QrWr18vUcN68eIFgKqayYoVKzQXvArs3r2b+W6dnZ1rvHRWxWelKXJd8KamprKmFy1ahHnz5qFz586wtLTEnDlz8NVXX9W4zvPnz3Hnzh1m2sLCAuHh4Zg8eTIcHR3h6emJY8eOsda5evUqKisrFdohdcjLy8P+/fuZ6b59+2LIkCG1rlef91lEPKG1aNFCoXXj4+OZ5PXpp5/iwoULsLGxUWl8dfX7778z+7Zo0SKJ9ksjIyPMmzePmU5LS5PYhqiG1qZNGzVGqnqpqak4d+4cAMDHxwd2dnY1llfFZ6UpctXQqvfI2draSpTp2bMna7p6D8ijR4/QuXNnZtrDw0Pi8qX6NsrKylTSi6qsTZs2saY3bNgAf3//Wterz/ssIvohGxkZ1drZIw2Px8OGDRswZswYVYemlD/++AMWFhYAgN69e0stY2Vlxbx++vSpxPKCggIA9SuhvXv3jmk6sbCwwLx583D27Nka11HFZ6UpciU0e3t7/PHHH8x0YmIiBg8ezCrzyy+/sKarXzY5OjrC0dGxxvfJzMxkTffv379OB5EqxcXFsTpCFi9ezHy5tamv+yyusLAQANChQwcAVSe3p0+f4uXLl+jSpUuNPbt2dnaIjIyU2VmiTWPGjKk1yf7999/M606dOrGWCYVCPHv2DMD/J7Ti4mL89ddfaNSoEbp06aL1Hj9pgoODkZ+fDwDYsmWLXD2vyn5WmiRXQluwYAFiY2OZtp5Tp06hrKwMTk5OaNCgAX766SecOXOGtc6iRYtq3a6owfnFixfIzMzEjh07WMtnz54tT3hqU1JSgs2bNzPTFhYWmDNnjlLb1PV9rk6U0ExNTRETE4OAgADmQAaqauvDhg3DvHnzJBKxvL2jukggEOD48ePMdLdu3VjL3759y7yurKyEn58fLl++zMzj8XgYNmwYPDw8JGrh2vLHH3/g4MGDAIDp06er7Pup7bPSJLkSmqmpKeLi4nDo0CGcPn0aABAeHo7w8HCJsn379oWfn59ED2d1r169kll7MTExwaZNm+Dg4CBPeGpz9OhRVhvSunXrlOqSrg/7XJ2onSgxMVFqw3FWVhaysrKQl5eHLVu26FTtUhknTpxAVlYWAGD58uVo2bIla7ko0QPA0qVLJTrN+Hw+Ll++jMuXL+PcuXNSm2k0SSgUYsOGDQCqmg98fX1Vtu3aPitNkrtOLBQK0b59+xq77QFg1KhRaN++vVJBTZkyBR07dlRqG8rKzc1FUFAQMz1mzBj0799fbe+nC/ssjag2xufzYWJigsDAQNy4cQPXrl3Dzp07mcvv6OhobN++XZuhqkxcXBx2794NALC2toa7u7tEGfHhLHw+H5MnT0ZkZCSSkpJw6tQpeHl5Mcu9vLyQm5ur/sBrEB0dzTTWr127VmW9kPJ8VpokV0IrKCjA5MmTsXPnzlrHom3duhXjx4/HX3/9VWM5fX198Hg8qQnywIED+Pjjj3Hp0iV5wlOL6o3+qhjVruv7LI2ohmZtbY2oqCg4OzvDxMQE7dq1w9ixYxEaGsoktTNnzuDdu3faDFdpd+/eZQYHm5iY4MiRI1LHkInX3Ldt24YNGzaga9euaN68Oezt7bFs2TJ8/fXXAKoSnrx3FKhDcXEx03QyePBgfPzxxyrZrryflSbVmtDKy8vh5eXFajcxMjLCkSNHkJycjJSUFAQFBbHuDBANEi0tLZW53ebNmyM5ORnJycm4desW9u7dK9HwuGrVKjx69Kgu+6WUmzdv4ueff2amFy9eLPPOB0Xo8j7LcuDAAVy4cAFBQUH44IMPJJa3bt0aS5cuZaYfPHigyfBU6rfffmMGQfN4PAQFBaFt27ZSyw4cOBAXLlzAhQsXMGHCBKllPD09mWSfnJysnqDlsG/fPqYioshg2poo8llpUq1taPfv35cYUHrmzBmm1wsABgwYgLCwMNZ9fM+ePcO9e/cwaNCgWoNo0aIFRo4ciREjRuDly5dISUlhlsXHx8Pa2lqunVGVkJAQ1vQff/yBjRs3suZlZGSwplesWIFmzZph3Lhx+OSTT2p9D13bZ1lqawsFwBrHdPfuXfTp00edIanFkydP4OHhwRz4x44dg6WlpczyPB5Pru9o0KBByMvLw507d/D+/XuN12AePnzIDMuYNGkSGjduzKqcAMDr16+Z10+fPoWhoSGaNWsmswdb0c9Kk2pNaNUHyVlYWLCSmYiJiQm6d+/OOkOLJ7Tw8HD8888/zLLp06dLZHQ9PT306tWLdXCLDxfRlOqXTeK9V7Lcu3cPAHuMXn3aZ2kEAgHz4zcyMpJ5j5+Bwf//jOrjJefz588xe/Zs5gA9ceJErYNNi4uLwefz0ahRoxofKiDeSSIQCDSe0LKzs5nX58+fx/nz52ssL6ptTpo0SeIkDtTts9KkWhNagwYNWNN5eXkoKSmRuPx49+6dxOWG+DicR48esYZ2GBgYYOHChazyAoFA4uZ3bfaYKKu+73NhYSFGjRoFoKonz9vbW2o58dqqqampRmJTleLiYnh7ezOJ++jRo+jXr1+t6+3btw9nz54Fj8fDTz/9hCZNmkgtJ7pThMfjyTwh1Bd1/aw0qdaE1r17d4l5ixcvRmBgIHPgvX37Fn5+fhLlxMejjB07lnVwHzx4EBUVFRg/fjxMTU3x559/4ttvv5VIij169JB/b1Rk+PDhtfY4XrlyhdVBMmrUM+9MnQAAA1pJREFUKDRv3pz1edWnfZambdu26Nu3L1JSUnDmzBlMmjQJrVq1YpV5+/Yt68bzgQMHajrMOistLcWCBQuYGvHBgwflaiIBgNGjR+Ps2bPg8/k4e/as1PGJMTExTHvo2LFjVRe4AkaOHFnr7ykiIoIZjnXmzBk0adJE4qSqzGelSbUmtAEDBsDe3p65pAKqzjqDBg1i2hCkNWJbW1uz7nfs3bs3LCwsWO1xR44cwZEjR2S+t4mJCcaNGyffnqiQPINnf/vtN2bsDQB89dVXEiPi69M+y+Lq6oqUlBQ8e/YMkyZNwpYtW2BnZwc9PT1kZGRg3759zOcwbdo0fPjhh1qOWD7l5eXw9fVl7jXt3r073r9/j/j4eKnlW7Zsib59+zLTffr0gZGREYqKihAQEICioiJMmTIFHTp0QH5+Pn788Udm0DSPx4Onp6f6d0qKZs2a1TpEo127dszrrl27StQklf2sNEmu56Hx+Xxs374dkZGRcm103LhxUse6FBYWYtmyZaz2IlkcHBywa9cunb1Pbtq0aayEJut5aPV9nwUCAfbs2cM8bUGWTz/9FOvXr691YO3GjRuZG6O1+Ty0a9euYcmSJXKXt7Ozk7gb5tGjR/Dx8ZFoZBfH4/Fw4sQJnal1SyP+aCBpz0NTxWclL2WfhybXODQej4dNmzYhICBA6iWoSPfu3bF161b4+/tLPSsYGxsjKCgIPj4+Mu/vs7CwwPz58xEcHKxTB3Z11Q9cWQdyfd9nfX19LFu2DBs2bJA6dMXMzAw+Pj5yJTPR9gDUOkBb3aq3DddG2n2Z1tbWOHfunMR9zSIDBw5ESEiITiczQPq+iVPFZ6Upcj+xVpxAIEB+fj4z+tnCwgLm5uYK3/ZSUlKCnJwcvHjxAu3atUPnzp2VztC6rr7v8/Pnz/HgwQMIhUL06NFDJ8Ye6YLy8nLk5OQgLy8PZmZm6Natm9YHmdZHyh4LdUpohBCiDhq55CSEkPqAEhohhDMooRFCOIMSGiGEMyihEUI4gxIaIYQzKKERQjiDEhohhDMooRFCOIMSGiGEMyihEUI4gxIaIYQzKKERQjiDEhohhDMooRFCOIMSGiGEMxoIhUJ6wCMhhBOohkYI4QxKaIQQzqCERgjhDEpohBDO+D/84HLkmSzUrgAAAABJRU5ErkJggg==;" parent="1" vertex="1">
          <mxGeometry x="310" y="95" width="157.71" height="170" as="geometry" />
        </mxCell>
        <mxCell id="8" style="edgeStyle=orthogonalEdgeStyle;rounded=0;orthogonalLoop=1;jettySize=auto;html=1;entryX=0;entryY=0.5;entryDx=0;entryDy=0;" edge="1" parent="1" source="4" target="7">
          <mxGeometry relative="1" as="geometry" />
        </mxCell>
        <mxCell id="4" value="" style="shape=image;verticalLabelPosition=bottom;labelBackgroundColor=default;verticalAlign=top;aspect=fixed;imageAspect=0;image=data:image/png,iVBORw0KGgoAAAANSUhEUgAAATQAAAFYCAYAAADdtwC+AAAACXBIWXMAABYlAAAWJQFJUiTwAAAgAElEQVR4nO3dd1QU1/s/8Ddi39hABRuICCLBgoglisEWjYoS9acoiopG0RhFjV2jsfeCqLGh2MXesH2CRLEhWMFCESGggIJ1EQnL/v7Ys/e7w+4C25fJ8zrHc6bcGZ7dmX3mzr13RhOxWCwGIYTwQBlDB0AIIdpCCY0QwhuU0AghvEEJjRDCG5TQCCG8QQmNEMIblNAIIbxBCY0QwhuU0AghvEEJjRDCG5TQCCG8QQmNEMIblNAIIbxBCY0QwhuU0AghvEEJjRDCG5TQiM4VFBTgw4cPEIlEhg6F8FxZQwfwX7Bq1Sp8+vQJBw4cAAB07twZ9erVY+srVKgAe3t72NnZoUmTJqhUqZKhQtWaR48e4eDBg7h9+zZSUlLYcktLS/Ts2RP9+/eHk5OTASNUT1ZWFjZu3Kh0ffny5VGrVi1YWFigXbt2sLS01GN0urVq1Sp8/vy5xOW7d+8ONzc3HUYkz4Rewa17zZo1g1AoLFFZc3NzBAUFoVmzZjqOSjdycnIwc+ZMnD9/vtiyixcvhre3tx6i0p7ExER07969xOXd3d0xa9Ys2Nvb6zAq/VDlPAaA6dOnY/z48TqMSB7dchqZrKws9OvXD7dv3zZ0KCoTCoXw8vIqUTIDgPnz52PRokW8vhUNDw9Hz549ERoaauhQ/hPoltMAOnfujBYtWgAA0tLSEBoaKnflO3HiBNq1a2eI8NS2evVqxMTEyC13cnJCx44dkZSUhIiICM5n3bNnD7755htMnTpVn6FqlZ2dHQDg69evnNtrWRMnTsTZs2fx7bff6jM0nbK0tESVKlWUrq9Vq5Yeo5GgW049KFxVDw0NhYODA5sXiUSYO3cuQkJC2DKBQICHDx+iTJnSUYmOjY2Fh4cHZ5mlpSVCQkJQv359tiw9PR1jx46VS3yRkZGoWbOmXmLVhKJbzhcvXrDpN2/e4N69ewgODparZdvZ2eHChQul5pgWVtx5bAxK5zfLM6amphgxYgRnmVAoRGm61ii6zdyyZQsnmQGSJLd37165sqXxFluRWrVqoUePHti5cyeaN2/OWRcfH4+HDx8aKLL/BkpoRiIvL48z37FjR5iamhooGtWdOnWKMz9mzBi0bNlSYdnq1atj2LBhnGVPnz7VWWyGULlyZezatQsCgYCz/PLlywaK6L+B2tAMQFrzKigoQGJiIu7cuYOdO3dyyvz666+GCE0tOTk5SE9P5yxTlsykFi1ahEWLFukyLIMzNzdHmzZtcPXqVbbs+fPnBoxIu3Jzc/H161eF60xMTFC+fHk9R0QJzSB69+6tdJ25uTmWLFkCV1dXPUakmaysLLlltra2BojE+DRv3pyT0Aon/tKsf//+Ra5/+vQpKlSooKdoJOiW08i4ubnBxMSkVLWfvX//Xm6ZlZWVASIxPoUT+5s3bwwUif4Z4hymhGYgTk5OcHJykvvhnzp1Cn5+fli6dKmBIlOdoicb3r17Z4BIjE9mZiZn3szMzECR/DfQLacBFO7uzsvLw/nz5zFt2jS2LCgoCN9++y1++uknQ4SoEnNzc7lliYmJqFu3rgGiMS6xsbGceQsLCwNFon0bN25Eo0aNFK4zNTVFxYoV9RwRJTSjUL58efz00094+fIlNm3axJaHhYWVioRWrVo1uWUJCQlFPscXGxvLGYvWpEmTYjsSShuxWIwHDx5wljVo0MBA0WifnZ2d0Y1Do4RmRBo3bsyZLy1js8qUKYPevXtzxqLt2LEDAwYMQNWqVRVuM3fuXDx69IjNz5w5k3cJLTAwEElJSZxlXbt2NVA0/w3UhmZEZHvDAMgNzDRmvXr14synp6dj7ty5CsuGhIRwkhkAuLi46Cw2fROJRDhy5AjWr1/PWS4QCPDdd98ZKKr/BqqhGcDLly9RuXJlAMCHDx9w9+5dhIeHIyIiglPO3d3dANGpp3v37nBwcMCzZ8/YsvPnzyM7Oxu9evWCq6srXr16hYsXL3Ie8QIkHSStWrXSd8haI33yIScnB9HR0bh9+7bCt1IsWLDAIO1KunLixAm5J0FktWrVSu+viKJnOfVA1deuAJKr+YULF4o8YYzN06dPixxjp4hAIMDBgwdLzeuSVH19kJSHhwc2bNgAExMTHUSlH/T6IKIWGxsbnDt3rlQlMwBo2rQpjhw5Ive4jzJ2dnY4f/58qUlm6po2bRrWr19fqpNZaUG3nHpQsWLFYq9sDg4OaN68OZycnNC3b1+ljenGztXVFZcuXcLOnTuxZ88epeW8vLwwd+7cEic/Y1GSpGRlZYV69eqhc+fO8PDw4M1QjZKcx7IM8VYRuuUkOiMUCvH8+XOkp6fj48ePqFSpEmrXro2WLVvy4jXjxPhQQiOE8Aa1oRFCeIMSGiGENyihEUJ4gxIaIYQ3KKERQniDEhohhDcooRFCeIMSGiGENyihEUJ4gxIaIYQ3KKERQniDEhohhDcooRFCeIMSGiGENyihEUJ4gxIaIYQ3KKERQniDEhohhDcooRFCeIMSGiGENyihEUJ4gxIaIYQ3KKERQniDEhohhDcooRFCeIMSGiGENyihEUJ4gxIaIYQ3KKERQniDEhohhDcooRFCeIMSGiGENyihEUJ4gxIaIYQ3KKERQnijrKEDkNq3bx/i4+ORkJCA27dvY9iwYfDx8UHjxo0NHRohpJQwEYvFYkMHkZOTAycnJ7nlfn5+mDFjhgEiIoSURkZxyxkeHq5w+dGjRyESifQbDCGk1DKKhHb27FmFy7OysnDv3j09R0MIKa0MntA+fPiAS5cuKV1//vx5PUZDCCnNDJ7Qrly5wplfsGABzM3N2fzx48eRn5+v77AIIaWQwRPamTNnOPOdO3dGv3792LxQKMSNGzf0HRYhpBQyaELLzMxEREQEm7ezs4OVlRU6d+7MKUe3nYSQkjBoQrt8+TJn/scffwQAuLq6cpYfO3YMX7580VtchJDSyaAJ7fTp05x5d3d3AED58uXh4eHBWXft2jV9hUUIKaUMltD++ecfREdHs3lzc3M0a9aMzXfr1o1TXtnQDkIIkTLYo08XL17kzGdlZWHx4sVs/u3bt5z1oaGh+PTpE6pUqaKX+AghpY/BHn3q1asXnj17ptI269atg6enp44iIoSUdga55YyPj1c5mQHyQzwIIUSWQW45L1y4ILdswoQJcsvi4+M5A2/Dw8ORlZXFGXhLCCFSek9oYrEYJ06c4CxbtWoVBg4cqLB8165dkZSUxOYvX76MIUOG6DRGQkjppPdbzpiYGKSkpHCWff/990rL9+nThzN/6tQpncRFCCn99J7QQkNDOfPOzs6oVauW0vLSsWlSd+/exatXr3QRGiGklNN7Qis8mLZHjx5Flm/evDkEAgFnmbL3pxFC/tuM4o21hBCiDQZ/2wYhhGgLJTRCCG9QQiOE8AYlNEIIb1BCI4TwBiU0QghvUEIjhPAGJTRCCG9QQiOE8AYlNEIIb1BCI4TwBiU0QghvUEIjhPAGJTRCCG9QQiOE8AYlNEIIb1BCI4TwRtmwsDBDx0AIIRxdunRRazuqoRFCeIP+TwFCCG9QDY0QwhuU0AghvEEJjRDCG5TQCCG8QQmNEMIblNAIIbxBCY0QwhuU0AghvEEJjRDCG5TQCCG8QQmNEMIblNAIIbxBCY0QwhuU0AghvEEJjRDCG5TQCCG8QQmNEMIblNBIieTn50OTlxuLxWKIRCItRkQ0JRKJeHdMymq6g5s3b+LixYslLj98+HDY2dkBAO7du4eTJ0+q9PfKli2LBQsWqLSNIbx//x7bt2/H58+fUbFiRcyZM0er5fUhMjIS+/btw+3bt5GVlQWBQAAXFxd07twZw4YNg6mpaZHbf/z4EYcOHcKJEycQHx8PALCzs0PLli0xZswYdh4Yu//973+4du0aAKB3795o27YtW3f//n2VzuEyZcpg4cKF2g6xxJKTk7Fv3z6EhoYiPT0dAODs7Iw2bdrAz88P1apVU3mfV69exdWrV9n8yJEj0ahRI63FrAqN/0+BgIAAbNiwocTlg4KC4O7uDgA4cuQIZs+erfLffPHihcrb6FNkZCR++eUXZGVlsWVFxaxqeX04evQoZs6cqXS9i4sL1q5dCysrK4Xr3717hxEjRiAmJkbpPv744w94e3ujTBnjvFH48uULli1bhgMHDrBlCxcuhI+PD5sv7ntSJDExESYmJlqLs6RiYmIwZMgQCIVChevNzc0REBCA9u3bl3ifGRkZ6NatG2ef+/btQ4cOHTSOVx0a19Cys7O1EQcv5OfnIzAwEAEBATopry+HDh3C3Llz2fxPP/2E9u3bIysrC//73/8QHR2N6OhoeHl54erVq6hQoQJn++zsbAwbNgzPnj0DADg4OKBnz56wsrLC3bt3cebMGQiFQixYsAAVKlTAoEGD9Pr5SuLp06eYOHEikpKSiixXr149dO3atdj93b59W2ki0YeHDx9i2LBhLAZ3d3e4u7ujXLlyuH79Oi5evIisrCx4e3vj0qVLJa49z5s3z6CfqzCNE5psrQIAOnfuXGT5mjVrsun69esXezJkZGQUeZU3FqmpqZg8eTLu378PALCysoK5uTmb17S8vqSkpHCS2dGjR+Hi4sLmx44di0WLFiE4OBjp6enYv38/Ro8ezdnHypUrWTLr1asXNmzYgLJlJaeap6cnRo0ahZ9++glCoRCLFy9G7969IRAI9PDpSiY4OBh//PEHm/f09MSpU6cUlv3uu+/w3XffFbm/zMxMtGvXDgAwcOBAvdfORCIRxo8fzxLPvHnz4Ovry9YPGTIEoaGhmDhxIgBgxYoV2LVrV7H7PXv2LP766y8Aklvx8+fP6yB6FYk1NHToULGNjY3YxsZGPGTIEE13J2fevHls/zY2NuIFCxZo/W9ow44dO1iMM2bMEAuFQk7smpbXl4CAABbDyZMnFZYRiUTiIUOGiG1sbMROTk7i7Oxstk4oFLLtu3TpIs7Ly1O4j5s3b7JyGzZs0MlnUZc0rtatW4tv3Lghfv36NVsWHBys8v4WL17Mtn/58qUOIi7a7du32d+fOXOm0nIbN25k5W7evFnkPrOzs8VOTk5iGxsb8cCBA8X3799n20ZERGj7I5SYxo0Xb9++ZdO1atXSdHccycnJnPYLABg3bpxW/4Y2CQQCBAQEYOXKlahcubLWy+tDQkICm/7+++8VlilTpgy6desGABAKhYiIiGDr0tLS2HTXrl1Rrlw5hfto06YNmz5y5IhGMetC165dcenSpWJrX8VJT09HUFAQAGDQoEGwtrbWRngqkW2P7d69u9Jysv9b+blz54rc5/Lly1mNb+XKlcV2EOmLVtvQpAnt8+fPSEhIwPv379GsWTOYm5urte/AwEDOvI+PD+rUqaN+sDrUqlUrhIaGokGDBjopry8fPnwAIEm2NWrUUFpO9hbx3r178PDwAAB8+vSJLS+qp0v2B5Ceno43b95o/YKornXr1qFfv35auTX8888/2fSECRM03p86pMcUQJEJVfZ43b59W2m5mzdv4tixYwCAGTNmoFGjRnj8+LEWItWcRjW0goICThta9erVsXnzZjRv3hz9+/eHr68vXF1d0aNHD2zZskWlcUzx8fE4fvw4Z5mfn58m4epUq1atVEpOqpbXl5YtWwKQ1LxevXqltNw///zDplNTU9l0kyZN2HRRJ3lubi5nPiMjQ+VYdcXT01MrySwtLQ179+4FIKmdKesR1rVmzZqx6adPnyot9+TJEzatrDMkNzeXDSmys7OTaz81NI0SmuzVGAC2bduGtWvXypWLj4/HmjVrsGjRohIntY0bN3LmR44cCUtLS/WDJSXi6urKppWNr8rJycGVK1fY/Pv379m0dKwaAFy+fJnTJCHrwoULnPnC5xIfbNmyhU0bqnYG/N9FCgCOHz+ucDCtWCxmtS6pr1+/ypXbtm0bUlJSAEhuNZU1KRiKRglNtioLgN1TW1lZwcnJSa58cHAw5yArExMTg9DQUM6ysWPHahApKSlnZ2c2vXbtWuzbtw8FBQVs2fv37zFixAg2UBaQP/Gl4wylwwBka19isRhnz57FtGnTONsUrrGVdsnJyTh06BAASS+ioWpngOQiIx1bdu3aNUyfPp1zzPLz87F06VKEhIRwtit8XF+8eMEqGj4+PpxEaSw0SmiyV2ZA8sUFBQUhPDwcZ86cwePHj+UaIY8ePVrsftevX8+Z9/X1pdqZnlSuXJlzYi9YsAAtWrTAhAkTMGDAALRq1QrR0dGwtLRkF63q1atz9jFu3Dj07NkTgKR23r59e3h6emLixIlo06YNJk+eDADo0aMH26Zq1aq6/mh6tXnzZjZtDE0l69atY0n11KlTaNq0KXx8fODr6wt7e3vWcSE7jKrwUBrpEw7m5uaYOnWqfgJXkUYJrXbt2vD392f/goOD2dUZkHwhgYGBnGSUkpLCHrlQ5N69e5zHKADg559/1iRMoqLWrVvj4MGDbF4oFOLixYtsjJyTkxOCg4Px+vVrAJB7XKZs2bLYuHEjJ2E9evQIoaGhrM3V39+f8+PhU0J78eIFu33z9vY2irZSCwsLHD58mFNTjIiIQHh4OADJb3Xbtm2sI0ggEHA6bkJDQ1lv9u+//260x0ujXk5LS0tMmjSpyDLlypVDp06dOFf9hw8fKq1xrVmzhjPv6+sLCwsLTcIkamjXrh2ePn2KR48e4fbt24iLi4OtrS2aNm3KHnWRJidFPc/lypXD1q1b8erVK0RGRuL27dsoV64c7O3t4ebmhoYNG2LVqlWsvOyA69JO9skPYxpmZGlpibCwMMTFxSEyMhL37t1DrVq10KRJE3Tv3h3VqlXDpk2bAICThHNyctjz0zY2NnBxcZGrlMg2K7x+/RqpqakoV66c3n+7GiW0mJgYxMXFsXk3NzeFXe9fvnzhzCt7du/GjRty3cVUOzOcChUqwNXVldNRIBUbG8umW7durXQfdevWhaenJzw9PeXWRUdHA5D0lhU1RKQ0iYuLw5kzZwBIamf169c3cERcZcqUgYODAxwcHDjPpAKSmrj0qRzZ8XeZmZns4pWUlISOHTsW+TdmzJgBQJJAb968qc3wi6VRQnv06BHmzZvH5n19fTnzgOQh5bCwMM6yunXryu1LLBZj9erVnGVUO9O/6OhodmsxdOhQhRcokUiElStXsnnZhCcWixEYGIiCggI0atSIjU8rLDw8HHfv3gWgfABvaSRbOzOGtjNAMs5POni5U6dOnI4fWbLtfqo8oG5MNEpoPXr04CSwoKAgVKlSBT4+PqhatSqePn2KGTNmcB5etbKygoODg9y+rl69ikePHnGWUe1M/ypUqMB6slJTU+UuMgBw4sQJdqwGDBjAqV2ZmJggJiaGDetwdHSEra0tZ/vc3FzOK3S8vLy0/TEMIjY2lvXODxs2DPXq1TNwRBLVqlXDzp07IRQKcfLkSVy8eBEVK1bklElISGCDgC0tLdGpUye2rkGDBnKjDgqLiYlhNbNFixahdevWKF++vJY/SfE06hQwNzeX68XcuHEjXFxcYGdnh759+7KHlKVmz54t95iESCSSazsbM2YM1c4MwMnJib1g4Pjx45g2bRqSk5NRUFCAjx8/Yv/+/ZzX5fz6669y+5Adc+Xp6YmLFy/i8+fPEIlEePbsGcaOHcvGMnl7exvs3VnaZoy1MwCoVKkS61lOSUnBoEGDcP/+feTl5SE3Nxfh4eEYM2YMKz979mzO+DJTU1N2m6rsX+PGjVl5GxsbODg4GOS4avzo05o1a+Dv7y/XM6nI9u3b2TOAsi5duiSX+GS/YKJfc+fORWJiIlJSUnDy5EmlA2x37typcHxVixYtMGnSJAQEBEAoFCodVNq+fXujeJGlNjx69IjVSn18fBQ2qxjS0KFDcevWLVy9ehUxMTEYMGCAwnJ+fn5KmwlKA40fTq9SpQq2b9+OCRMmKH1m08bGBgcPHlSYzAD5pwLGjh2L2rVraxqawUlroiV9NY6q5XWlUaNGOHv2LPr27atwvbOzM44cOcJ5mLkwf39/7Nq1S+k5MXHiROzYsQOVKlXSSsy6JPsYlLIOre3bt7NpY+rZlKpcuTJ27NiB3377TeF6S0tLrFq1it02qkr2rsuQL+zU+I21haWnpyM2NhZv375FtWrV0LBhQ4VtZqR0yM3NRVxcHBISElC9enVYWVlxbi9K4vXr13jy5Ak+ffqEBg0aoHHjxmq96ploh0gkQlJSEp4+fQpTU1NYWVnB3t7eIG1e2qb1hEYIIYZinC9zJ4QQNVBCI4TwBiU0QghvUEIjhPAGJTRCCG9QQiOE8AYlNEIIb1BCI4TwBiU0QghvUEIjhPAGJTRCCG9QQiOE8AYlNEIIb1BCI4TwBiU0QghvUEIjhPBG2ZycHEPHQAghHJUrV1ZrO6qhEUJ4gxIaIYQ3KKERQniDEhohhDcooRFCeIMSGiGENyihEUJ4gxIaIYQ3KKERQniDEhohhDcooRFCeIMSGiGENyihEUJ4gxIaIYQ3KKERQniDEhohhDcooRFCeEOrCU0kEmlzd8TIicVi5OfnGzoMogFNj2F+fj7EYrEWI9JMWU02/vr1K86dO4fY2Fg8fvwYT548gZmZGZo3b46mTZuia9euaNq0qUr7vHXrFv73v//JLff09ESzZs00CVcrNmzYgE+fPpW4fJcuXdChQ4ciywQHByMlJQUAUKZMGcyaNQumpqYaxakrHz58wLlz5xAdHY2IiAgIhUI4OzvD1dUVffv2hY2NTbH7SEhIwJEjR1BQUICmTZti4MCBeohcdVevXkVERAQAoGfPnnB1dS3xtn///TeuXbvG5ocNG1ai70YfND2GUVFROHToECIjI5GdnQ2BQICWLVvi+++/h5eXl0HPXROhUKhWes3MzIS/vz8ePnxYZLl58+ZhyJAhJdrnx48f0bt3b2RnZ8utW7FiBTw8PNQJVavc3NwUxqfMlClTMGbMGKXrr1+/Dj8/P86y6OhoVKxYUe0YdSUzMxNjxoxBYmKiwvUCgQBbt26Fi4uLwvVisRghISFYtGgRW9a1a1cEBAToJF515ebmYvXq1Th8+DBbNnfuXAwdOrRE22dmZqJPnz4QCoVs2c6dO9G+fXutx6oqTY/hiRMnMH/+fKX7d3Z2xooVK1C/fn2N4lT3/xRQq4b26tUrDB48uEQ/7CVLluDz58/4+eefiy27Zs0alZKFIXTq1Anv378vsszbt28RExMDADAxMVFa7tOnT5gzZ45W49OVrKwseHl5ISMjAwDQt29ftG3bFqampoiMjMSJEycgFArh4+ODY8eOydXM3717h99//x1hYWGGCL/Enj9/jilTpiA5OVntffzxxx+cZGYsND2GR48excKFC9m8dPusrCxcvXoV9+/fx/379+Hj44MLFy6gQoUK+vx4ANRMaGfPnuUkHoFAgHHjxsHe3h5v377F7t27OVeAY8eOFZvQoqKicPz4cXXC0aulS5cWW2bt2rUsoXXv3l1pufXr17PvsUePHrh06ZJ2gtSBq1evsh9C4Vq3h4cHHB0dsWTJEgDAlStXOD+GyMhITJs2jX3WTp06ITo62uh+9AcOHMCyZcvYvIeHB86ePavSPkJDQxEeHg5Acpt68eJFbYaoEU2OYWpqKieZ7d+/H87Ozmze19cXy5cvx4EDB5CRkYHDhw9jxIgROv5E8tTqFDh9+jRn/tChQxg9ejTc3Nzw008/4cCBAxAIBGx9amoqkpKSlO4vLy8Pv//+O5sXCATw9fVVJzSDy8zMRFBQEACgf//+sLKyUlguKioKR44cAQD4+fmhRYsWeotRHTdv3gQAWFtbK2xCGDJkCMzMzABIfjiydu/ezZLZnDlzsGXLFtSoUUPHEatOmszMzMywa9cuTJkyRaXt3717x370zs7OBvlBF0WTYyib2FesWMFJZoDkTmTWrFmsnXHz5s3F3snogsoJLTs7G2XLloWtrS1sbW0xYMAA2NracspUqVIFrVq14izLzc1Vus89e/Zwqvjz589HzZo1VQ3NKEiTGQCltdLc3FzMnTsXgOTkGjt2rF5i00R6ejqsra3x448/Ki3TvHlzAEBcXJzcOmtraxw7dgze3t5F3oYbmru7O06fPo127dqpvO2aNWtYrXPx4sVG17GjyTGUveNyc3NTuG2ZMmXQpUsXAIBQKGQJVJ9UvuU0MzPDmTNniiyTk5ODe/fusXmBQAB7e3uFZVNTU7Fx40Y237ZtW/Tp0wd79+5VNTSDS09Px759+wAAAwYMUFo7CwoKQmpqKgDJLawh2hpUdfDgwWLLSGvhhWubAwYMQIcOHVCpUiWdxKYtK1asQJ8+fdRKuLdv38apU6cASDqCbGxsEBsbq+0QNaLJMfz48SMAyW+5evXqSreXbcx/8OABevXqpU6oatPKOLRPnz7h3bt3+OeffxAWFgYvLy9O+4ifn5/Sq9Xy5cs58/PnzzfqK3hRduzYwaaV1c4SExOxefNmAICXl5dc1b20Cg8PZ7Xswr153bp1M/pkBkjakdQ593Jzc7FgwQIAgK2trdHdapZUUcdQWnMTCoV4/fq10n2kpaUpnNYXjcahSXl7eyvsBhYIBBg/fjxGjRqlcLvr16+zBlQA+OWXX4xmrI6qUlNTWTf/wIED0aBBA7kyYrEYf/zxBwBJTdff31+vMepKVlYW68o3MzPDyJEjDRuQnsnWuJcsWYJy5coZOCLVFXcMZYdxnDlzBuPGjZPbR05ODv766y82/+HDB90EWwSdPvrk4eGBli1bKlyXl5fHelQAwMLCotR2BADA9u3b2bSy2tnZs2cRHR0NQFITrVKlil5i06Xc3FxMmDCBNfrz5XOVVFJSEqtxDx06lNVkSpOSHEPZW9CAgAAcOnQIBQUFbNmHDx8wduxYTsXm69evOo5cnlYSWvXq1Tm9mlKHDx/GsGHDsHTpUrnHIw4ePBuWD3sAACAASURBVMiuaoBk4KIxDiYtieTkZDbkZPDgwQoHFX748IElcDc3N/zwww96jVEXRCIRpk+fzoao+Pv78+JzqUI6jMfMzAyTJk0ycDSqK+kxrFy5MmsfBiQ10Xbt2sHf3x9Dhw7Fd999h/v378PCwgKOjo4AgGrVqunnQ8jQSkLbu3cvIiMjER0djd27d8vVUA4ePMgZY5aVlYXVq1ez+bZt26Jr167aCMUg/vzzTzY9evRohWUCAgJYu2JpGUxblIKCAixcuJANlB06dGiJBk/zyaVLl3Dr1i0AwOzZs0tdzVTVY9iqVSvs3r2bzQuFQly5coU9LeTo6Ijt27cjPT0dgGESmlba0KQqVqyINm3aoE2bNqhQoQICAwPZulOnTrFn9qS9QVL5+fmcx2EA4PHjx5z5rVu3IjQ0FHZ2dpg6dao2w9ZIYmIi6/UdPHgw6tWrJ1fm6dOnrH1twIABqFChAhvgKCU7ZictLQ0VK1ZElSpVULVqVR1Gr761a9fixIkTACSDgmfNmmXgiPTry5cvrMZtbW0NZ2dnuWOamZnJpjMyMpCWloZy5cqhdu3aeo1VGXWOYZs2bXDv3j3ExMQgMjISCQkJsLGxQZMmTdClSxfk5OSwW1dLS0udxq+Iygnt1q1buHv3Lpt3c3NT2FMnrXZKyY5rycvL46yLjo5mbUvKJCcnIzk5WaUHw/Vhy5YtbFrZM5vPnj1j08ePHy/2iYi+ffsCkCS/woneGOzcuRN79uwBIBm3tXLlSqMbc6VrmZmZ7IebnJyMbt26FVleOu7QwsLCKB7/0uQYVqhQAS4uLgqf93z69CmbLjwWVR9UTmgfP37Etm3b2HxUVBSCg4PlurujoqI488Y4MlxTcXFx7NEWLy8v1K1b18AR6d6xY8ewfv16AECHDh2wbt26Utmr91+mzjG8f/8+Gyg7ePBghQPfRSIR1q5dy+ZLRUL7/vvvOfPR0dGYOHEifvnlFzRs2BBv3rzBuXPnOCPmAXBqcU2bNsWAAQOK/DtRUVGcpwecnZ3RqFEjWFtbqxqyzsjeUhf1Ro1u3brh22+/LXJfx44dw4EDBwBI2hwrVapU5ABGQ7h8+TIbb9W2bVsEBASUikHBulC/fn2cPHmyyDJPnjxhNbN58+bBxcXF4Mlf3WNYoUIFdjeSlpbGeeZV6vTp06xzoV+/fgapxKic0CpWrAgvLy/Oq1XCw8M548kUkR2S4e7uDnd39yLLb9iwgTNQdfDgwUbx+iCp2NhYNuZm6NChqFOnjtKyVapUKbbBWHb7Jk2aGF2P761btzjPNnp4eOD69etKy7u4uLDnAvnI1NRU6dMvUrKP+zVs2LDY8rqmyTF0dHREp06dcO3aNZw+fRpisRjjx49H/fr1IRQKce7cOc4wrPHjx+vugxRBrU6BWbNmoVy5cpxuXGXMzMywefNmgx9MbZOtnSnr2eSTwk90zJs3r8jy27dvL/bFlkS/ND2GM2bMwIsXL5CamoozZ84ofQRy8+bNCgeW64NawzbKlSuHWbNmYfXq1XKN/1JmZmbo3bs3Tp8+rdZgw8INlMbU6BwXF8feRurt7a2V3pwyZfj13zsUd7yk68uW1WpHu1bJtgur80iU7HdgTOdvSRWO2cbGBseOHUPv3r0Vlm/RogX27t1b7N2XLqn9xlpZeXl5ePnyJZKTk1GtWjU0btyY17cbhPzX5ebmIiEhAYmJiahWrRqsrKzQqFEjre1f3TfWaiWhEUKINqmb0Ph1n0MI+U+jhEYI4Q1KaIQQ3qCERgjhDUpohBDeoIRGCOENSmiEEN6ghEYI4Q1KaIQQ3qCERgjhDUpohBDeoIRGCOENSmiEEN6ghEYI4Q1KaIQQ3qCERgjhDROxWEwveCSE8ALV0AghvEEJjRDCG5TQCCG8QQmNEMIblNAIIbxBCY0QwhuU0AghvEEJjRDCG5TQCCG8QQmNEMIblNAIIbxBCY0QwhuU0AghvEEJjRDCG5TQCCG8QQmNEMIblNAIIbxhlAlNJBIZOoQSE4lEKCgoUHv7vLw8LUZDiP4Z0zlcVt0NV61ahU+fPqm0zY8//ojvvvtObnlkZCRu3LiBmJgYPHr0CFlZWXBwcECzZs3g6OgIT09PVKtWTd1QtS4xMREXLlxAVFQUrl27BoFAgHbt2qF169bw8vIqNtaUlBQEBgYiIiIC6enpEAgEaNasGX7++Wd07txZT59CNatXr1bpeHfv3h1ubm4K18XHx+PAgQMoKCiAo6MjvLy8tBWm1ly9ehVXr15l8yNHjkSjRo0Ulj148CCePXtW7D7r1auHcePGaS1GbVLlmIhEIpw5c4Z9bqFQCBsbG7i4uOCHH35At27d9Bg5l9r/p0CzZs0gFApV2mbu3LkYPXo0m//69StWr16NoKCgIreztLREYGAgWrVqpU6oWhUVFYVRo0Yp/ex2dnYIDg6GpaWlwvXXr1/HiBEjlO5/0KBBWL58OUxMTLQSr7a4uroiKyurxOVnzJgBPz8/zjKxWIyDBw9i/vz5bFmPHj2wdetWrcWpDRkZGejWrRvnGO/btw8dOnRQWH7w4MG4e/dusft1cnLCmTNntBanNqh6TD5+/AgfHx88evRI6T59fHwwZ84clC9fXuvxFkftGpqmRCIRhg4divv37xdbNj09HQMHDsSWLVvQs2dPPUSn2N27dzF48GA2P2bMGDg7OyM7OxuhoaG4desW4uPj0b9/f/z111+oVKkSZ/v4+HhOMvP19UXbtm2Rnp6OgIAAZGVlISQkBFZWVpgwYYLePldJdO7cGe/evSuyzJs3b9iJXjghv3v3DrNmzcKVK1d0FqO2zJs3T6WLdUZGBgDAwcEB9erVU1rOxsZG49i0SdVjIhKJMHr0aHaM7ezs4O3tjZo1ayIxMRF79+5FVlYW9u7dCwBYuHChrkJXSu2E1rNnT7x//77IMn/99RdnvkyZ/2uyu3Tpklwy69u3L3x9fWFmZoZHjx5h5syZnBNr/vz56NGjh8FqLwcOHGDTx44d49QYvby8MG3aNJw5cwbp6emIioqSu+XauHEjm16xYgUGDRrE5nv27IkuXbpAKBRizZo1GDRoEGrWrKnDT6OaVatWFVtmxYoV7GSXvfDcunULkyZNYjW8zp07IzIyUuUavj6cPXuWnbe9e/fG+fPni90mJSUFADB58mT06NFDp/FpizrH5OTJk4iOjgYgqcUFBgbC1NSUrR82bBhGjBiBmJgY7N27F+PHj4eFhYVuP0hhYh35559/xDY2Npx/aWlpbP3SpUs564YMGSIuKCjg7OP+/fty+3j9+rWuQi5Sfn6+2MnJSWxjYyNesGCBwjIvX75kcS5dupSzLiUlha374YcfxPn5+XLbb9u2jZXZvHmzLj6GzqSnp7PYZ8yYwVnn6+vL1u3Zs0dcUFAg/v7778U2NjZiPz8/A0UsLzs7mx3jgQMHcs6/iIgIhdsIhUJW5t69e3qOWH2qHhORSCRu3769wt+yrAcPHohbt24tbt26tXjfvn26/hhydHbLGRgYyJn38fFB3bp12XzhnsGWLVvK1by+/fZbuf1q0qOoidTUVNSuXRsAlDZ2W1lZsenk5GTOuoSEBDY9a9YszpVNavjw4dixYweysrLw5MkTbYStNzt27GDTim6XbWxsEBAQoPCYGovly5ezGsrKlStLVIOUbVc0NzfXWWy6oMoxSUhIQHp6OgBg+vTpnN+yrBYtWpSoPVFXdJLQXrx4gZCQEM6ywr07zZo148xHRETA39+f05B448YNThlzc3PUqVNHy9GWjLW1tdwtdGFv375l0w4ODpx1SUlJbNrFxUXh9pUqVULbtm0RGhqK+Ph4DaLVr9evX7OOnUGDBsHa2pqzftCgQXBzc0PlypUNEV6J3Lx5E8eOHQMg6dBo1KgRHj9+XOx22dnZbLpWrVoAJG2+aWlpqFOnjtIfvqGpekwiIyPZdNeuXQFI2tTS0tKQnJwMKysrueNuCDpJaAEBAZz5ESNGyCWiPn36YO/evawdLSYmBsOHD4evry+qVq2K2NhYLFu2jLPNggULjK73T9auXbvYdJs2bTjrpAlNIBCgatWqSvfRoEEDAJIOBJFIpLAmZ2y2bNnCphXVzoy9XSk3Nxdz5swBIGnolu2JL460hiYQCJCQkICFCxdy2oatrKzg7u6OX375hSU8Y6DqMUlMTGTTDRo0wJEjR7BkyRJOLdbc3Bzdu3fHb7/9BjMzM63FqgqtJ7Rnz57JdU0rGntjamqKw4cP49ChQ1i9ejWEQiHu3r2rsLpqZWWF3377DX369NF2uFoTFRWF7du3A5A0sBbu4o+LiwNQfE+XbC9ZamqqUVz1ipKSksI6S7y8vDi33aXFtm3bWMP+ypUrUa5cuRJvK01oQqEQQ4cOlbtNTUlJwd69e3Hr1i0cPnwYNWrU0F7geiTt4baxscGyZcs4HWRSWVlZOHz4MB48eIADBw4Y5LNq/UmB9evXc+ZHjhypdEyWWCxG1apVi62W9+zZE46OjlqLUdtevHiBUaNGAZBcqX///XeFZQAUe8ss2yuUlpamxSh1Q7Z2VnjcWWnw4sUL1vvs4+ODli1bqrT9mzdv2LRQKMTs2bMRFhaGqKgoBAUFoXv37gD+b8hObm6u9oLXI+mIhqSkJJbM5s2bh4sXL+LBgwcIDg6Gu7s7AEmlZsSIEQZ5gkCrCe3BgwdyY1rGjh2rsGxeXh78/PwwderUYtuLtm/fjm7duiEsLExrsWrLmzdv4Ovry67MO3bsUFirkt5uFDfURXY0vjE9HaHIy5cvWVupt7d3qaydScdKmZubY+rUqSpvL9uGdunSJfz8889o2LAhzMzM4O7uji1btqBXr14AwJ6EKY0Kd8YFBwfD19cX9vb2qFq1Ktzc3PDnn3+yJ11iYmJK1AapbVpNaOvWrePM+/r6Kq2dzZ8/H+Hh4ZxlS5YswZ07dxAXF4fQ0FB07NiRs37MmDGIjY3VZsga+fDhA0aMGMFuVwICAtCuXTuFZe3s7AD8X01NmdTUVDbdsGFD7QSqI5s2bWLTxvpIT1FCQ0MREREBAPj999+LbNtUZuzYsQgNDcXff//NjrEsU1NTLFiwgM1HRUWpH7AByV5ce/XqpbCnv3z58pg7dy6bl+1I0BetJbQ7d+6wk0Pq559/Vlj269evOHr0KGfZ2rVrMXToUNSqVQtly5aFg4MDgoKC5HoLL126pK2QNfLlyxeMGTOGPcO3cOHCItv4bG1tAUjaGf7991+l5aQJzdzcHAKBQIsRa1d8fDxOnjwJQFI7q1+/voEjUk1OTg5LNNLnENPT0zn/pE8AAJKe3NTUVM4yAKhduzYcHBxYZ44itWrVYm2nhviRa4PskJSiBnzb2Niw8/bOnTs6j6swrXUKrFmzhjPv6+urdJSwolqWoufkypYtC3d3d86Dv7du3dIwUs3l5+dj4sSJbNT0jBkz4OPjU+Q2sp0BL1++VHg1B/6v86Bp06ZailY3ZHuyS2PbWWZmJmvQT0pKkrsbKGzGjBkAJM8V37x5ky3PyMhAfn4+vvnmmyKbCMqWlfzUjPHpiJJwcnJi040bNy7RNl++fNFVOEpppYb2999/sx+3lLLaGSD/nB8Ape1oMTExmgWnZQUFBZg5cyZ7E4O/v3+JftCyt4+yg1Bl3bp1i7Wx2Nvbax6sjjx79ow9EjRs2LAin1/ku8GDB8PNzQ2//vqr0jLv3r1j53dp/a5cXV3ZdFEDZxMSEljSNkSbqsY1tIKCAqxdu5azbPTo0UU+w6XoNSzTp0/Hrl27WM1EJBJh06ZNcrexqvZCaduSJUvYrZafnx8mTZpUou0cHR1hZWWFlJQUHDt2DL6+vpzb6YKCAixfvpzNSxuSjZHsM6mlsXYGSMZShYaGFlkmJiaG1cwWLVqE1q1by71BYsCAAVi/fj0iIiLw4MEDufNTLBZz2palg1JLG2trawwaNAghISE4e/YsPD095V51lZubi6VLl7J5Q3xWjRPalStX5GpRRdXOAEkD46+//sppVE5PT0fv3r1hZWUFc3NzpW/h8PX11TRktQUEBGDPnj1svlmzZrh48aLCsiYmJujWrRsbGGtqaoopU6ZgypQpACQPMm/YsAFNmzbFp0+fsHr1avY9duzY0ShelaRITEwMa8cs/DhbaWJqairXPluY7BALGxsbheU9PDzYUKX+/ftj1apVcHd3R40aNfD06VMcPHgQhw8fBiB5ekQ6jKM0mjJlCuvVHj16NBYvXozOnTujZs2aePjwITZv3oxr164BAJydnUtfQhOJRHJvYRgzZgx75rEokydPRvXq1bF48WLO8pSUFNZrKMvGxgYbN2402KNPWVlZ2LBhA2fZL7/8UuQ2MTExnEdL+vbti6ioKBw4cADx8fHo3bu33DaWlpZy7ZHGRHacYWns2dS2hg0bIjAwEBMnTgTwf21thTk5OSE4OBgVK1bUZ3haZWFhgfXr17OLsuw71GS5uLhg9+7dKg1Q1haN2tDCwsI4zygCxdfO2B8uUwajRo3C2bNn0bFjR6U9elZWVvDz88O5c+c4DZP6ps4jV4W3MTExwcKFCzF9+nSF5Xv27ImjR4+W6IJgCM+fP2dth4oeZ1OFbM3VWMnGJvvqq8J69eqF48ePK6zBCQQCeHp6Yt++fUb/lEBJjkm/fv1w+fJlpb/Fvn37Ijg4GN98841OYiyO2m+s1YX09HQkJibi8+fPqF+/Pho1aiT3kkS++PDhA54/f46MjAx88803aNSokdE/5kSK9+nTJ8TExODdu3ewt7eHra2tUT9/rImMjAw8e/YM79+/h5mZGRwcHAz+vKpRJTRCCNGEUf6vT4QQog5KaIQQ3qCERgjhDUpohBDeoIRGCOENSmiEEN6ghEYI4Q1KaIQQ3qCERgjhDUpohBDeoIRGCOENSmiEEN6ghEYI4Q1KaIQQ3qCERgjhDUpohBDeKJuTk2PoGAghhEP2/+JQBdXQCCG8QQmNEMIblNAIIbxBCY0QwhuU0AghvEEJjRDCG5TQCCG8QQmNEMIblNAIIbxBCY0QwhuU0AghvEEJjRDCG5TQCCG8QQmNEMIblNAIIbxBCY0QwhuU0AghvKHVhCYWiyEWizXej0gk0kI0hKjv33//NXQIpYYxfVdlNdlYJBLh0qVLePz4MWJjY/Hs2TMIhUI4Ozvj22+/hZOTE3r16gVTU9Mi95OZmYkLFy4gNjYWDx8+RGpqKqytreHk5IQmTZqgX79+qFmzpiah6kxubi42btyIvLw8AICVlRVGjBhR5DZv3rxBWFgYYmNj8eDBA+Tn57PvrHPnzqhTp44+QldJRkYGtm/fXqKyQ4cOha2trdL1CQkJOHLkCAoKCtC0aVMMHDhQW2Fq5M6dO4iIiEBkZCRiYmJgZmaGjh07ok2bNujXrx/KlFF8/Q8JCcHz58+L3X/dunUxevRobYetMVXPYZFIhNDQUERFReH27dtITU2Fra0t2rZtiy5duqB9+/b6Cl2OiVAoVKtKlZmZiTlz5uDWrVtFlnN1dcXKlSthYWGhcP3Dhw8xceJEZGdnK92HmZkZ1q9fj9atW6sTqk6tX78eO3fuZPPOzs7Yv3+/0vKPHz/GhAkTlH5egUCALVu2GN1njYyMxKhRo0pU9s8//4Sbm5vccrFYjJCQECxatIgt69q1KwICArQWp7oOHDiAZcuWKV3fu3dvLFmyBOXLl5db5+Pjg+jo6GL/hqOjI44ePapRnLqgyjn877//Yvbs2bhw4YLS/c2ZMwfe3t4axaTu/ymgVg0tPT0dffv2hVAoLLbs3bt34eHhgWPHjsHKyoqz7vr16/Dz8yt2H9nZ2RgxYgSCg4ON6of++PFjzolQnPv372PYsGFsvnfv3vj222/Zvi5cuAChUIgRI0bgyJEjcHJy0nrM6srKymLT7u7uRZY1NzeXW/bu3Tv8/vvvCAsL03ZoGtu9ezfWrFkDAKhfvz48PT1hb2+PpKQknDhxAsnJyTh//jxEIhHWrl0rt31GRgYAwN7eHnXr1lX6dxo2bKiT+DWh6jk8adIkXLt2DQDg4uKCHj16oHbt2nj8+DEOHz4MoVCIZcuWoWzZshg8eLCuwlZKrYS2a9cuuWQ2efJkdO3aFWXKlEF4eDg7QQBAKBRi27ZtWLp0KWeb3bt3c+atra3h6+sLS0tLvHjxAoGBgZy/c+HCBaNJaP/++y/mzp0LALCwsEDdunVx//79IrcJCQkBIKmFBQYGok2bNpz1Xbt2xW+//QYAuHLlilEltHfv3gEAbG1tsXnzZpW2jYyMxLRp01ittFOnToiOji7RBVHXCgoKEBQUBEDy2YKCgjjNG/3798ewYcOQnJyMixcvYuHChahSpQpnH6mpqQCAX375Bd26ddNf8BpS9Rx+8eIFS2Y//vgjVq5cyZqTunfvjq5du2Lo0KEAgNOnTxskoanVKRAVFcWZnzhxIsaOHQtbW1vY2Nhg1KhR7IepbJvMzEzcuXOHzVtbW+Po0aMYOHAgOnbsCB8fH+zYsYOzzeXLl1FQUKBOyFq3a9cuJCYmAgAWL16MatWqFVleKBTizJkzAIABAwbIJTNAcpLUr18fAHD16lUtR6yZt2/fAgAsLS1V3nb37t0smc2ZMwdbtmxBjRo1tBqfuhISElhsEydOlGurNTMzw9ixY9l84VvLL1++sOlatWrpMFLtU/Uclv29zpw5U65tvEWLFujXrx8ASVOS9CKoT2rV0Ar3QiqqSTRr1owzX7gnJC4ujtNwPHz4cAgEgiL38fXrV630omoqKSkJmzZtAiC5gnfo0AEHDx4scpu8vDzMmDEDgKQmpkytWrXYFd+YSBOasrbQ4lhbW2Pt2rVo2rSpNsPSWGJiIqytrQEALVu2VFjGzs6OTaelpXHWyd6KK7rVNlbqnMPSzjpLS0ulybtJkyZsOj09Xe8XLrUSmrOzM8vsABARESHXCHz9+nXOfOFbxY4dO6Jjx45F/p3Hjx9z5tu2bVtsj6muFRQUYMGCBQAkt46Fa6LK1KhRo9jez6ysLFblN2RPkSJv3rwBANSuXRuApGcsJSUFubm5aNKkCSpUqKB02wEDBqBDhw6oVKmSXmJVxY8//ogff/yxyDKvXr1i040aNeKsk62FSGt3GRkZePXqFSwtLY2yx1rdc3j69OmYPn16kWVkE74h2gzVSmjjx49nDdgAsH//fnz9+hVdu3aFiYkJ/v77b7lsP3HixGL3Kz053rx5g8ePH2PlypWc9SNHjlQnXK06ffo0u+0oSTW9pBITE/Hrr78CkJxk0rYIY5Geng4AqF69OjZt2oQ///yTs75Dhw7w9PREr1695LYtTe1KhYlEIk6jeeEaprSGJhAIkJiYiKVLl+Lhw4dsff369dGpUyeMGzfOaIYe6eoczsjIwIEDBwBIbj8NcQFTK6FZWlri0qVL2Lp1K/sAR48eVdgl7erqihkzZsj1cBb27t07pTU2CwsLLF68GC4uLuqEqzXZ2dlYvnw5AEnDdo8ePdTe19mzZ3Hx4kWIRCLExsaydhxra2usX7+e3QYZC+kt56ZNmxQ25t+4cQM3btzA58+fMWjQIH2HpzO7d+9GTEwMAEkNpXr16pz10uMmFAoxatQoue8mNTUVBw8exJ07dxAcHGzwtkNtnsOyRCIRFi5cyOZnzZqllf2qSu2BtWKxGHXr1oVAICiyt6p79+5FdmWXxP/7f//PKLq8169fzz7rvHnzNNpXYmIiwsPD5Zb3799frYZ3XRKJRJwfrrOzMyZPnozGjRvj7du3iIqKwpIlSwAAf/zxB6pVq6a1H4ohXbp0CevXrwcgGZKhaGyVNNEDku/mt99+Q5cuXVClShXExsYiJCQEYWFhSExMxNixY7Fv3z5UrFhRb5+hMG2ew7JWrlzJekC9vb3RvHlzre1bFWr1cqanp2PgwIFYvXp1sV3vy5Ytg4eHB/75558iy5mamkIgEMh1DABAYGAgfvjhB5w+fVqdcLXi3r17OHHiBABg2rRpqFevnkb769ixI6ZMmQJ/f394e3vD2dkZgOSE69OnT7FDQPTpw4cPbHrAgAHYu3cvXF1dUaNGDdjZ2WHIkCGcgZiHDh0yRJhade/ePUydOhWA5A5h27ZtKFeunFw52QHSp0+fxqhRo2BtbQ0zMzO4ublhw4YNLLk/efKE1fYMQdvnsNTu3bvZnVqnTp1Y55chqFxDy8vLg6+vLxtMCEi6tpcvXw5nZ2eYmJjg0aNHmDNnDisjHRh77tw5pSOAq1atisjISACSH9Ddu3dx8eJFzojkOXPmoGnTprC3t1c1bI3k5+ez6rS1tTWGDx+u8T5bt24t11EiHY2fnZ2NadOm4cyZM/jmm280/luaql69Ok6ePAlA8liMokeAnJ2d4e3tjQMHDuDu3bv4+vVrkR0Fxuz58+dswLdAIMCuXbtYZ0hho0ePRv/+/VG5cmU25EaWqakp5syZg0uXLgGQJBVDjKXUxTkMAKdOnWJjTp2cnLB27VqULavRE5UaUbmGFhsbi+TkZM6ygwcPomPHjhAIBKhcuTLatWsnd5XOyMgoca2jWrVq6NatG1atWgVXV1fOuitXrqgassZCQkJYr+7YsWORnZ2NjIwMzj9pTVUoFCItLQ1paWnIzc1V6e+0adMG8+fPByD5vgqP3TOUMmXKwN7eHvb29kXeLsm2cT558kQfoWldSkoKhg8fzo7njh07YGNjo7R8rVq1YG9vrzCZSdWsWZO1iRrqmOriHA4LC2MDc62trbF161a1H1nSFpVTaeGBhdbW1mjQoIFcOQsLCzg6OnJO7Pv376NDhw4AJJ0Ir1+/Zuu8vLzkroJlypRB8+bNcffuXbZMdriIvsgOH5EeQGXi4uLwww8/AABWrFgBDw8PAMDHjx/x8eNHmJqaFtmVL5sUEhISin3MSB9yc3PZPvoKQgAABRpJREFUrVWdOnVgYmKisJzskBpVk7kxyMzMxMiRI9kPe/fu3WjRokWx2+Tn5+Obb75B1apVlZaT1lpycnK0F7AKtHEOy4qMjGS98vXr18fu3bthZmamxYjVo3JCK3wyJycn4/Pnz3K3Rrm5uXJXadlblbi4OM7QjrJly2LChAmc8iKRSO7h98K9TKVFSEgIa2AOCwtTOkBVOjwCgNGM2/r7779Ze9L+/ftZe19hsjVwY+vYKM6HDx8wZswY1kyyfft2hU9zFDZ8+HCkpqaiffv2Sp+JfP/+PbsQa9pBZgxiY2PZiwosLCywe/dutQdca5vKCc3R0VFu2aRJk7Bu3TqWbD59+qSwYVB2DE+vXr04CW3z5s3Iz8+Hh4cHLC0t8fLlS2zZskUuKUof5tYnf3//Yt80MX/+fMTExMDW1pa1KcjWxH744QeW0IKCgjBr1iy5i8O///6Lw4cPs3kHBwdtfQSNyA6nCQoKwoYNG+QGOMfHx7NhO/Xr1ze6YSdFycnJwfjx41nS2bx5M7uTKI6npycCAwNx69YtPHr0SK53TywWsxH5QPEP9uuKNs5hQPKEgXQ/ZmZmCA4ONqokrXJCa9euHZydnTlX4zt37qBDhw6ssT4uLk5uO3t7e3Tq1InNt2zZEtbW1pz2uG3btmHbtm1K/7aFhQV69+6tasgas7CwKPYKJB1fVLVqVYWdFlZWVux7279/P1JSUjBq1Cg0btwYgKQheuvWreyW3sXFxeDj7qQEAgH69u2LM2fOICwsDOPHj8eUKVNgZ2eHjx8/Ijo6GnPnzmW3apMnT1b67jBjk5eXB39/fzYY1tHREf/++6/Sttrq1atz2nV79eqFwMBAAMCQIUOwZMkSdOrUCdWrV8fz589x5MgRHDt2DIDkN9ClSxcdfyLFtHEOp6enw8fHhx3noUOH4tmzZ3j27JnC/TVq1KjI9+Lpglq3nNu2bcOKFStYF7CUokQGSF6TM3/+fM5V3cTEBPv27cO0adM4bWTKuLi4YO3atQYdw6OpgIAATJ06FXfv3sW1a9fYuJ3CunTpghUrVug5uqLNnj0bGRkZuHPnDhtEq8jixYsVPi1grK5du8b5LE+ePIG/v7/S8i1atODcWVhbW2PdunXsllzZ2C5HR0fs2LGjVJ+/e/bs4QxTkSZyZcaNG4dJkybpOiwOtS6jAoEAixcvxpo1axTegko5Ojpi2bJlWLVqldwrVwDJw7y7du2Cn5+f0l4ia2trjBs3DkFBQUb9NgNpsi6qZmJmZoadO3diwoQJCq+ATk5O8Pf3x4YNGxSOxzOkqlWrYtu2bfD29lYYm6OjI1avXo3+/fuXaH/S78uQXfyAfJtwcRQd3x49euDgwYMKj6lAIICHhwd27dpl9O2/xZ3Dqn5XhnjuWu031soSiURITU1FUlISAEkSsrKyUvkDff78GfHx8Xjz5g3q1KkDW1tbg3cD61Jubi5evHgBExMT2NjYlJqrd0FBAZKTkxEfHw+BQIDmzZsrvGD9F3369AlPnz7Fu3fvYGdnBxsbG5UTAVH/jbVaSWiEEKJN6ia00tFySwghJUAJjRDCG5TQCCG8QQmNEMIblNAIIbxBCY0QwhuU0AghvEEJjRDCG5TQCCG8QQmNEMIblNAIIbxBCY0QwhuU0AghvEEJjRDCG5TQCCG8QQmNEMIbJmKxmF7wSAjhBaqhEUJ4gxIaIYQ3KKERQniDEhohhDcooRFCeIMSGiGEN/4/ocMnYLNysUUAAAAASUVORK5CYII=;" parent="1" vertex="1">
          <mxGeometry x="510" y="97.5" width="147.73" height="165" as="geometry" />
        </mxCell>
        <mxCell id="7" value="" style="shape=image;verticalLabelPosition=bottom;labelBackgroundColor=default;verticalAlign=top;aspect=fixed;imageAspect=0;image=data:image/png,iVBORw0KGgoAAAANSUhEUgAAAP4AAAFGCAYAAABKeCL9AAAACXBIWXMAABYlAAAWJQFJUiTwAAAgAElEQVR4nO3deVxU1R838A+ipY5ogggugYggKmBkiKWYiFsJarhvmGRGuKSZZSYuj7uoCKLmhuGWP3EDDCVTyQ0TcEFQAwExKBbBBVFAhnn+4JnzzGVmYGDuLHq/79fL12vOvedevndmvvece+65o4FEIpGAECIoDXQdACFE+yjxCRGghroOQIjWrVuH4uJiHDhwAADg5uaGdu3asfVvv/02bG1tYWNjg86dO6NJkya6ClUthYWFCAoKwv3793H16lUAwKRJkzh13nnnHdja2sLW1hbW1tYwNDTURaj1Jj1GZd566y2YmprCzMwMvXr1grm5uRajU86ArvG1z8HBASUlJSrVNTExQWhoKBwcHDQcFf/S09MxcOBAles7Oztjy5YtaNWqlQaj4lddj7Ffv35YsGABbG1tNRhV7airr+cKCwsxfPhw1mK+yeLj4/HJJ5/g0aNHug5FY2JjYzFkyBBER0frNA7q6usBNzc3dO/eHQCQk5OD6OhouR7BsWPH0KtXL12Ex6s5c+aw1ykpKThz5gxnfWFhIWJjYzFq1Chth8YbGxsbAEBZWRkePnyosM7MmTMRFRWFbt26aTM0hrr6OlC9qx8dHQ07OztWFovF+Omnn3D48GG2TCQS4datW2jQ4PXppCnqBmdkZHDKL1++hIeHBzIzM9kyT0/PGq+b9Ultx1hQUIDr168jLCxMrtdmY2ODU6dO6eQzfX2+RQJiaGiIKVOmcJaVlJTgTTxHN2nSBJ9//jlnWXFxsW6C0QBTU1MMHjwYu3btgqOjI2ddWloabt26pZO4KPH1VHl5Oafcp0+f127EW1VlZWWccs+ePXUUieY0bdoUu3fvhkgk4iz//fffdRIPXePrAWlLXllZifT0dPz111/YtWsXp86sWbN0EZrGlJeXIzk5GXFxcdiwYQNbbm5u/lpf39fExMQEPXv2xPnz59myv//+WyexUOLrgaFDhypdZ2JighUrVsDZ2VmLEWlOx44dla5zdHREQEDAa3U7r64cHR05iZ+bm6uTOKirr+dcXV1hYGDwRl7fyxKJRHB2dsaLFy90HYpGWVtbc8oFBQU6iYMSX0/Y29vD3t4eFhYWnOUnTpyAr68vVq5cqaPI+CU9Tnt7e5iYmLDlJSUl2L17Nz777DOcPn1ahxFqVn5+PqdsbGyskzioq68Hqt/OKy8vx2+//YZ58+axZaGhoejWrRs+++wzXYTIm8jISE65uLgYW7ZswY4dO9gyPz8/nDt3Dh06dNBydJqXkpLCKZuZmekkDmrx9dBbb72Fzz77TG5A79y5czqKSHOMjIywYMECODk5cZZfvnxZRxFpjkQiwc2bNznL3n33XZ3EQomvxzp16sQpv8nTdrt27copJyUl6SgSzQkJCeFMVAIAd3d3ncRCXX09Jjv6C0BuAsib4sWLF7h48SJnma4fYuGTWCzGkSNHEBgYyFkuEonw0Ucf6SQmSnw98ODBAzRt2hQA8PTpU8THxyM2NhaXLl3i1OvXr58OouOX7Nz1nJwcXLt2DdHR0XJz2nv37q3t0Hizd+9eAFUntMTERFy9elXh05hLlixB48aNtR0eAEp8veDn51drHZFIBDc3Ny1Eo1mqnLzs7OzQuXNnzQejIUuXLq21jqenJ0aOHKn5YJSga/zXgJWVFU6ePIn27dvrOhSNGzx4MMLDw2FgYKDrUDRm3rx5CAwM1OkxUouvA40bN671hzjs7Ozg6OgIe3t7DBs2DM2bN9dSdPxR9Yvt7OwMBwcHdO/eHUOHDn2tnkBU5RgtLCzQrl07uLm5wdPTU2e38GTRY7mECNDrc2olhPCGEp8QAaLEJ0SAKPEJESBKfEIEiBKfEAGixCdEgCjxCREgSnxCBIgSnxABosQnRIAo8QkRIEp8QgSIEp8QAaLEJ0SAKPEJESBKfEIEiBKfEAGixCdEgCjxCREgSnxCBIgSnxABosQnRIAo8QkRIEp8QgSIEp8QAaLEJ0SAKPEJESBKfEIEiBKfEAGixCdEgCjxCREgSnxCBIgSnxABosQnRIAo8QkRoIa6DkCZffv2IS0tDffv38fVq1cxadIkeHt7o1OnTroOjZDXnoFEIpHoOojqXrx4AXt7e7nlvr6++P7773UQESFvFr3s6sfGxipcHh4eDrFYrN1gCHkD6WXiR0VFKVxeWFiI69evazkaQt48epf4T58+RUxMjNL1v/32mxajIeTNpHeJf+bMGU55yZIlMDExYeWjR4+ioqJC22ER8kbRu8SPjIzklN3c3DB8+HBWLikpweXLl7UdFiFvFL1K/Pz8fFy6dImVbWxsYGFhATc3N0496u4Toh69Svzff/+dU/7kk08AAM7OzpzlR44cwcuXL7UWFyFvGr1K/IiICE65X79+AIC33noLnp6enHUXLlzQVliEvHH0JvH/+ecfJCYmsrKJiQkcHBxYecCAAZz6ym75EUJqpzdTdk+fPs0pFxYWYvny5az86NEjzvro6GgUFxfDyMhIK/ER8ibRmym7n376Ke7du1enbTZu3IgRI0ZoKCJC3lx60dVPS0urc9ID8rf+CCGq0Yuu/qlTp+SW+fn5yS1LS0vjTPCJjY1FYWEhZ4IPIaR2Ok98iUSCY8eOcZatW7cOo0aNUljf3d0dmZmZrPz7779j/PjxGo2RkDeNzrv6ycnJePjwIWfZxx9/rLS+h4cHp3zixAmNxEXIm0zniR8dHc0pOzk5wdTUVGl96b19qfj4ePz777+aCI2QN5bOE7/6pJ3BgwfXWN/R0REikYizTNnz+4QQxfTmdh4hRHt03uITQrSPEp8QAaLEJ0SAKPEJESBKfEIEiBKfEAGixCdEgCjxCREgSnxCBIgSnxABosQnRIAo8QkRIEp8QgSIEp8QAaLEJ0SAKPEJESBKfEIEiP3K7rlz53QZByGkjvr371/vbanFJ0SA6Df3CBEgavEJESBKfEIEiBKfEAGixCdEgCjxCREgSnxCBIgSnxABosQnRIAo8QkRIEp8QgSIEp8QAaLEJ0SAKPEJESBKfEIEiBKfEAGixCdEgCjxCREgSnxCBKhh7VXq5sqVKzh9+rTK9SdPngwbGxsAwPXr13H8+PE6/b2GDRtiyZIlddpGF548eYIdO3bg+fPnaNy4MRYuXMhrfX2SlpaGAwcOoLKyEl27dsW4ceNqrP/HH3/gwoULAIChQ4fCxcVFG2HWW03x3rhxo07f4QYNGmDp0qV8h1gr3hM/ISEB+/fvV7l+//79WeJLvzB1pe+Jf+3aNcyYMQOFhYVsWU2JXNf6+kIikeDgwYPw9/dnywYPHqw08V++fIlVq1ZxPvNOnTrpbeKrEu/9+/fr9P0Hqr6/BgYGvMWpCt4Tv6ioiO9dvrYqKioQEhKC4OBgjdTXJ48fP8aCBQtw5swZlerfvXsXM2fORGZmpoYj44eq8bZr1w7u7u617u/q1asoKSnhK7w64z3xZVspAHBzc6uxfqtWrdjr9u3b1/qm5eXlITk5uf4Bakl2dja++eYb3LhxAwBgYWEBExMTVla3vj6Ji4vD7Nmz2Wfv5uaGa9euKf1ih4WFYdmyZaw8YsQInDhxQiux1kdd4v3oo4/w0Ucf1bi//Px89OrVCwAwatQorbf2gIZb/F69emH37t0qb9u7d2/07t27xjr+/v6cxPf29q57kFpw+vRplrSjR4/GkiVLsHr1aqWJXNf6+mTXrl0s6ZcsWQJvb2+4ubkpTXxpEpmYmCAoKAgdO3bU68TnO94dO3aw1zNmzFA7vvrgPfEfPXrEXpuamvK676ysLLkxgK+++orXv8EnkUiE1atXw8PDQyP19YmVlRWCg4PRrVs3leq7u7tj7dq1MDY2Rm5uroajUx9f8ebm5iI0NBQAMGbMGFhaWvIVYp1otMWXJv7z589x//59PHnyBA4ODjAxManXvkNCQjhlb29vtGnTpv7BatD777+P6OhovPvuuxqpr0/GjBkDV1dXNG3aVKX6GzduxPDhw3XSxa0PPuP9+eef2Ws/Pz+191dfvCZ+ZWUl5xr/nXfewZYtW7BhwwZOPRsbGwwfPhxff/21ym9mWloajh49ylnm6+urftAa8v7772u0vj4ZPHhwneqPGDFCQ5FoBl/x5uTkYO/evQCqTpYWFha87Lc+eE384uJiTnn79u0Kr/PS0tKwfv16FBQUYPHixSolf1BQEKf8+eefw9zcXL2ACdGirVu3ste6bO0BnmfuPX36lFOWJr2FhQXs7e3l6oeFhXHeDGWSk5MRHR3NWTZ9+nQ1IiVEu7KysvDrr78CAMaPH6/T1h7gOfGfPHnCKYtEIoSGhiI2NhaRkZG4ffs2Bg4cyKkTHh5e634DAwM5ZR8fH2rtyWtly5Yt7LU+XKLy2tVv3bo15syZw8p9+vThXLuKRCKEhITg448/ZiOjDx8+RG5urtJEvn79Os6fP89Z9uWXX/IZNiEalZGRgSNHjgAAJk6cqBcDuLwmvrm5OWbPnl1jnUaNGqFv3744fPgwW3br1i2lib9+/XpO2cfHB2ZmZuoHS4iWyM7E1Jfbz7wmfnJyMlJTU1nZ1dVV4b38ly9fcsoNGii+4rh8+TKuXr3KWUatPXmdpKamIjIyEkBVa9++fXsdR1SF18RPSkrCokWLWNnHx4dTBqrmdJ87d46zrG3btnL7kkgkCAgI4Cyj1p68bmRbe324tpfidXCv+v3c0NBQBAUF4fHjxxCLxUhOTsbEiRM5t/gsLCxgZ2cnt6/z588jKSmJs4xae/I6SUlJYXejJk2ahHbt2uk4ov+P1xbfxMQEAwcO5DyhFRQUJHcPXtaPP/4IQ0NDzjKxWCx3bT9t2jRq7clrRV9be0ADv8Czfv36Wp/Ik9qxY4fCWV8xMTG4d+8eZ9m0adN4iY8QbUhKSmINoLe3t8LLWV3iPfGNjIywY8cO+Pn5KZ2Tb2VlhYMHD2LAgAEK11fvIUyfPh2tW7fmO1Stk/ZsRCKRRurrE2ns1XtzisjO3FQ20KtPVIlX9gk8fRnJl2UgkUgkmvwDubm5SElJwaNHj9CiRQt06NBB4TU9IUR7NJ74hBD9o//9KkII7yjxCREgSnxCBIgSnxABosQnRIAo8QkRIEp8QgSIEp8QAaLEJ0SAKPEJESBKfEIEiBKfEAGixCdEgCjxCREgSnxCBIgSnxABYj+2+eLFC13GQQipI1X/W3JFqMUnRIAo8QkRIEp8QgSIEp8QAaLEJ0SAKPEJESBKfEIEiBKfEAGixCdEgCjxCREgSnxCBIgSnxABosQnRIAo8QkRIEp8QgSIEp8QAaLEJ0SANJr4YrFYk7snhNRTw9qrqK6srAwnT55ESkoKbt++jTt37sDY2BiOjo7o0qUL3N3d0aVLlzrtMy4uDn/88Yfc8hEjRsDBwYGv0Ott06ZNKC4uVrl+//790bt37xrrhIWF4eHDhwCABg0aYMGCBTA0NFQrTnUVFRVhy5Ytddpm6tSpaN++vdL1paWlCAoKQnl5OQDAwsICU6ZMUStOTTp//jwuXboEABgyZAicnZ1V3vbPP//EhQsXWHnSpEmwsrLiPUZV8Zb4+fn5mDNnDm7dusVZXlRUhNjYWMTGxmLbtm1YtGgRxo8fr9I+nz17hu+//x5FRUVy69577z29SPyjR48qjE+ZNm3a1Jj4Fy9exLp16zjL5s2bp/PEf/r0KQ4dOlSnbTw8PGpM/G3btmHv3r2s7OTkpJeJX1paioCAAM7xW1tbq5z4+fn5mD9/PkpKStiyAQMGvP6J/++//2Ls2LEqJcCKFSvw/PlzfPnll7XWXb9+fZ2SShf69u2LJ0+e1Fjn0aNHSE5OBgAYGBgorVdcXIyFCxfyGh9fmjVrhn79+tVa7/79+8jOzgZQ1VtR5vbt29i1axdf4WnM33//jblz5yIrK6ve+1i2bBkn6fUBL4kfFRXFSVCRSISvvvoKtra2ePToEfbs2YP09HS2/siRI7UmfkJCAo4ePcpHeBq1cuXKWuts2LCBJf7AgQOV1gsMDGTv4+DBgxETE8NPkDwwNTWttasvkUgwZswYAED79u3RrVs3hfVevXqFn376CQBgZmaGtm3b4saNG/wGzIMDBw5g1apVrOzp6YmoqKg67SM6OhqxsbEAqi4PTp8+zWeI9cbL4F5ERASn/Ouvv+KLL76Aq6srPvvsMxw4cAAikYitz87ORmZmptL9lZeXY/HixawsEong4+PDR6hal5+fj9DQUACAl5cXLCwsFNZLSEjA//73PwCAr68vunfvrrUY+XL+/HncuXMHADBjxgw0bKi4Xdm9ezdrCJYvX44WLVpoLca6kCa9sbExdu/ejblz59Zp+8ePH2Pp0qUA9O8yRu3ELyoqQsOGDWFtbQ1ra2uMHDkS1tbWnDpGRkZ4//33OctKS0uV7vOXX37hdK38/f3RqlUrdUPVCWnSA1DayyktLWUtoKWlJaZPn66V2PhUWVmJzZs3A6hq7YcOHaqwXmZmJqvn5eVV60CnrvXr1w8RERHo1atXnbddv3496+IvX75c5+M0stTu6hsbGyMyMrLGOi9evMD169dZWSQSwdbWVmHd7OxsBAUFsbKLiws8PDw4g0Cvi9zcXOzbtw8AMHLkSKWtfWhoKLsuXrlyJd5++22txciXP/74A6mpqQCAmTNnKvySV1ZWYsmSJQCqvgPfffedVmOsqzVr1sDDw6PGcRllrl69ihMnTgAA5s6dCysrK6SkpPAdYr3xejtPqri4GBUVFXj+/DnS0tKwadMmzuCGr6+v0rPf6tWrOWV/f/96vfH6YOfOney1stY+PT2dXTuPGzcOTk5OWomNT2KxGJs2bQJQ1dp/+umnCutFREQgMTERgH538aU8PT3rtV1paSk7wVlbW+tVF19KI4k/ceJEzmCelEgkwtdff42pU6cq3O7ixYtsIASouk7U5S0PdWRnZ7PbP6NGjcK7774rV0cikWDZsmUAqnpOc+bM0WqMfImJiWGXZrNmzVJ4Ui8qKmIn9b59+2Lw4MFajVGbZHtwK1asQKNGjXQckTytTtn19PTEe++9p3BdeXk5VqxYwcpmZmav7YAeAOzYsYO9VtbaR0VFsRbQ398fRkZGWomNT2KxmF2aWVpa4pNPPlFYLzAwkPX6Fi1apLX4tC0zM5P14CZMmABHR0cdR6SYRhL/nXfe4YziSx06dAiTJk3CypUrIZFIOOsOHjzIzpIA8NNPP6Fx48aaCE/jsrKy2K3IsWPHKpzE8vTpU3aic3V1xaBBg7QaI19OnjzJPjdl1/bXr1/HsWPHAFRNRmrXrp1WY9Qm6e1dY2NjzJ49W8fRKKeRrr50IK60tBRJSUm4cuUK53r34MGD6Ny5M0aNGgUAKCwsREBAAFvv4uICd3d3TYSmFT///DN7/cUXXyisExwczFpAfZ20U5tXr15xWntF3feKigp2S8vS0hKTJ0/WZohaFRMTg7i4OADAjz/+qNc9OI0kvlTjxo3Rs2dP9OzZE2+//TZCQkLYuhMnTrDEl45+SlVUVOD//J//w1l2+/ZtTnnbtm2Ijo6GjY0Nvv32Ww0dQd2lp6ezuxxjx45V2LrdvXuXXf+PHDkSb7/9NvLy8jh1ZGcD5uTkoHHjxjAyMkLz5s01GH3dREREsLiVtfaHDx9m4z3Tp09XOBNTegIsKSlBTk4OAMDExOS16vG9fPmS9eAsLS3h5OQk95nm5+ez13l5ecjJyUGjRo3QunVrrcYK8JD4cXFxiI+PZ2VXV1eFI9Ndu3bllKW3fgCwhzSkEhMT2bWvMllZWcjKyqrTAzLasHXrVvZ62rRpCuvcu3ePvT569GitMxSHDRsGoOokUf2EqCtlZWW1tvYA94QtnaugTGpqKrvkWbNmTb1H1XUhPz+fndSysrIwYMCAGuvLzlw8d+6cxuOrTu3Ef/bsGbZv387KCQkJCAsLk7sFl5CQwCm3bNlS3T+td1JTU9mUzHHjxqFt27Y6jkhzjh07xr7o33zzjV5NTiG1UzvxP/74Y045MTERM2fOxIwZM9ChQwcUFBTg5MmTnBlsADi9gi5dumDkyJE1/p2EhATObD4nJyd07NgRlpaW6h4Cb2QvZZS19kDVk1nK5rFLHTlyBAcOHABQNSbSpEkTvPPOO/wEqqbS0lLWs7G0tKyxdZszZ47S27dS/v7+SE5OhrW1NdavXw+g6inG10n79u1x/PjxGuvcuXOHtfSLFi1Cjx49dHarT+3Eb9y4McaNG8d5ZFH6GG5NZG/V9evXr9YnvzZt2sQZIBw7dqxedQVTUlJw9uxZAFW3cWr64hoZGdU68CO7fefOnfXqejc8PFzl1t7MzAxmZmY17k/a+2vevLnSGZ36ztDQsNbYZaepd+jQQafHysvtvAULFqg8WmtsbIxff/31tf2AlZFt7ZWN5L8JXrx4webaW1tb13otS/QTL4nfqFEjLFiwAAEBAXKDeFLGxsYYOnQoIiIi6jWpoXqrok/XlKmpqezXVSZOnAhzc3O191nTs+y6FBkZyUbhlc3SqyvpPvT1mKVkx63qM41c9r3S9ffXQPL/ZtK8ePGCt52Wl5fjwYMHyMrKQosWLdCpUycYGxvztn9CCNC0adN6b6uRxCeEaJ46ia/ffStCiEZQ4hMiQJT4hAgQJT4hAkSJT4gAUeITIkCU+IQIECU+IQJEiU+IAFHiEyJAlPiECBAlPiECRIlPiABR4hMiQJT4hAgQJT4hAsR+iIMQIhzU4hMiQJT4hAgQJT4hAkSJT4gAUeITIkCU+IQIECU+IQJEiU+IAFHiEyJAlPiECBAlPiECRIlPiABR4hMiQJT4hAgQJT4hAkSJT4gAUeITIkCvReKLxWJdh6AysViMysrKem9fXl7OYzSa9erVK7W2f52O9U3TkK8drVu3DsXFxXXa5pNPPsFHH30kt/zatWu4fPkykpOTkZSUhMLCQtjZ2cHBwQFdu3bFiBEj0KJFC75CV1t6ejpOnTqFhIQEXLhwASKRCL169cIHH3yAcePG1Rrrw4cPERISgkuXLiE3NxcikQgODg748ssv4ebmpqWjUE1cXBz+/PNPXL16FUlJSTAxMUHfvn3x4YcfwsvLCw0a1NyWxMfHY8uWLUhMTERJSQlMTEzg4uKCWbNmoXPnzlo6iro7f/48zp8/z8qff/45OnbsqLDuihUrVDqpubq6YuDAgbzFWBe8/eaeg4MDSkpK6rTNTz/9hC+++IKVy8rKEBAQgNDQ0Bq3Mzc3R0hICN5///16xcqnhIQETJ06Vemx29jYICwsDObm5grXX7x4EVOmTFG6/zFjxmD16tUwMDDgJV51hIWFYdmyZUrXDxs2DOvWrcNbb72lcH1QUBCCgoKUbr9+/Xp4eXmpHSff8vLyMGDAAM5nvG/fPvTu3Vuubnl5Oezs7FTar6+vL77//nve4qwL3lp8dYnFYkyYMAE3btyotW5ubi5GjRqFrVu3YsiQIVqITrH4+HiMHTuWladNmwYnJycUFRUhOjoacXFxSEtLg5eXF86ePYsmTZpwtk9LS+MkvY+PD1xcXJCbm4vg4GAUFhbi8OHDsLCwgJ+fn9aOS5GdO3di9erVAAALCwuMHDkSnTt3RkZGBsLDw5GZmYnIyEiIxWJs3rxZbvvjx4+zpBeJRJg9ezasrKyQnJyM4OBgAMB3332Hdu3awcXFRXsHpoJFixap3KgVFRWx17169YJIJFJa18bGRu3Y6ou3Fn/+/Pl48uRJjXXOnj3LKfv7+2Pq1KkAgOjoaMycOZOzftiwYfDx8YGxsTGSkpLwww8/cD4AExMTXLt2TWet4Zw5cxAZGQkAOHLkCKcHIhaLMW/ePLY+LCwMrq6unO1nzpyJ6OhoAMCaNWswZswYtq6goAD9+/dnx3vt2jW0atVKo8ejTGVlJVxcXFBYWAgbGxvs378fpqambH1hYSHGjBmDzMxMAMCtW7dgZGTE1peWlsLV1RWFhYUAgJiYGM6XXrbX4+joiOPHj+tFDwcAoqKi8M033wAAhg4dit9++w2A8hY/JSUFnp6eAKoaBhMTE+0FWxcSLfnnn38kVlZWnH85OTls/cqVKznrxo8fL6msrOTs48aNG3L7+O+//7R1CBwVFRUSe3t7iZWVlWTJkiUK6zx48IDFuXLlSs66hw8fsnWDBg2SVFRUyG2/fft2VmfLli2aOAyV3L17l8URHR2tsE54eDir88cff3DWHT9+nK1T9l5NnTqV1YmPj+f7EOqlqKiIfcajRo3ifP8uXbqkcJsLFy6wOoo+U32htVH9kJAQTtnb2xtt27Zl5eoj4e+9957cWb9bt25y+1VnBF0d2dnZaN26NaysrORacikLCwv2Oisri7Pu/v377PWCBQtgaGgot/3kyZNZi3Hnzh0+wq6X+/fvw8rKClZWVkrHVWQH5rKzsznr/v77b/Z6xowZCreXvdaVra9Lq1evZj2utWvXKvyMqpP2akxMTFSqrytaSfyMjAwcPnyYs+yrr77ilB0cHDjlS5cuyY2MXr58mVM2MTFBmzZteIxUdZaWljh79izOnj0Ld3d3hXUePXrEXlcf8JF2iwGgR48eCrdv0qQJu95NS0tTN+R68/DwYMdqZmamsE5OTg573alTJ8466UnO3t6ec4kgy87Ojl0Py743unLlyhUcOXIEQNVJSdkIfnXSz1x60heLxcjKykJCQgKePn2qmWDrQSuJLx28kZoyZYpcwnp4eMDJyYmVk5OTMXnyZMTExCAuLg67du2Cj48PZ5slS5bozbWgIrt372ave/bsyVkn/XKLRCI0b95c6T7effddAFWJr6/zGcRiMX7++WdW7tq1K2e99KQl2wNSxMrKCgCQmprKc4R1U1paioULFwKoGoCTvfNUG2nit2nTBlFRUXB1dYWbmxvGjBkDJycnjBgxAps3b9b5Z6nxUf179+6xAS6p6oAFFNkAABbjSURBVK09ABgaGuLQoUP49ddfERAQgJKSEsTHxyM+Pl6uroWFBb777jt4eHhoLG51JSQkYMeOHQAANzc3uYEg6Zdb+mVXpl27dux1dnY2LC0teY5UfTt37kRSUhIAYOHChWjZsiVbV1ZWhocPHwL4/ycxZSwsLJCcnIy7d+9qLlgVbN++ncW8du1aNGrUSOVtCwoKAAB//vknG7iVlZSUhKSkJGRmZiIgIEBnlwMab/EDAwM55c8//1zpPW2JRILmzZtzrv0VGTJkiFyrok8yMjLY3QqRSITFixcrrAOg1ksV2a61bHdaX0RHR2PdunUAqrrr1eck/Pfff+y1ss+9+vrCwkKUlpbyHKlqMjIy2G1Hb29vvPfee3XaPjc3FwBQUlLC5ptcuXIFly5dQlBQEDvRnzhxAsuXL+c3+DrQaOLfvHkTZ86c4SybPn26wrrl5eXw9fXFt99+W+v17I4dOzBgwACcO3eOt1j5UlBQAB8fHzYotHPnToWttPRat7ZboLKzIfVptiJQ1auR3oI1NzfHnj175FpH2Zhru8Z99uwZe/3222/zGKnqli5dCqBq/Ojbb7+t8/bSrr6dnR1+//13fPrppzA3N0fbtm3h6emJQ4cOseTfu3evzk5wGk38jRs3cso+Pj5Kz/r+/v6IjY3lLFuxYgX++usvpKamIjo6Gn369OGsnzZtGlJSUniNWR1Pnz7FlClTWDcxODgYvXr1UlhXeh9b2vIrIztC3qFDB34C5cHdu3c5vZp9+/YpHPhr2bIlG7SrPtpfnfTOh6Ojo07GbqKjo3Hp0iUAwOLFi2sce1Fmx44diI6Oxv79+9GsWTO59aamppg/fz4rJycn1z9gNWgs8f/66y/2Jkp9+eWXCuuWlZUhPDycs2zDhg2YMGECTE1N0bBhQ9jZ2SE0NFRudDwmJobfwOvp5cuXmDZtGu7duwegquWoaQzC2toaQFW3tqaHXaTJYmJiUuMsMG3KysrCmDFjWK9m79697HgUkV6W1Zb40pOgra0tT5Gq7sWLF1iyZAmAqnGXHj16IDc3l/MvLy+P1f/vv/+QnZ3NWQZU3e2xs7ODsbGx0r8lO4idkJDA85GoRmODe+vXr+eUfXx8lN4KUtRqK5oV1bBhQ/Tr148lF1D10IiuVVRUYObMmUhMTARQdfvH29u7xm1kB/UePHigdPqmdBCwS5cuPEWrnry8PIwfP54l/cGDBzlfZEVsbW0RHx/P7kwoGtAqLi5m98BVvXXGp/z8fPb3MzMz5XqX1UnnHZibm+PKlSsAqu5uSK/xTUxM0LhxY4Xbyl4OvVFd/T///JMlgZSy1h6Awm6dsut8XXWNlKmsrMQPP/zAntyaM2cOfH19a91Ottu+c+dOhXXi4uLYaLkuWsHqnjx5Am9vb/blDgsLU3opI0t6kissLMTx48cV1pF9MKu2Ox366tGjR3B1dYWrqyt++eUXpfVkn0fR1TwU3qfsisViiaenJ2da7YoVK2rc5smTJ3JTcT/88EPJnTt3WJ2KigpJYGCgXL3a9q1py5YtY7GsXbtW5e0qKiokH3/8Mdv27t27nPXV38fExES+Q6+TkpISiZeXF4vn7NmzKm+blZXFtvvggw8kL1684KzPzc1l6+3t7SXFxcV8h1+riooKyd27d2v8Jzsted++fZK7d+9K0tPTOfsZP348+/4WFRXJ/Z1nz55Jhg8fzvbzzz//aOsQOXjv6p85c0auVa6ptQeqRn5nzZrFeaorNzcXQ4cOhYWFBUxMTJQ+tVd9Uo82BQcHc87sDg4OOH36tMK6BgYGGDBgAOvmGhoaYu7cuZg7dy4A4JtvvsGmTZvQpUsXFBcXIyAggL2Pffr00ekjyOXl5fDz82Ofgb29PcrLy5Uea8uWLTlP2FlYWGDcuHE4dOgQCgsLMX/+fCxduhStWrXCw4cPOYNdM2bMUDgopmmGhoa1Pk4r2y23srJSWN/LywtXr15l39+AgAA4OTnBwMAAN2/exMaNG1kvbuLEiWjfvj2/B6Ii3p7OA6qucQYNGsSZcjlt2jQ2C6omlZWVCAsLU/neppWVFYKCgmBvb1/veNVRWFgIZ2fnOm2TnJyMpk2bsrJEIsHixYtx4MABpduYm5vjxIkTaN26db1jVVdMTAy+/vprles7OTnh6NGjnGXPnz/HhAkTarxUc3d3x88//6y3c9xv3rzJfi9A2dN5YrEYAQEBbPKWMqNHj8aqVavejAk8586dk5tnXVtrzwJp0ABTp05FVFQU+vTpo3QE28LCAr6+vjh58qTOkh5QPC5R120MDAywdOlSTosna8iQIQgPD9dp0gN1P1ZFv8LTrFkz/PLLL5xHj2X5+voiODhYb5MeACc2Zb80ZGhoiAULFmDVqlUKb11bWFhg1qxZOk16gOcWn2+5ublIT0/H8+fP0b59e3Ts2FHuxyzeFE+fPsXff/+NvLw8NGvWDB07dtTL6bl8+O+//5CamoonT56gdevWsLW11d/n1tWUl5eH5ORkSCQSODg4KL2zpW16nfiEEM14LX5llxDCL0p8QgSIEp8QAaLEJ0SAKPEJESBKfEIEiBKfEAGixCdEgCjxCREgSnxCBIgSnxABosQnRIAo8QkRIEp8QgSIEp8QAaLEJ0SA2I9tvnjxQpdxEELqSPb3G+uKWnxCBIgSnxABosQnRIAo8QkRIEp8QgSIEp8QAaLEJ0SAKPEJESBKfEIEiBKfEAGixCdEgCjxCREgSnxCBIgSnxABosQnRIAo8QkRIEp8QgRIo4kvkUggkUjU3o9YLOYhGkLq79WrV7oOgVcNa6+iOrFYjJiYGNy+fRspKSm4d+8eSkpK4OTkhG7dusHe3h6ffvopDA0Na9xPfn4+Tp06hZSUFNy6dQvZ2dmwtLSEvb09OnfujOHDh6NVq1Z8hs6b0tJSBAUFoby8HABgYWGBKVOm1LhNQUEBzp07h5SUFNy8eRMVFRXsPXNzc0ObNm20EXqdZWZmYv/+/azct29ffPzxxzVuk5qaikuXLiE5ORk3b96EqakpHB0d0a1bNwwZMgSNGzfWdNgqEYvFiI6ORkJCAq5evYrs7GxYW1vDxcUF/fv3x4cffqh027Vr17LPvya9e/dG//79+QxbZQaS/9ckq/ube/n5+Vi4cCHi4uJqrOfs7Iy1a9fCzMxM4fpbt25h5syZKCoqUroPY2NjBAYG4oMPPlArZk0IDAzErl27WNnJyYmTHNXdvn0bfn5+So9XJBJh69atenesYrEYkydPxq1bt9iyr7/+GjNnzlS6zbFjx+Dv7690fdeuXbF582aYm5vzGmtdvXr1Cj/++CNOnTqltM7ChQsxceJEueXl5eVwcnJS6e988cUX+Pbbb+sdpzq/ucdLi5+bm4thw4ahpKSk1rrx8fHw9PTEkSNHYGFhwVl38eJF+Pr61rqPoqIiTJkyBWFhYXqVELdv3+YkfW1u3LiBSZMmsfLQoUPRrVs3tq9Tp06hpKQEU6ZMwf/+9z/Y29vzHnN97d+/n5P0tQkLC8O6desAVJ3MPD09YWNjg8ePHyMuLg6JiYm4c+cORo8ejTNnzui05Z89ezYuXLgAAOjRowcGDx6M1q1b4/bt2zh06BBKSkqwatUqNGzYEGPHjuVs+/jxY/ba2dkZIpFI6d/p1KmTZg5ABbwk/u7du+WS/ptvvoG7uzsaNGiA2NhYrF+/nq0rKSnB9u3bsXLlSs42e/bs4ZQtLS3h4+MDc3NzZGRkICQkhPN3Tp06pTeJ/+rVK/z0008AADMzM7Rt2xY3btyocZvDhw8DqEqEkJAQ9OzZk7Pe3d0d3333HQDgzJkzepP4Dx8+ZEns7u6Os2fP1lhfLBazE6K1tTW2bduGdu3asfXTp0/HmjVrcPDgQRQVFSE+Ph6urq6aO4AaZGRksKT/5JNPsHbtWnZpOnDgQLi7u2PChAkAgIiICLnEl+25bdy4EcbGxlqKvG54GdxLSEjglGfOnInp06fD2toaVlZWmDp1KvsCK9smPz8ff/31FytbWloiPDwco0aNQp8+feDt7Y2dO3dytvn9999RWVnJxyGobffu3UhPTwcALF++HC1atKixfklJCSIjIwEAI0eOlEt6oOqL1759ewDA+fPneY64fiQSCZYuXQqg6oS1ePHiWrdJTExkCTFnzhxO0gOAoaEhpk2bxsqXL1/mL+A6kv0O/vDDD3LjUd27d8fw4cMBVF2WyrbwADfxa/sO6BIvLX71UXdFLZODgwOnXH2UNDU1FdbW1qw8efJkuW5S9X2UlZXxctdAXZmZmdi8eTMAwMvLC71798bBgwdr3Ka8vBzff/89gKpWUxlTU1NkZ2fzF6yaIiIiWHIsWrRIpUFWIyMjdqx9+vRRWEc2SQwMDHiItH6kA8nm5uYwNTVVWKdz587sdW5uLlq2bMnK0sQ3NjaudRBbl3hJfCcnJ9baAcClS5fkumoXL17klKt30fv06aP0SyF1+/ZtTtnFxUXnb25lZSWWLFkCoKoFrN6zUaZly5a1jvYXFhayy4WaRpG1paioCKtWrQJQNSLt6emp0nZdunRBly5daqxz5coV9vr999+vf5Bqmj9/PubPn19jnZycHPa6Q4cOnHWFhYUAgHfffRdAVaOYk5ODR48eoVOnTmjevDm/AdcTL4n/9ddfs4EooGrgp6ysDO7u7jAwMMCff/4p1wLWNPorJe1GFRQU4Pbt21i7di1n/eeff85H+GqJiIhAYmIiANW6+KpKT0/HrFmzAFSdUKTXlboUEBDAPuPFixfz0jJXVlbiwoUL7FidnJx0dn2viry8PBw4cABAVbe/SZMmnPXSxDc3N0d0dDTWr1+PvLw8tt7e3h79+vXD9OnTddpo8ZL45ubmiImJwbZt29ibEh4ejvDwcLm6zs7O+P777+VG9Kt7/Pix0h6AmZkZli9fjh49eqgfvBqKioqwevVqAFX3sAcPHlzvfUVFReH06dMQi8VISUlhXUZLS0sEBgbC0tKSl5jr66+//mJjEvPnz2djD/WxYcMGZGRk4OXLl0hOTmYnk759+2Lt2rV6cy+/OrFYzMY3AGDBggVydR49egSgqtcbExMjtz45ORnJycnIysrCypUrdZb8vE3gkUgkaNu2LUQiUY239QYOHIi2bduq9bdGjx4t18XShcDAQHasixYtUmtf6enpiI2NlVvu5eWl8/vaZWVlWLZsGQDA1taWcwuyPq5du4bk5GTOsq5du2Lw4ME13v7StbVr17IR/4kTJ8LR0VGujrR1LykpgZmZGX744Qe89957qKysxI0bNxASEoKsrCxERUXByMiI3QnSNl4m8OTm5mLChAmcLk1NjI2NcfDgQXYdpMizZ88wYMAAAFB6Ilm1ahUbYdW269evY/LkyQCAefPmwcfHh7N+xowZiI2NrXUCj1RCQgJu3rwJiUSCgoIC3Llzh13fGxsbIzg4WOWJIXzbsWMHgoKCAAAHDx5E9+7dOeulcw9qm8AjFRkZifz8fLx69Qq5ublsZhxQdQL4+eefYWJiwvNRqGfPnj3slnTfvn2xefNmNGwo324OGzYM6enpsLW1xb59+9CsWTPO+kePHsHb2xtZWVkAqu541LeHo84EHrUTv7y8HCNGjGAHAlR9UVevXg0nJycYGBggKSkJCxcu5JwYzMzMcPLkSZWCf/r0KeLj43H69Gm52VTHjx+Hra1tvWKvr4qKCnh5eSE9PR2WlpaIiIhAo0aNOHXqmviKXLt2DVOnTgVQ9X5FRkbKfZE0LTs7m13CjB49mtPVlapr4lcnFouxf/9+ztyA4ODg+gfNsxMnTrCW2d7eHnv27FH6vX348CFKS0vRqlUrpffwz5w5gzlz5gAA9u3bV+/BTJ3+b7kpKSmcpAeqWoU+ffpAJBKhadOm6NWrF3799VdOnby8vFonuEi1aNECAwYMwLp16+Ds7MxZd+bMGfUOoB4OHz7M7mJMnz4dRUVFyMvL4/yT9lJKSkqQk5ODnJwclJaW1unv9OzZk01xzcvLk5v7oA3SZASAMWPGyB2n7Mn88ePH7FjrMr/C0NAQU6ZMYSeYs2fP4unTp/wdhBrOnTvHkt7S0hLbtm2rMeEsLCxga2tb48Qd2R7T9evX+Qu2DtS+xpeOaEtZWloq7MKbmZmha9euuHPnDlt248YN9O7dG0DVYOB///3H1o0bNw6tW7fm7KNBgwZwdHREfHw8WyZ7G1FbZG8r1naNlpqaikGDBgEA1qxZw26BPXv2DM+ePYOhoWGND+HIDmDev38f/fr1UyPyupM9OY8ePbrGuocOHcKhQ4cAADExMWwAsKCgAGVlZWjatGmNCeHi4sIGxDIyMnR2aSN17do1drehffv22LNnT43xi8VidiI0NjZW2oWXvUSoa2PAF7UTv/otnaysLDx//lyuS1paWspJeqAqkaVSU1M5t/waNmwIPz8/Tn2xWCz3ENA777yjVvy6cvjwYQQGBgKoalWUPbSUm5vLXle/dfS6+PHHHxEXFwdLS0v89ttvSm8D/vvvv+y1rkf2U1JSOJdZe/bsUfoZSRUWFmLgwIEAgLlz53JmI8pKSkpir3U1cKt24nft2lVu2ezZs7Fx40aWlMXFxWzmlizZSR2ffvopJ/G3bNmCiooKeHp6wtzcHA8ePMDWrVvlTh7S60ttmjNnDvtSKOPv74/k5GRYW1uzQSHZln3QoEEs8UNDQ7FgwQK5hHj16hVrQQHAzs6Or0NQ2d69e2t9Fv2zzz4DUHUHQjrgKXusHh4eiIuLQ1ZWFs6cOcN6QLIKCgoQFRXFyrq8fZmZmck+X2NjY4SFhal0J6p169ZwdnZGfHw8Dh48iJEjR3Jm9QFVubBt2zZW1tXELLUH9yQSCSZPnqzwel066Jaamqpw3ZEjR9h9TIlEgqFDh8qNF9TEzMwM0dHROm8dFPH19cXFixdrHNybNGkSe9/69u2LqVOnsie2/v77b2zbto1dSvXo0QN79+7VTvB1VNvgXnFxMXr16sXKPj4+GDRoEKysrPDkyROkpKRgxYoVbO7CjBkz5Hp72pKbm4vRo0ezWGbOnFnjU3QdO3bkTDWXHQg0MzPDypUr0b17dzRo0ABJSUkIDg5mn/nYsWNVetZBGZ2O6gNVA1hr1qzBsWPHVKo/dOhQ+Pv7w8jIiLO8sLAQ8+bN41zDK9OjRw9s2LBB6XxqXVMl8YuKivDtt9/Werz9+/fHmjVr9PYetyqj+ikpKfD19a3xdxaAqkTz9fXV2Xz9NWvWYN++fSrX/+qrrzB79mxWFovF2LRpE0JDQ2vczsvLC0uXLlVrAo/On8cXiURYvnw5PvroI4SGhsp1x6W6du2KSZMmKb33bmJigt27d2Pr1q04efKkwodTLC0tMWTIEPj5+Sm8j6ovpB+o7DhGdcbGxti1axe2b9+OP/74Q65nZG9vjwEDBsDHx0fnzySooqYYu3XrhoiICGzYsAFxcXFycz5cXFwwfvx4do2sK3U94VQ/ZkNDQ8ybNw+WlpbYunWr3HG2b98eHh4e8PPz0+lnytsv8MgSi8XIzs5GZmYmgKpktbCwqPOBPn/+HGlpaSgoKECbNm1gbW2t1llO35WWliIjIwMGBgawsrLSy0sYvjx9+hQPHjxAs2bN0KFDh9fixFYf+fn5uHPnDiQSCbp16yZ3p0odOu/qE0K0T6cTeAghrx9KfEIEiBKfEAGixCdEgCjxCREgSnxCBIgSnxABosQnRIAo8QkRIEp8QgSIEp8QAaLEJ0SAKPEJESBKfEIEiBKfEAGixCdEgNgPcRBChINafEIEiBKfEAGixCdEgP4vXMweWhQT77MAAAAASUVORK5CYII=;" vertex="1" parent="1">
          <mxGeometry x="700" y="100" width="124" height="159.15" as="geometry" />
        </mxCell>
        <mxCell id="9" value="d2" style="text;html=1;strokeColor=none;fillColor=none;align=center;verticalAlign=middle;whiteSpace=wrap;rounded=0;" vertex="1" parent="1">
          <mxGeometry x="553.87" y="65" width="60" height="30" as="geometry" />
        </mxCell>
        <mxCell id="10" value="d1" style="text;html=1;strokeColor=none;fillColor=none;align=center;verticalAlign=middle;whiteSpace=wrap;rounded=0;" vertex="1" parent="1">
          <mxGeometry x="358.86" y="60" width="60" height="30" as="geometry" />
        </mxCell>
        <mxCell id="11" value="d3" style="text;html=1;strokeColor=none;fillColor=none;align=center;verticalAlign=middle;whiteSpace=wrap;rounded=0;" vertex="1" parent="1">
          <mxGeometry x="732" y="60" width="60" height="30" as="geometry" />
        </mxCell>
      </root>
    </mxGraphModel>
  </diagram>
</mxfile>
